<?xml version="1.0" standalone="no"?>
<!DOCTYPE svg PUBLIC "-//W3C//DTD SVG 1.1//EN" "http://www.w3.org/Graphics/SVG/1.1/DTD/svg11.dtd" >
<svg xmlns="http://www.w3.org/2000/svg" xmlns:xlink="http://www.w3.org/1999/xlink" version="1.1">
<metadata>
Created by FontForge 20160407 at Thu May  5 09:41:06 2016
 By Jimmy Wärting
Modern and elegant sans serif font family.
</metadata>
<defs>
<font id="Solomon-Sans-Normal" horiz-adv-x="820" >
  <font-face 
    font-family="Solomon Sans Normal"
    font-weight="400"
    font-stretch="normal"
    units-per-em="1000"
    panose-1="2 0 0 0 0 0 0 0 0 0"
    ascent="750"
    descent="-250"
    x-height="506"
    cap-height="703"
    bbox="-138 -218 1676 910"
    underline-thickness="50"
    underline-position="-100"
    stemh="84"
    stemv="99"
    unicode-range="U+0020-FB04"
  />
<missing-glyph horiz-adv-x="520" 
d="M10 0v700h500v-700h-500zM260 395l170 255h-340zM290 350l170 -255v510zM60 95l170 255l-170 255v-510zM90 50h340l-170 255z" />
    <glyph glyph-name="fi" unicode="fi" horiz-adv-x="521" 
d="M441 0h-79v435h-189v-435h-78v435h-50v72h50v43c0 111 78 162 182 151v-69c-66 4 -104 -25 -104 -82v-43h268v-507zM442 612v92h-81v-92h81z" />
    <glyph glyph-name="fl" unicode="fl" horiz-adv-x="538" 
d="M277 701v-69c-66 4 -104 -25 -104 -82v-46h100v-72h-100v-432h-78v432h-50v72h50v46c0 111 78 162 182 151zM516 -2v69c-66 -5 -81 25 -81 82v556h-79v-556c0 -111 56 -162 160 -151z" />
    <glyph glyph-name="f_f_i" unicode="ffi" horiz-adv-x="826" 
d="M473 433v-433h-78v433h-221v-433h-78v433h-50v67h50v50c0 111 78 162 182 151v-69c-66 4 -104 -25 -104 -82v-50h221v50c0 111 78 162 182 151v-69c-66 4 -104 -25 -104 -82v-50h274v-500h-79v433h-195zM748 612v92h-81v-92h81z" />
    <glyph glyph-name="f_f_l" unicode="ffl" horiz-adv-x="850" 
d="M571 500v-67h-98v-433h-78v433h-221v-433h-78v433h-50v67h50v50c0 111 78 162 182 151v-69c-66 4 -104 -25 -104 -82v-50h221v50c0 111 78 162 182 151v-69c-66 4 -104 -25 -104 -82v-50h98zM828 -2v69c-66 -5 -81 25 -81 82v556h-79v-556c0 -111 56 -162 160 -151z" />
    <glyph glyph-name="f_j" unicode="fj" horiz-adv-x="560" 
d="M477 612v93h-81v-93h81zM296 -198v69c65 -4 103 25 103 82v482h-213v-435h-78v435h-50v72h50v43c0 111 78 162 182 151v-71c-66 4 -104 -23 -104 -80v-43h292v-554c0 -111 -78 -161 -182 -151z" />
    <glyph glyph-name="f_f" unicode="ff" horiz-adv-x="609" 
d="M583 701v-69c-66 4 -104 -25 -104 -82v-52h100v-67h-100v-431h-78v431h-226v-431h-78v431h-50v67h50v52c0 111 78 162 182 151v-69c-66 4 -104 -25 -104 -82v-52h226v52c0 111 78 162 182 151z" />
    <glyph glyph-name=".notdef" horiz-adv-x="520" 
d="M10 0v700h500v-700h-500zM260 395l170 255h-340zM290 350l170 -255v510zM60 95l170 255l-170 255v-510zM90 50h340l-170 255z" />
    <glyph glyph-name="space" unicode=" " horiz-adv-x="257" 
 />
    <glyph glyph-name="exclam" unicode="!" horiz-adv-x="319" 
d="M201 170h-82l-5 530h91zM205 0h-90v103h90v-103z" />
    <glyph glyph-name="quotedbl" unicode="&#x22;" horiz-adv-x="352" 
d="M68 518v193h79v-193h-79zM205 518v193h79v-193h-79z" />
    <glyph glyph-name="numbersign" unicode="#" horiz-adv-x="599" 
d="M551 496l-2 -76h-92l-22 -140h81l-2 -75h-91l-32 -204h-71l31 204h-127l-33 -204h-73l31 204h-91l2 75h101l21 140h-90l2 76h100l32 204h74l-31 -204h127l32 204h72l-31 -204h82zM384 420h-127l-21 -140h127z" />
    <glyph glyph-name="dollar" unicode="$" horiz-adv-x="562" 
d="M151 522c-5 -90 82 -112 140 -127c107 -27 219 -71 212 -225c-5 -114 -94 -173 -188 -185v-91h-73v91c-79 11 -156 60 -189 148l65 34c26 -67 89 -111 160 -111c83 -1 140 42 145 118c7 104 -86 130 -153 148c-94 26 -203 66 -199 204c3 111 82 173 171 186v91h73v-90
c75 -11 145 -56 174 -134l-63 -31c-26 62 -87 93 -144 94c-64 0 -126 -36 -131 -120z" />
    <glyph glyph-name="percent" unicode="%" horiz-adv-x="844" 
d="M395 542c0 -94 -78 -170 -172 -170s-172 76 -172 170c0 95 78 171 172 171s172 -76 172 -171zM790 158c0 -94 -78 -170 -172 -170c-95 0 -173 76 -173 170s78 170 173 170c94 0 172 -76 172 -170zM718 158c0 58 -44 107 -100 107c-57 0 -101 -49 -101 -107
s44 -105 101 -105c56 0 100 47 100 105zM608 742h86l-454 -779h-85zM325 542c0 59 -44 107 -102 107c-57 0 -102 -48 -102 -107c0 -58 45 -106 102 -106c58 0 102 48 102 106z" />
    <glyph glyph-name="ampersand" unicode="&#x26;" horiz-adv-x="662" 
d="M324 379l136 -148c16 28 36 62 50 87l69 -36l-65 -113l125 -142h-105l-65 75c-53 -68 -112 -110 -201 -110c-117 0 -210 79 -210 204c0 104 67 152 140 198c-36 43 -72 93 -72 154c0 103 85 163 176 163c83 0 160 -62 160 -153c0 -96 -68 -141 -138 -179zM417 160
l-168 179c-51 -32 -110 -75 -110 -141c0 -78 62 -127 137 -127c61 0 106 41 141 89zM299 635c-50 0 -90 -36 -90 -86c0 -40 35 -85 63 -118c47 25 112 60 112 124c0 47 -38 80 -85 80z" />
    <glyph glyph-name="quotesingle" unicode="'" horiz-adv-x="213" 
d="M67 518v193h79v-193h-79z" />
    <glyph glyph-name="parenleft" unicode="(" horiz-adv-x="390" 
d="M157 352c0 -153 79 -329 215 -410v-92c-179 94 -297 301 -297 502c0 202 118 409 297 503v-92c-136 -81 -215 -257 -215 -411z" />
    <glyph glyph-name="parenright" unicode=")" horiz-adv-x="389" 
d="M232 352c0 154 -80 330 -215 411v92c179 -94 296 -301 296 -503c0 -201 -117 -408 -296 -502v92c135 81 215 257 215 410z" />
    <glyph glyph-name="asterisk" unicode="*" horiz-adv-x="470" 
d="M422 538l-139 -43l88 -116l-58 -41l-83 119l-83 -119l-57 41l87 116l-138 43l22 66l136 -46l-1 144h70l-3 -144l137 46z" />
    <glyph glyph-name="plus" unicode="+" horiz-adv-x="652" 
d="M82 290v79h210v204h77v-204h201v-79h-201v-206h-77v206h-210z" />
    <glyph glyph-name="comma" unicode="," horiz-adv-x="263" 
d="M27 -109l65 216h92l-82 -216h-75z" />
    <glyph glyph-name="hyphen" unicode="-" horiz-adv-x="458" 
d="M95 272v79h270v-79h-270z" />
    <glyph glyph-name="period" unicode="." horiz-adv-x="264" 
d="M181 -2h-100v109h100v-109z" />
    <glyph glyph-name="slash" unicode="/" horiz-adv-x="422" 
d="M404 778l-287 -843h-85l288 843h84z" />
    <glyph glyph-name="zero" unicode="0" horiz-adv-x="611" 
d="M149 198c0 -86 78 -135 157 -135c78 0 156 49 156 135v307c0 87 -82 135 -160 134s-153 -49 -153 -134v-307zM67 505c0 138 116 208 234 209c121 2 243 -67 243 -209v-307c0 -63 -23 -111 -59 -145c-45 -43 -112 -65 -179 -65c-67 -1 -135 21 -181 65
c-35 34 -58 82 -58 145v307z" />
    <glyph glyph-name="one" unicode="1" horiz-adv-x="326" 
d="M144 623h-92v78h174v-701h-82v623z" />
    <glyph glyph-name="two" unicode="2" horiz-adv-x="569" 
d="M285 633c-73 3 -130 -33 -157 -97l-68 32c39 99 126 149 227 146c132 -5 213 -96 215 -199c0 -59 -27 -117 -76 -171l-246 -269h327v-75h-429l-24 60l316 342c35 37 56 74 55 112c0 63 -51 116 -140 119z" />
    <glyph glyph-name="three" unicode="3" horiz-adv-x="559" 
d="M44 133l62 34c32 -65 100 -103 165 -103c69 0 143 48 143 139c0 83 -61 139 -132 139h-56v73h56c63 0 114 30 114 104c0 78 -60 117 -124 117c-55 0 -117 -30 -144 -86l-59 35c36 83 119 127 198 127c101 0 211 -63 211 -193c0 -58 -30 -114 -78 -136
c65 -35 96 -99 96 -181c-1 -138 -115 -214 -228 -214c-89 0 -183 49 -224 145z" />
    <glyph glyph-name="four" unicode="4" horiz-adv-x="546" 
d="M444 701v-492h56v-76h-56v-133h-82v133h-281l-54 73l331 495h86zM362 209l2 375l-240 -374z" />
    <glyph glyph-name="five" unicode="5" horiz-adv-x="582" 
d="M50 133l67 34c30 -63 104 -100 168 -100c108 0 163 83 162 164c0 79 -52 156 -159 156c-61 0 -111 -7 -166 -39l-44 -2l54 354h350v-78h-283l-29 -181c39 15 79 22 120 22c160 -2 238 -117 238 -233c0 -119 -83 -240 -245 -240c-94 0 -189 48 -233 143z" />
    <glyph glyph-name="six" unicode="6" horiz-adv-x="603" 
d="M306 -10c-160 0 -243 121 -243 240c0 49 14 94 40 135l208 335h95l-149 -241c15 2 32 4 49 4c168 0 243 -117 243 -233c0 -119 -82 -240 -243 -240zM306 387c-90 0 -161 -64 -162 -156c0 -81 55 -164 162 -164c108 0 163 83 162 164c0 79 -55 156 -162 156z" />
    <glyph glyph-name="seven" unicode="7" horiz-adv-x="501" 
d="M377 622h-337v80h413l27 -56l-337 -646h-93z" />
    <glyph glyph-name="eight" unicode="8" horiz-adv-x="587" 
d="M291 -14c-114 0 -228 76 -229 216c-1 79 37 139 97 177c-48 34 -69 88 -69 145c0 123 100 189 201 189c102 0 201 -66 201 -189c0 -54 -20 -111 -68 -145c60 -38 98 -98 97 -177c-1 -140 -115 -216 -230 -216zM291 637c-160 0 -156 -224 0 -224c157 0 161 224 0 224z
M291 343c-194 0 -196 -283 0 -281c199 2 198 281 0 281z" />
    <glyph glyph-name="nine" unicode="9" horiz-adv-x="605" 
d="M299 709c160 0 243 -121 243 -240c0 -49 -14 -94 -40 -135l-208 -335h-95l149 241c-15 -2 -32 -4 -49 -4c-168 0 -243 117 -243 233c0 119 82 240 243 240zM299 312c90 0 161 64 162 156c0 81 -55 164 -162 164c-108 0 -163 -83 -162 -164c0 -79 55 -156 162 -156z" />
    <glyph glyph-name="colon" unicode=":" horiz-adv-x="302" 
d="M197 -2h-100v109h100v-109zM197 386h-100v109h100v-109z" />
    <glyph glyph-name="semicolon" unicode=";" horiz-adv-x="303" 
d="M197 386h-100v109h100v-109zM43 -120l65 216h92l-82 -216h-75z" />
    <glyph glyph-name="less" unicode="&#x3c;" horiz-adv-x="505" 
d="M442 529v-90l-306 -153l306 -152v-87l-401 209v60z" />
    <glyph glyph-name="equal" unicode="=" horiz-adv-x="635" 
d="M101 337v79h433v-79h-433zM101 142v79h433v-79h-433z" />
    <glyph glyph-name="greater" unicode="&#x3e;" horiz-adv-x="504" 
d="M64 438v91l401 -213v-60l-401 -209v90l306 149z" />
    <glyph glyph-name="question" unicode="?" horiz-adv-x="530" 
d="M26 620l9 11c45 58 120 87 194 87c115 0 228 -73 227 -209c-1 -121 -81 -199 -197 -220l-7 -144h-71l-6 207c101 1 201 66 199 158c-2 84 -74 133 -147 133c-54 0 -109 -27 -142 -68zM263 1h-87v93h87v-93z" />
    <glyph glyph-name="at" unicode="@" horiz-adv-x="813" 
d="M648 473l-2 3c-47 59 -127 91 -211 91c-181 0 -291 -155 -294 -304c-2 -137 75 -270 269 -270c30 0 63 5 103 21l34 -64c-52 -20 -94 -28 -137 -28c-246 0 -347 168 -345 342c3 184 138 375 368 375c190 0 333 -128 333 -295c0 -162 -119 -289 -232 -289
c-30 0 -62 15 -64 62c-25 -40 -73 -58 -116 -58c-77 0 -136 75 -136 149c0 137 84 283 230 283c37 0 88 -23 96 -68l14 35l79 -3l-87 -270c-8 -23 -20 -53 6 -53c59 0 134 114 134 212c0 50 -15 95 -42 129zM294 210c0 -45 27 -76 68 -76c81 0 146 120 146 197
c0 52 -22 85 -64 85c-102 2 -150 -122 -150 -206z" />
    <glyph glyph-name="A" unicode="A" horiz-adv-x="632" 
d="M13 0l251 705h101l254 -705h-87l-81 224h-271l-79 -224h-88zM205 300h219l-109 318z" />
    <glyph glyph-name="B" unicode="B" horiz-adv-x="609" 
d="M183 410h128c87 0 130 56 130 111s-43 109 -130 109h-128v-220zM311 333h-128v-257h128c105 0 160 55 160 125c0 65 -52 132 -160 132zM517 519c0 -53 -27 -105 -81 -142c80 -39 114 -108 113 -176c0 -142 -109 -201 -239 -201h-209v704h210c112 0 206 -70 206 -185z" />
    <glyph glyph-name="C" unicode="C" horiz-adv-x="729" 
d="M664 607l-53 -55c-52 54 -125 87 -201 85c-180 -3 -274 -145 -274 -289c0 -143 96 -284 274 -284c82 0 164 38 217 101l58 -48c-66 -79 -165 -129 -275 -129c-233 0 -357 178 -357 360s124 365 357 365c100 0 189 -40 254 -106z" />
    <glyph glyph-name="D" unicode="D" horiz-adv-x="725" 
d="M317 705c229 2 348 -171 351 -346c4 -179 -114 -359 -350 -359h-217v705h216zM317 76c184 -3 274 140 270 282c-3 137 -93 271 -268 271h-136v-553h134z" />
    <glyph glyph-name="E" unicode="E" horiz-adv-x="531" 
d="M462 704v-77h-292v-237h288v-77h-288l-1 -234h293v-78h-375v703h375z" />
    <glyph glyph-name="F" unicode="F" horiz-adv-x="518" 
d="M476 701v-77h-292v-238h288v-77h-288v-308h-83v700h375z" />
    <glyph glyph-name="G" unicode="G" horiz-adv-x="821" 
d="M423 713c110 0 220 -46 285 -124l-58 -50c-52 62 -145 98 -227 98c-178 0 -287 -148 -287 -288c0 -141 97 -286 275 -286c121 0 250 86 263 216h-313v76h404c0 -202 -141 -368 -354 -368c-233 0 -356 180 -357 362c0 181 136 364 369 364z" />
    <glyph glyph-name="H" unicode="H" horiz-adv-x="688" 
d="M505 0v312h-321v-312h-83v703h83v-317h321v317h83v-703h-83z" />
    <glyph glyph-name="I" unicode="I" horiz-adv-x="284" 
d="M101 0v703h82v-703h-82z" />
    <glyph glyph-name="J" unicode="J" horiz-adv-x="555" 
d="M44 167l76 16c15 -77 79 -117 140 -118c66 -1 129 43 129 132v433h-147v70h227v-503c0 -139 -102 -209 -207 -209c-96 0 -193 58 -218 179z" />
    <glyph glyph-name="K" unicode="K" horiz-adv-x="630" 
d="M101 705h83v-348l321 348h91l-281 -316l292 -389h-97l-250 335l-76 -76v-259h-83v705z" />
    <glyph glyph-name="L" unicode="L" horiz-adv-x="478" 
d="M454 77v-77h-353v700h83v-623h270z" />
    <glyph glyph-name="M" unicode="M" horiz-adv-x="851" 
d="M462 95h-71l-210 462v-557h-80v704h105l220 -502l219 502h106v-704h-83v552z" />
    <glyph glyph-name="N" unicode="N" horiz-adv-x="757" 
d="M658 700v-700h-116l-359 586v-586h-82v700h99l376 -610v610h82z" />
    <glyph glyph-name="O" unicode="O" 
d="M410 714c197 0 357 -168 357 -365c0 -198 -160 -363 -357 -363s-357 165 -357 363c0 197 160 365 357 365zM136 349c0 -189 137 -287 274 -287s274 98 274 287c0 188 -138 290 -275 289s-273 -103 -273 -289z" />
    <glyph glyph-name="P" unicode="P" horiz-adv-x="583" 
d="M183 256v-256h-82v703h210c157 0 236 -114 236 -226c0 -113 -79 -221 -235 -221h-129zM311 332c103 0 154 75 154 145c0 71 -52 150 -154 150h-128v-295h128z" />
    <glyph glyph-name="Q" unicode="Q" horiz-adv-x="832" 
d="M470 232l55 55l110 -111c31 45 50 102 50 172c0 188 -139 290 -276 289c-137 0 -272 -102 -272 -289c0 -188 137 -287 274 -287c61 0 122 20 171 58zM689 122l66 -66l-55 -55l-65 66c-61 -51 -139 -82 -224 -82c-197 0 -357 166 -357 363s160 365 357 365
s357 -168 357 -365c0 -85 -29 -164 -79 -226z" />
    <glyph glyph-name="R" unicode="R" horiz-adv-x="616" 
d="M351 286l225 -286h-103l-219 285h-70v-285h-83v701h223c134 0 237 -60 239 -210c1 -139 -93 -199 -212 -205zM184 356h141c95 0 155 40 155 135c0 97 -64 134 -155 134h-141v-269z" />
    <glyph glyph-name="S" unicode="S" horiz-adv-x="560" 
d="M143 526c-5 -88 82 -112 140 -127c108 -27 219 -71 212 -226c-6 -128 -120 -187 -227 -187c-90 0 -186 51 -223 150l65 35c26 -67 89 -111 160 -111c83 -1 140 45 145 118c7 101 -86 130 -153 148c-93 25 -203 66 -199 204c4 127 107 189 209 189c89 0 176 -47 209 -137
l-63 -31c-25 63 -87 94 -144 94c-64 1 -126 -36 -131 -119z" />
    <glyph glyph-name="T" unicode="T" horiz-adv-x="451" 
d="M10 702h431v-80h-174v-622h-83v622h-174v80z" />
    <glyph glyph-name="U" unicode="U" horiz-adv-x="655" 
d="M91 700h83v-498c0 -93 75 -140 151 -141c77 -1 156 46 156 141v498h83v-498c0 -146 -120 -218 -239 -217c-117 1 -234 74 -234 217v498z" />
    <glyph glyph-name="V" unicode="V" horiz-adv-x="627" 
d="M366 -2h-101l-253 706h89l215 -615l214 615h87z" />
    <glyph glyph-name="W" unicode="W" horiz-adv-x="954" 
d="M519 614l160 -521l160 609h85l-194 -705h-101l-147 471c-48 -154 -100 -319 -148 -471h-101l-194 705h86l159 -610l162 522h73z" />
    <glyph glyph-name="X" unicode="X" horiz-adv-x="643" 
d="M615 700l-239 -350c75 -111 165 -238 240 -349h-100l-189 281l-189 -281h-101l241 349l-239 350h99l189 -277c62 91 127 187 189 277h99z" />
    <glyph glyph-name="Y" unicode="Y" horiz-adv-x="589" 
d="M574 705l-240 -426v-279h-81v279c-77 136 -162 291 -239 426h94l186 -339c61 112 125 227 185 339h95z" />
    <glyph glyph-name="Z" unicode="Z" horiz-adv-x="568" 
d="M58 0v80l273 406l103 145h-364v74h445v-76l-262 -392l-116 -162h378v-75h-457z" />
    <glyph glyph-name="bracketleft" unicode="[" horiz-adv-x="311" 
d="M273 787v-71h-86l-1 -732h86v-69h-167l1 872h167z" />
    <glyph glyph-name="backslash" unicode="\" horiz-adv-x="423" 
d="M307 -65l-287 843h84l288 -843h-85z" />
    <glyph glyph-name="bracketright" unicode="]" horiz-adv-x="312" 
d="M36 716v71h167l1 -872h-167v69h86l-1 732h-86z" />
    <glyph glyph-name="asciicircum" unicode="^" horiz-adv-x="609" 
d="M70 301l208 399h54l207 -399h-89l-145 289l-148 -289h-87z" />
    <glyph glyph-name="underscore" unicode="_" horiz-adv-x="582" 
d="M33 0h511v-78h-511v78z" />
    <glyph glyph-name="grave" unicode="`" horiz-adv-x="509" 
d="M263 761l-84 115h93l65 -115h-74z" />
    <glyph glyph-name="a" unicode="a" horiz-adv-x="568" 
d="M418 239c-37 24 -85 36 -128 36c-109 -1 -165 -47 -165 -114c0 -60 51 -108 155 -108c49 0 106 26 138 64v122zM493 0h-61l-11 45c-36 -35 -90 -56 -141 -57c-152 -1 -227 75 -227 173c0 99 79 181 236 179c45 0 91 -17 131 -38v22c0 100 -70 127 -146 127
c-55 0 -113 -19 -155 -49l-33 55c66 48 130 63 190 63c113 1 217 -52 217 -196v-324z" />
    <glyph glyph-name="c" unicode="c" horiz-adv-x="526" 
d="M481 449l-43 -53c-37 35 -85 52 -135 52c-93 1 -179 -77 -180 -196c0 -93 60 -190 181 -190c51 0 101 22 138 56l44 -53c-47 -46 -111 -73 -182 -73c-172 0 -259 130 -259 262c1 132 90 264 259 265c71 0 128 -22 177 -70z" />
    <glyph glyph-name="d" unicode="d" horiz-adv-x="573" 
d="M307 513c35 0 78 -11 110 -35v222h76v-700h-56l-14 52c-49 -54 -98 -57 -146 -58c-135 -3 -228 120 -228 257c0 154 95 262 258 262zM284 61c52 -5 101 22 134 66v283c-34 20 -74 31 -112 31c-94 1 -183 -60 -183 -187c0 -107 57 -183 161 -193z" />
    <glyph glyph-name="e" unicode="e" horiz-adv-x="599" 
d="M304 60c56 0 114 24 148 70l60 -38c-51 -69 -124 -103 -208 -103c-172 0 -259 135 -258 266c0 131 89 264 257 265c161 1 268 -131 244 -293h-425c6 -86 70 -167 182 -167zM123 293h354c-8 93 -76 156 -173 158c-110 -1 -168 -75 -181 -158z" />
    <glyph glyph-name="f" unicode="f" horiz-adv-x="296" 
d="M284 701v-65c-73 11 -113 -20 -113 -86v-42h107v-63h-107v-445h-76v445h-83v63h83v42c0 111 79 164 189 151z" />
    <glyph glyph-name="g" unicode="g" horiz-adv-x="577" 
d="M310 512c35 0 83 -13 110 -46l14 41h62v-502c0 -252 -311 -264 -433 -119l47 51c82 -95 311 -126 311 68v39c-47 -47 -95 -50 -141 -51c-135 -3 -228 120 -228 257c0 154 95 262 258 262zM287 60c57 -7 101 22 134 66v269c-39 35 -75 44 -114 44
c-93 1 -181 -60 -181 -186c0 -107 57 -183 161 -193z" />
    <glyph glyph-name="h" unicode="h" horiz-adv-x="606" 
d="M81 701h78v-229c31 26 71 42 131 43c137 -3 242 -83 242 -231v-284h-78v284c-1 97 -71 154 -161 160c-43 2 -93 -8 -135 -38v-406h-77v701z" />
    <glyph glyph-name="i" unicode="i" horiz-adv-x="241" 
d="M160 0h-79v512h79v-512zM161 592h-81v112h81v-112z" />
    <glyph glyph-name="j" unicode="j" horiz-adv-x="241" 
d="M-22 -198v64c65 -4 103 30 103 87v559h79v-559c0 -111 -78 -161 -182 -151zM159 592h-81v113h81v-113z" />
    <glyph glyph-name="k" unicode="k" horiz-adv-x="518" 
d="M81 700h76v-431l238 239h95l-223 -222l231 -286h-91l-190 236l-60 -56v-180h-76v700z" />
    <glyph glyph-name="l" unicode="l" horiz-adv-x="272" 
d="M235 67v-69c-104 -11 -160 40 -160 151v556h79v-556c0 -57 15 -87 81 -82z" />
    <glyph glyph-name="m" unicode="m" horiz-adv-x="923" 
d="M429 303c0 154 -179 183 -271 93v-396h-77v507h66l10 -47c30 33 71 54 135 54c76 0 142 -31 173 -87c34 63 102 89 174 89c104 0 210 -62 210 -223v-293h-77v293c0 116 -64 155 -138 155c-69 0 -129 -45 -130 -145l-1 -303h-74v303z" />
    <glyph glyph-name="n" unicode="n" horiz-adv-x="616" 
d="M81 507h66l10 -47c29 32 86 53 146 54c137 -3 238 -76 238 -224v-290h-78v290c-1 97 -67 147 -157 153c-43 2 -108 -11 -148 -50v-393h-77v507z" />
    <glyph glyph-name="o" unicode="o" horiz-adv-x="605" 
d="M123 253c0 -132 88 -196 179 -196c92 0 180 64 180 196s-88 194 -180 194c-91 0 -179 -62 -179 -194zM560 253c0 -148 -105 -265 -258 -265c-152 0 -257 117 -257 265s105 264 257 264c153 0 258 -116 258 -264z" />
    <glyph glyph-name="p" unicode="p" horiz-adv-x="573" 
d="M272 513c161 5 253 -101 253 -262c0 -152 -112 -258 -241 -257c-43 0 -88 8 -128 35v-224h-75v702h61l12 -53c26 32 73 58 118 59zM290 61c104 10 161 86 161 193c0 130 -84 190 -173 188c-42 -1 -86 -20 -122 -55v-277c35 -39 77 -56 134 -49z" />
    <glyph glyph-name="q" unicode="q" horiz-adv-x="573" 
d="M301 513c45 -1 92 -27 118 -59l12 53h61v-702h-75v224c-40 -27 -85 -35 -128 -35c-129 -1 -241 105 -241 257c0 161 92 267 253 262zM283 61c57 -7 99 10 134 49v277c-36 35 -80 54 -122 55c-89 2 -173 -58 -173 -188c0 -107 57 -183 161 -193z" />
    <glyph glyph-name="r" unicode="r" horiz-adv-x="404" 
d="M81 510h67l8 -65c51 86 167 89 241 52l-29 -68c-104 49 -209 -9 -209 -124v-305h-78v510z" />
    <glyph glyph-name="s" unicode="s" horiz-adv-x="439" 
d="M231 291c84 -17 165 -53 165 -151c0 -107 -103 -151 -183 -151c-68 0 -132 27 -171 83l48 49c31 -38 73 -62 123 -62c49 -1 107 24 107 82c-1 50 -64 71 -106 79c-83 14 -158 49 -159 145c0 97 87 152 178 152c51 0 109 -16 150 -58l-45 -51c-35 30 -67 37 -105 38
c-52 1 -103 -28 -102 -81c0 -51 60 -66 100 -74z" />
    <glyph glyph-name="t" unicode="t" horiz-adv-x="313" 
d="M269 64v-67c-104 -11 -181 40 -181 151v297h-83v62h83v142l78 7v-149h103v-62h-103v-297c0 -63 38 -89 103 -84z" />
    <glyph glyph-name="u" unicode="u" horiz-adv-x="615" 
d="M534 0h-65l-11 52c-46 -40 -96 -59 -159 -59c-115 0 -225 79 -225 219v294h78v-294c3 -97 81 -149 162 -150c53 -1 107 19 143 63v381h77v-506z" />
    <glyph glyph-name="v" unicode="v" horiz-adv-x="484" 
d="M100 509l120 -338c8 -20 19 -91 22 -110h6c3 21 13 89 21 110l119 338h84l-181 -511h-94l-181 511h84z" />
    <glyph glyph-name="w" unicode="w" horiz-adv-x="718" 
d="M315 510h87l85 -337c7 -23 14 -86 15 -109h5c1 26 7 86 14 110l95 336h80l-151 -510h-92l-85 339c-2 7 -7 62 -8 68h-4c0 -1 -7 -66 -7 -68l-84 -339h-92l-152 510h80l95 -336c11 -34 14 -91 16 -110h5c1 30 7 94 12 109z" />
    <glyph glyph-name="x" unicode="x" horiz-adv-x="514" 
d="M255 311l131 199h97l-178 -256l180 -254h-97l-133 197l-133 -197h-97l179 254l-177 256h97z" />
    <glyph glyph-name="y" unicode="y" horiz-adv-x="504" 
d="M89 -190v65c61 -7 84 17 97 50l28 73l-207 509h84l164 -420l156 420h84l-235 -607c-30 -80 -98 -97 -171 -90z" />
    <glyph glyph-name="z" unicode="z" horiz-adv-x="471" 
d="M46 0v73l277 366l-266 -1v70h365v-51l-294 -388h294v-69h-376z" />
    <glyph glyph-name="braceleft" unicode="{" horiz-adv-x="312" 
d="M277 781v-71c-47 0 -73 7 -73 -50v-162c0 -48 -7 -116 -54 -149c47 -33 54 -101 54 -149v-161c0 -58 26 -51 73 -51v-71h-47c-69 0 -108 47 -108 116v148c0 66 -14 131 -67 131v74c53 0 67 65 67 131v148c0 69 39 116 108 116h47z" />
    <glyph glyph-name="bar" unicode="|" horiz-adv-x="285" 
d="M104 -159v951h77v-951h-77z" />
    <glyph glyph-name="braceright" unicode="}" horiz-adv-x="312" 
d="M35 710v71h47c69 0 108 -47 108 -116v-148c0 -66 14 -131 67 -131v-74c-53 0 -67 -65 -67 -131v-148c0 -69 -39 -116 -108 -116h-47v71c47 0 73 -7 73 51v161c0 48 7 116 54 149c-47 33 -54 101 -54 149v162c0 57 -26 50 -73 50z" />
    <glyph glyph-name="asciitilde" unicode="~" horiz-adv-x="596" 
d="M478 391l53 -43c-52 -114 -151 -132 -250 -69c-80 52 -111 40 -167 -45l-52 43c65 120 154 140 262 67c73 -49 110 -21 154 47z" />
    <glyph glyph-name="exclamdown" unicode="&#xa1;" horiz-adv-x="291" 
d="M105 336h82l5 -530h-91zM101 506h90v-103h-90v103z" />
    <glyph glyph-name="cent" unicode="&#xa2;" horiz-adv-x="568" 
d="M290 1v85c-154 13 -231 136 -231 261c1 124 80 249 231 263v90h61v-90c56 -6 103 -28 144 -68l-43 -53c-37 35 -85 52 -135 52c-93 1 -179 -77 -180 -196c0 -93 60 -190 181 -190c51 0 101 22 138 56l44 -53c-40 -39 -91 -64 -149 -71v-86h-61z" />
    <glyph glyph-name="sterling" unicode="&#xa3;" horiz-adv-x="592" 
d="M543 533l-76 -15c-30 159 -268 158 -268 -14v-128h220v-60h-220v-243h349v-73h-487v73h57v243h-55v60h55v128c0 265 373 282 425 29z" />
    <glyph glyph-name="yen" unicode="&#xa5;" horiz-adv-x="613" 
d="M591 700l-170 -304h85v-60h-119l-35 -63v-12h154v-60h-154v-201h-82v201h-153v60h153v12c-11 21 -23 42 -35 63h-118v60h84c-57 102 -115 209 -170 304h95l186 -339c60 111 124 228 184 339h95z" />
    <glyph glyph-name="section" unicode="&#xa7;" horiz-adv-x="472" 
d="M235 286c22 -4 43 -10 63 -18c24 13 42 35 42 67c-1 51 -64 72 -106 79c-19 3 -38 8 -55 14c-26 -14 -45 -37 -44 -69c0 -51 60 -65 100 -73zM125 455c-30 23 -50 56 -50 104c0 98 87 153 178 153c51 0 109 -17 149 -59l-44 -54c-35 30 -68 40 -107 41
c-51 1 -101 -28 -100 -81c0 -51 60 -64 100 -72c84 -17 165 -55 165 -152c0 -47 -24 -79 -67 -94c31 -24 51 -58 51 -107c0 -107 -103 -151 -183 -151c-68 0 -133 27 -172 83l49 48c31 -37 73 -61 123 -61c48 -1 107 24 106 81c0 51 -63 72 -105 80c-83 14 -159 49 -159 145
c0 43 27 79 66 96z" />
    <glyph glyph-name="dieresis" unicode="&#xa8;" horiz-adv-x="509" 
d="M215 782h-90v98h90v-98zM388 782h-90v98h90v-98z" />
    <glyph glyph-name="copyright" unicode="&#xa9;" horiz-adv-x="831" 
d="M59 350c0 203 158 365 355 365c199 0 358 -162 358 -365s-159 -365 -358 -365c-197 0 -355 162 -355 365zM423 222c-42 0 -79 18 -101 55c-29 47 -26 113 8 156c16 21 39 37 64 43c43 11 91 -4 122 -35l44 52c-38 39 -82 56 -137 56c-72 0 -134 -33 -169 -97
c-34 -62 -35 -143 0 -205c35 -63 98 -95 169 -95c51 0 100 20 137 56l-45 51c-24 -23 -58 -37 -92 -37zM132 350c0 -167 123 -297 282 -297c161 0 285 130 285 297s-124 297 -285 297c-159 0 -282 -130 -282 -297z" />
    <glyph glyph-name="ordfeminine" unicode="&#xaa;" horiz-adv-x="486" 
d="M345 331l-6 43c-30 -41 -80 -53 -128 -43c-87 17 -152 88 -152 189c0 107 87 195 194 197c51 2 105 -8 151 -30l4 -2v-354h-63zM409 279v-57h-332v57h332zM337 433l1 217c-26 9 -56 11 -83 9c-71 -6 -126 -66 -126 -139c0 -60 41 -115 98 -128c43 -9 84 5 110 41z" />
    <glyph glyph-name="guillemotleft" unicode="&#xab;" horiz-adv-x="558" 
d="M250 282l164 206h90l-164 -206l164 -205h-90zM213 77l-164 205l164 206h90l-164 -206l164 -205h-90z" />
    <glyph glyph-name="logicalnot" unicode="&#xac;" horiz-adv-x="624" 
d="M65 345v73h477v-267h-72v194h-405z" />
    <glyph glyph-name="registered" unicode="&#xae;" horiz-adv-x="831" 
d="M464 308c62 12 99 53 99 119c-1 86 -61 125 -141 125h-130v-397h71v150h25l114 -150h83zM60 348c0 203 158 365 355 365c199 0 358 -162 358 -365s-159 -365 -358 -365c-197 0 -355 162 -355 365zM133 348c0 -167 123 -297 282 -297c161 0 285 130 285 297
s-124 297 -285 297c-159 0 -282 -130 -282 -297zM363 365v126h59c47 0 73 -36 74 -64c1 -30 -28 -62 -74 -62h-59z" />
    <glyph glyph-name="macron" unicode="&#xaf;" horiz-adv-x="509" 
d="M127 757v67h255v-67h-255z" />
    <glyph glyph-name="degree" unicode="&#xb0;" horiz-adv-x="400" 
d="M199 437c-77 0 -139 61 -139 136c0 74 62 136 139 136s140 -62 140 -136c0 -75 -63 -136 -140 -136zM199 499c42 0 74 33 74 74s-32 75 -74 75s-74 -34 -74 -75s32 -74 74 -74z" />
    <glyph glyph-name="plusminus" unicode="&#xb1;" horiz-adv-x="691" 
d="M105 69h481v-69h-481v69zM98 340v79h210v204h77v-204h201v-79h-201v-206h-77v206h-210z" />
    <glyph glyph-name="twosuperior" unicode="&#xb2;" horiz-adv-x="405" 
d="M310 526l-166 -147h221v-64h-307l-22 48l224 211c20 20 41 49 32 79c-10 36 -53 48 -85 49c-42 2 -82 -14 -101 -53l-63 26c10 23 25 43 45 59c16 13 35 22 55 28c21 6 43 9 65 8c65 -2 133 -33 152 -100c16 -53 -11 -107 -50 -144z" />
    <glyph glyph-name="threesuperior" unicode="&#xb3;" horiz-adv-x="425" 
d="M309 558c46 -24 67 -63 67 -111c-1 -90 -84 -139 -166 -139c-66 0 -133 32 -163 94l59 28c21 -37 64 -58 106 -58c44 0 90 27 90 76c0 45 -39 76 -82 76h-45v60h45c36 0 69 16 69 57c0 43 -38 63 -77 63c-34 0 -74 -17 -91 -49l-57 30c27 54 87 83 145 83
c76 0 154 -43 154 -127c0 -35 -22 -69 -54 -83z" />
    <glyph glyph-name="acute" unicode="&#xb4;" horiz-adv-x="509" 
d="M334 876l-84 -115h-74l65 115h93z" />
    <glyph glyph-name="mu" unicode="&#xb5;" horiz-adv-x="553" 
d="M470 509v-509h-65l-8 73c-28 -47 -86 -72 -139 -72c-42 0 -75 20 -99 52v-248h-75v704h81v-312c0 -62 16 -122 93 -122c72 0 132 51 132 159v275h80z" />
    <glyph glyph-name="mu" unicode="&#x3bc;" horiz-adv-x="553" 
d="M470 509v-509h-65l-8 73c-28 -47 -86 -72 -139 -72c-42 0 -75 20 -99 52v-248h-75v704h81v-312c0 -62 16 -122 93 -122c72 0 132 51 132 159v275h80z" />
    <glyph glyph-name="paragraph" unicode="&#xb6;" horiz-adv-x="600" 
d="M255 -80v356c-138 6 -208 109 -208 211c0 109 78 217 235 217h220v-784h-79v715h-88v-715h-80z" />
    <glyph glyph-name="periodcentered" unicode="&#xb7;" horiz-adv-x="270" 
d="M93 247v95h92v-95h-92z" />
    <glyph glyph-name="cedilla" unicode="&#xb8;" horiz-adv-x="509" 
d="M298 15l-32 -57c34 -1 78 -36 76 -77c-3 -62 -53 -88 -98 -88c-27 0 -55 10 -85 25l15 44c25 -14 44 -19 64 -19c57 -1 61 67 2 69c-8 0 -18 -1 -27 -6l-24 20l51 89h58z" />
    <glyph glyph-name="onesuperior" unicode="&#xb9;" horiz-adv-x="304" 
d="M118 311v385h-64v65h9h120h9v-450h-74z" />
    <glyph glyph-name="ordmasculine" unicode="&#xba;" horiz-adv-x="477" 
d="M238 392c-91 0 -163 66 -163 160c0 90 72 157 162 157c91 0 164 -67 164 -157c0 -94 -73 -160 -163 -160zM238 448c54 0 98 43 98 104c0 59 -44 101 -98 101c-55 0 -99 -42 -99 -101c0 -61 44 -104 99 -104zM83 257v65h312v-65h-312z" />
    <glyph glyph-name="guillemotright" unicode="&#xbb;" horiz-adv-x="558" 
d="M256 77l164 205l-164 206h89l164 -206l-164 -205h-89zM54 77l164 205l-164 206h89l164 -206l-164 -205h-89z" />
    <glyph glyph-name="onequarter" unicode="&#xbc;" horiz-adv-x="937" 
d="M311 -32h-75l375 786h75zM840 144v299h-72l-234 -310l44 -53h189v-80h73v80h39v64h-39zM767 144l-145 1l146 199zM161 636v-347h74v412h-9h-120h-9v-65h64z" />
    <glyph glyph-name="onehalf" unicode="&#xbd;" horiz-adv-x="956" 
d="M274 -30h-75l376 780h75zM144 636v-347h74v412h-9h-120h-9v-65h64zM677 64l166 147c39 37 66 91 50 144c-19 67 -87 98 -152 100c-22 1 -44 -2 -65 -8c-20 -6 -39 -15 -55 -28c-20 -16 -35 -36 -45 -59l63 -26c19 39 59 55 101 53c32 -1 75 -13 85 -49
c9 -30 -12 -59 -32 -79l-224 -211l22 -48h307v64h-221z" />
    <glyph glyph-name="threequarters" unicode="&#xbe;" horiz-adv-x="989" 
d="M371 -36h-75l381 786h75zM886 144v299h-72l-234 -310l44 -53h189v-80h73v80h39v64h-39zM813 144l-145 1l146 199zM306 505c32 14 54 48 54 83c0 84 -78 127 -154 127c-58 0 -118 -29 -145 -83l57 -30c17 32 57 49 91 49c39 0 77 -20 77 -63c0 -41 -33 -57 -69 -57h-45
v-60h45c43 0 82 -31 82 -76c0 -49 -46 -76 -90 -76c-42 0 -85 21 -106 58l-59 -28c30 -62 97 -94 163 -94c82 0 165 49 166 139c0 48 -21 87 -67 111z" />
    <glyph glyph-name="questiondown" unicode="&#xbf;" horiz-adv-x="504" 
d="M480 -113l-9 -11c-45 -58 -120 -87 -194 -87c-115 0 -228 73 -227 209c1 121 81 199 197 220l7 144h71l6 -207c-101 -1 -201 -66 -199 -158c2 -84 74 -133 147 -133c54 0 109 27 142 68zM243 506h87v-93h-87v93z" />
    <glyph glyph-name="AE" unicode="&#xc6;" horiz-adv-x="865" 
d="M11 1l358 705h442v-76h-291v-240h288v-77h-288l-1 -234h292v-78h-374v236h-218l-120 -236h-88zM437 315v332h-13l-166 -332h179z" />
    <glyph glyph-name="multiply" unicode="&#xd7;" horiz-adv-x="539" 
d="M65 434l55 56l149 -149l144 144l55 -54l-145 -144l143 -143l-56 -55l-142 142l-146 -146l-55 55l146 145z" />
    <glyph glyph-name="Thorn" unicode="&#xde;" horiz-adv-x="583" 
d="M183 143v-143h-82v700h82v-114h127c157 0 236 -113 236 -224c0 -113 -79 -219 -235 -219h-128zM310 219c104 0 154 73 154 143c0 71 -51 153 -154 153h-127v-296h127z" />
    <glyph glyph-name="germandbls" unicode="&#xdf;" horiz-adv-x="581" 
d="M162 525v-448v-77h-83v525c0 115 98 184 204 184s200 -66 200 -180c0 -54 -27 -112 -83 -147c79 -30 128 -105 127 -181c4 -182 -180 -241 -324 -191v76c23 -13 51 -22 86 -22c208 0 206 274 0 274h-59v77h59c77 0 120 60 116 116c-5 65 -62 102 -123 102
c-60 0 -120 -42 -120 -108z" />
    <glyph glyph-name="ae" unicode="&#xe6;" horiz-adv-x="958" 
d="M663 58c56 0 112 24 146 70l63 -38c-51 -69 -125 -101 -209 -101c-88 0 -153 34 -196 85c-52 -55 -129 -85 -195 -83c-303 -3 -298 348 9 344c45 0 87 -14 127 -35c0 0 1 1 1 2v8c0 166 -212 180 -301 93l-40 46c109 108 346 93 389 -57c39 75 111 125 205 126
c161 1 269 -135 245 -297h-426c6 -86 70 -163 182 -163zM272 60c48 0 114 16 159 70c-16 35 -25 73 -26 111c-36 21 -83 29 -123 29c-210 -1 -216 -210 -10 -210zM480 287h356c-8 93 -76 160 -173 162c-110 -1 -170 -79 -183 -162z" />
    <glyph glyph-name="eth" unicode="&#xf0;" horiz-adv-x="613" 
d="M209 498l-29 41l106 64c-44 19 -95 29 -152 29l7 68c86 0 161 -18 221 -50l101 61l26 -42l-81 -49c106 -81 153 -207 148 -382c-1 -126 -82 -244 -255 -244c-172 0 -257 122 -254 242c3 116 88 232 254 231c73 -1 138 -31 179 -90c-21 84 -70 154 -142 200zM301 396
c-117 0 -171 -80 -173 -161c-2 -83 52 -168 173 -168c122 0 177 86 175 169c-2 81 -57 160 -175 160z" />
    <glyph glyph-name="divide" unicode="&#xf7;" horiz-adv-x="615" 
d="M255 482v91h90v-91h-90zM70 293v78h472v-78h-472zM255 91v91h91v-91h-91z" />
    <glyph glyph-name="thorn" unicode="&#xfe;" horiz-adv-x="574" 
d="M81 -195v894h75v-239c26 31 72 52 116 53c161 5 253 -101 253 -262c0 -152 -112 -258 -241 -257c-43 0 -88 8 -128 35v-224h-75zM290 61c104 10 161 86 161 193c0 130 -84 190 -173 188c-42 -1 -86 -20 -122 -55v-277c35 -39 77 -56 134 -49z" />
    <glyph glyph-name="Aogonek" unicode="&#x104;" horiz-adv-x="635" 
d="M470 -116c-9 55 41 97 72 116h-7l-81 224h-271l-79 -224h-88l251 705h101l254 -705s-83 -52 -83 -97c0 -38 70 -49 70 -49l-24 -44s-103 -8 -115 74zM208 300h219l-109 318z" />
    <glyph glyph-name="aogonek" unicode="&#x105;" horiz-adv-x="557" 
d="M353 -112c-9 59 42 97 70 112l-10 44c-36 -35 -90 -51 -141 -52c-307 -3 -302 348 9 344c45 0 89 -14 129 -35v10c0 172 -191 166 -291 95l-40 46c140 117 406 88 406 -141v-310h1l-1 -1v-1h-2c-9 -7 -61 -51 -61 -92c0 -38 70 -49 70 -49l-24 -44s-103 -8 -115 74z
M410 238c-37 24 -85 33 -128 33c-214 -1 -220 -210 -10 -210c49 0 106 17 138 55v122z" />
    <glyph glyph-name="Cacute" unicode="&#x106;" horiz-adv-x="729" 
d="M664 607l-53 -55c-52 54 -125 87 -201 85c-180 -3 -274 -145 -274 -289c0 -143 96 -284 274 -284c82 0 164 38 217 101l58 -48c-66 -79 -165 -129 -275 -129c-233 0 -357 178 -357 360s124 365 357 365c100 0 189 -40 254 -106zM527 876l-84 -115h-74l65 115h93z" />
    <glyph glyph-name="cacute" unicode="&#x107;" horiz-adv-x="526" 
d="M481 449l-43 -53c-37 35 -85 52 -135 52c-93 1 -179 -77 -180 -196c0 -93 60 -190 181 -190c51 0 101 22 138 56l44 -53c-47 -46 -111 -73 -182 -73c-172 0 -259 130 -259 262c1 132 90 264 259 265c71 0 128 -22 177 -70zM410 702l-84 -115h-74l65 115h93z" />
    <glyph glyph-name="Ccircumflex" unicode="&#x108;" horiz-adv-x="729" 
d="M664 607l-53 -55c-52 54 -125 87 -201 85c-180 -3 -274 -145 -274 -289c0 -143 96 -284 274 -284c82 0 164 38 217 101l58 -48c-66 -79 -165 -129 -275 -129c-233 0 -357 178 -357 360s124 365 357 365c100 0 189 -40 254 -106zM266 756l88 117h101l88 -117h-74l-64 81
h-2l-63 -81h-74z" />
    <glyph glyph-name="ccircumflex" unicode="&#x109;" horiz-adv-x="525" 
d="M481 449l-43 -53c-37 35 -85 52 -135 52c-93 1 -179 -77 -180 -196c0 -93 60 -190 181 -190c51 0 101 22 138 56l44 -53c-47 -46 -111 -73 -182 -73c-172 0 -259 130 -259 262c1 132 90 264 259 265c71 0 128 -22 177 -70zM162 579l88 117h101l88 -117h-74l-64 81h-2
l-63 -81h-74z" />
    <glyph glyph-name="Cdotaccent" unicode="&#x10a;" horiz-adv-x="729" 
d="M361 784v88h87v-88h-87zM664 607l-53 -55c-52 54 -125 87 -201 85c-180 -3 -274 -145 -274 -289c0 -143 96 -284 274 -284c82 0 164 38 217 101l58 -48c-66 -79 -165 -129 -275 -129c-233 0 -357 178 -357 360s124 365 357 365c100 0 189 -40 254 -106z" />
    <glyph glyph-name="cdotaccent" unicode="&#x10b;" horiz-adv-x="525" 
d="M254 608v85h87v-85h-87zM481 449l-43 -53c-37 35 -85 52 -135 52c-93 1 -179 -77 -180 -196c0 -93 60 -190 181 -190c51 0 101 22 138 56l44 -53c-47 -46 -111 -73 -182 -73c-172 0 -259 130 -259 262c1 132 90 264 259 265c71 0 128 -22 177 -70z" />
    <glyph glyph-name="Ccaron" unicode="&#x10c;" horiz-adv-x="729" 
d="M664 607l-53 -55c-52 54 -125 87 -201 85c-180 -3 -274 -145 -274 -289c0 -143 96 -284 274 -284c82 0 164 38 217 101l58 -48c-66 -79 -165 -129 -275 -129c-233 0 -357 178 -357 360s124 365 357 365c100 0 189 -40 254 -106zM543 874l-88 -120h-101l-88 120h74l64 -81
h2l63 81h74z" />
    <glyph glyph-name="ccaron" unicode="&#x10d;" horiz-adv-x="525" 
d="M481 449l-43 -53c-37 35 -85 52 -135 52c-93 1 -179 -77 -180 -196c0 -93 60 -190 181 -190c51 0 101 22 138 56l44 -53c-47 -46 -111 -73 -182 -73c-172 0 -259 130 -259 262c1 132 90 264 259 265c71 0 128 -22 177 -70zM435 698l-88 -120h-101l-88 120h74l64 -81h2
l63 81h74z" />
    <glyph glyph-name="Dcaron" unicode="&#x10e;" horiz-adv-x="726" 
d="M317 705c229 2 348 -171 351 -346c4 -179 -114 -359 -350 -359h-217v705h216zM317 76c184 -3 274 140 270 282c-3 137 -93 271 -268 271h-136v-553h134zM474 872l-88 -120h-101l-88 120h74l64 -81h2l63 81h74z" />
    <glyph glyph-name="dcaron" unicode="&#x10f;" horiz-adv-x="611" 
d="M565 703h73c14 -53 7 -97 -31 -145h-49c19 54 28 91 7 145zM309 513c35 0 78 -11 110 -35v222h76v-700h-56l-14 52c-49 -54 -98 -57 -146 -58c-135 -3 -228 120 -228 257c0 154 95 262 258 262zM286 61c57 -7 101 22 134 66v283c-119 70 -295 22 -295 -156
c0 -107 57 -183 161 -193z" />
    <glyph glyph-name="Dcroat" unicode="&#x110;" horiz-adv-x="730" 
d="M46 311v76h61v318h216c229 2 348 -171 351 -346c4 -179 -114 -359 -350 -359h-217v311h-61zM323 76c184 -3 274 140 270 282c-3 137 -93 271 -268 271h-136v-242h132v-76h-132v-235h134z" />
    <glyph glyph-name="dcroat" unicode="&#x111;" horiz-adv-x="579" 
d="M304 584v53h113v63h76v-63h72v-53h-72v-584h-56l-14 52c-49 -54 -98 -57 -146 -58c-135 -3 -228 120 -228 257c0 154 95 262 258 262c35 0 78 -11 110 -35v106h-113zM284 61c57 -7 101 22 134 66v283c-119 70 -295 22 -295 -156c0 -107 57 -183 161 -193z" />
    <glyph glyph-name="Emacron" unicode="&#x112;" horiz-adv-x="530" 
d="M476 704v-77h-292v-237h288v-77h-288l-1 -234h293v-78h-375v703h375zM180 764v67h252v-67h-252z" />
    <glyph glyph-name="emacron" unicode="&#x113;" horiz-adv-x="600" 
d="M304 60c56 0 112 24 146 70l63 -38c-51 -69 -125 -101 -209 -101c-172 0 -259 133 -258 264c0 131 89 264 257 265c161 1 269 -135 245 -297h-426c6 -86 70 -163 182 -163zM123 289h354c-8 93 -76 160 -173 162c-110 -1 -168 -79 -181 -162zM174 608v67h252v-67h-252z
" />
    <glyph glyph-name="Ebreve" unicode="&#x114;" horiz-adv-x="530" 
d="M476 704v-77h-292v-237h288v-77h-288l-1 -234h293v-78h-375v703h375zM297 748c-69 0 -132 40 -132 117h64c0 -42 37 -59 68 -59c29 0 65 16 65 59h66c0 -77 -63 -117 -131 -117z" />
    <glyph glyph-name="ebreve" unicode="&#x115;" horiz-adv-x="600" 
d="M304 60c56 0 112 24 146 70l63 -38c-51 -69 -125 -101 -209 -101c-172 0 -259 133 -258 264c0 131 89 264 257 265c161 1 269 -135 245 -297h-426c6 -86 70 -163 182 -163zM123 289h354c-8 93 -76 160 -173 162c-110 -1 -168 -79 -181 -162zM302 578
c-69 0 -132 40 -132 117h64c0 -42 37 -59 68 -59c29 0 65 16 65 59h66c0 -77 -63 -117 -131 -117z" />
    <glyph glyph-name="Edotaccent" unicode="&#x116;" horiz-adv-x="530" 
d="M253 771v88h87v-88h-87zM476 704v-77h-292v-237h288v-77h-288l-1 -234h293v-78h-375v703h375z" />
    <glyph glyph-name="edotaccent" unicode="&#x117;" horiz-adv-x="600" 
d="M258 602v81h87v-81h-87zM304 60c56 0 112 24 146 70l63 -38c-51 -69 -125 -101 -209 -101c-172 0 -259 133 -258 264c0 131 89 264 257 265c161 1 269 -135 245 -297h-426c6 -86 70 -163 182 -163zM123 289h354c-8 93 -76 160 -173 162c-110 -1 -168 -79 -181 -162z" />
    <glyph glyph-name="Eogonek" unicode="&#x118;" horiz-adv-x="530" 
d="M476 704v-77h-292v-237h288v-77h-288l-1 -234h293v-78h-2c-24 -16 -69 -53 -69 -87c0 -38 70 -49 70 -49l-24 -44s-107 -8 -119 74c-7 47 32 84 62 106h-293v703h375z" />
    <glyph glyph-name="eogonek" unicode="&#x119;" horiz-adv-x="600" 
d="M305 -76c-5 28 9 51 27 69c-9 -1 -19 -2 -28 -2c-172 0 -259 133 -258 264c0 131 89 264 257 265c161 1 269 -135 245 -297h-426c6 -86 70 -163 182 -163c56 0 112 24 146 70l63 -38c-16 -21 -46 -49 -68 -63c-24 -19 -66 -53 -66 -86c0 -38 70 -49 70 -49l-24 -44
s-107 -5 -120 74zM123 289h354c-8 93 -76 160 -173 162c-110 -1 -168 -79 -181 -162z" />
    <glyph glyph-name="Ecaron" unicode="&#x11a;" horiz-adv-x="530" 
d="M476 704v-77h-292v-237h288v-77h-288l-1 -234h293v-78h-375v703h375zM442 874l-88 -120h-101l-88 120h74l64 -81h2l63 81h74z" />
    <glyph glyph-name="ecaron" unicode="&#x11b;" horiz-adv-x="600" 
d="M304 60c56 0 112 24 146 70l63 -38c-51 -69 -125 -101 -209 -101c-172 0 -259 133 -258 264c0 131 89 264 257 265c161 1 269 -135 245 -297h-426c6 -86 70 -163 182 -163zM123 289h354c-8 93 -76 160 -173 162c-110 -1 -168 -79 -181 -162zM433 698l-88 -120h-101
l-88 120h74l64 -81h2l63 81h74z" />
    <glyph glyph-name="Gcircumflex" unicode="&#x11c;" horiz-adv-x="822" 
d="M411 713c110 0 209 -49 274 -127l-58 -49c-52 62 -134 100 -216 100c-178 0 -275 -148 -275 -288c0 -141 97 -286 275 -286c121 0 250 86 263 216h-313v76h404c0 -202 -141 -368 -354 -368c-233 0 -356 180 -357 362c0 181 124 364 357 364zM266 756l88 117h101l88 -117
h-74l-64 81h-2l-63 -81h-74z" />
    <glyph glyph-name="gcircumflex" unicode="&#x11d;" horiz-adv-x="576" 
d="M152 584l88 117h101l88 -117h-74l-64 81h-2l-63 -81h-74zM309 512c35 0 83 -13 110 -46l14 41h62v-502c0 -252 -309 -263 -431 -118l43 50c82 -95 313 -126 313 68v39c-47 -47 -95 -50 -141 -51c-135 -3 -228 120 -228 257c0 154 95 262 258 262zM286 60
c57 -7 101 22 134 66v269c-39 35 -75 44 -114 44c-93 1 -181 -60 -181 -186c0 -107 57 -183 161 -193z" />
    <glyph glyph-name="Gbreve" unicode="&#x11e;" horiz-adv-x="822" 
d="M411 713c110 0 209 -49 274 -127l-58 -49c-52 62 -134 100 -216 100c-178 0 -275 -148 -275 -288c0 -141 97 -286 275 -286c121 0 250 86 263 216h-313v76h404c0 -202 -141 -368 -354 -368c-233 0 -356 180 -357 362c0 181 124 364 357 364zM407 750
c-69 0 -132 40 -132 117h64c0 -42 37 -59 68 -59c29 0 65 16 65 59h66c0 -77 -63 -117 -131 -117z" />
    <glyph glyph-name="gbreve" unicode="&#x11f;" horiz-adv-x="577" 
d="M299 580c-69 0 -130 37 -130 114h62c0 -42 37 -61 68 -61c29 0 65 18 65 61h63c0 -77 -60 -114 -128 -114zM310 512c35 0 83 -13 110 -46l14 41h62v-502c0 -252 -309 -263 -431 -118l43 50c82 -95 313 -126 313 68v39c-47 -47 -95 -50 -141 -51
c-135 -3 -228 120 -228 257c0 154 95 262 258 262zM287 60c57 -7 101 22 134 66v269c-39 35 -75 44 -114 44c-93 1 -181 -60 -181 -186c0 -107 57 -183 161 -193z" />
    <glyph glyph-name="Gdotaccent" unicode="&#x120;" horiz-adv-x="822" 
d="M360 784v90h87v-90h-87zM411 713c110 0 209 -49 274 -127l-58 -49c-52 62 -134 100 -216 100c-178 0 -275 -148 -275 -288c0 -141 97 -286 275 -286c121 0 250 86 263 216h-313v76h404c0 -202 -141 -368 -354 -368c-233 0 -356 180 -357 362c0 181 124 364 357 364z" />
    <glyph glyph-name="gdotaccent" unicode="&#x121;" horiz-adv-x="577" 
d="M259 608v89h87v-89h-87zM309 512c35 0 83 -13 110 -46l14 41h62v-502c0 -252 -309 -263 -431 -118l43 50c82 -95 313 -126 313 68v39c-47 -47 -95 -50 -141 -51c-135 -3 -228 120 -228 257c0 154 95 262 258 262zM286 60c57 -7 101 22 134 66v269c-39 35 -75 44 -114 44
c-93 1 -181 -60 -181 -186c0 -107 57 -183 161 -193z" />
    <glyph glyph-name="Gcommaaccent" unicode="&#x122;" horiz-adv-x="822" 
d="M357 -59h85c15 -50 11 -103 -25 -146l-67 1c19 54 28 91 7 145zM411 713c110 0 209 -49 274 -127l-58 -49c-52 62 -134 100 -216 100c-178 0 -275 -148 -275 -288c0 -141 97 -286 275 -286c121 0 250 86 263 216h-313v76h404c0 -202 -141 -368 -354 -368
c-233 0 -356 180 -357 362c0 181 124 364 357 364z" />
    <glyph glyph-name="gcommaaccent" unicode="&#x123;" horiz-adv-x="577" 
d="M348 565h-84c-14 53 -6 90 18 141h69c-18 -50 -23 -92 -3 -141zM310 512c35 0 83 -13 110 -46l14 41h62v-502c0 -252 -309 -263 -431 -118l43 50c82 -95 313 -126 313 68v39c-47 -47 -95 -50 -141 -51c-135 -3 -228 120 -228 257c0 154 95 262 258 262zM287 60
c57 -7 101 22 134 66v269c-39 35 -75 44 -114 44c-93 1 -181 -60 -181 -186c0 -107 57 -183 161 -193z" />
    <glyph glyph-name="Hcircumflex" unicode="&#x124;" horiz-adv-x="688" 
d="M505 0v312h-321v-312h-83v703h83v-317h321v317h83v-703h-83zM205 756l88 117h101l88 -117h-74l-64 81h-2l-63 -81h-74z" />
    <glyph glyph-name="hcircumflex" unicode="&#x125;" horiz-adv-x="607" 
d="M-16 752l88 117h101l88 -117h-74l-64 81h-2l-63 -81h-74zM81 701h78v-229c31 26 71 42 131 43c137 -3 242 -83 242 -231v-284h-78v284c-1 97 -71 154 -161 160c-43 2 -93 -8 -135 -38v-406h-77v701z" />
    <glyph glyph-name="Hbar" unicode="&#x126;" horiz-adv-x="688" 
d="M42 518v64h59v121h83v-121h321v121h83v-121h61v-64h-61v-518h-83v312h-321v-312h-83v518h-59zM184 386h321v132h-321v-132z" />
    <glyph glyph-name="hbar" unicode="&#x127;" horiz-adv-x="597" 
d="M11 576v55h70v70h78v-70h124v-55h-124v-104c31 26 71 42 131 43c137 -3 242 -83 242 -231v-284h-78v284c-1 97 -71 154 -161 160c-43 2 -93 -8 -135 -38v-406h-77v576h-70z" />
    <glyph glyph-name="Itilde" unicode="&#x128;" horiz-adv-x="283" 
d="M101 0v703h82v-703h-82zM253 851l42 -31c-29 -65 -97 -82 -155 -44c-40 25 -71 17 -98 -23l-44 29c37 70 104 86 168 43c37 -25 66 -8 87 26z" />
    <glyph glyph-name="itilde" unicode="&#x129;" horiz-adv-x="240" 
d="M160 0h-79v511h79v-511zM228 692l42 -31c-29 -65 -97 -82 -155 -44c-40 25 -71 17 -98 -23l-44 29c37 70 104 86 168 43c37 -25 66 -8 87 26z" />
    <glyph glyph-name="Imacron" unicode="&#x12a;" horiz-adv-x="283" 
d="M21 784v64h255v-64h-255zM101 0v703h82v-703h-82z" />
    <glyph glyph-name="imacron" unicode="&#x12b;" horiz-adv-x="240" 
d="M3 614v64h255v-64h-255zM160 0h-79v512h79v-512z" />
    <glyph glyph-name="Ibreve" unicode="&#x12c;" horiz-adv-x="283" 
d="M101 0v703h82v-703h-82zM143 752c-69 0 -132 40 -132 117h64c0 -42 37 -59 68 -59c29 0 65 16 65 59h66c0 -77 -63 -117 -131 -117z" />
    <glyph glyph-name="ibreve" unicode="&#x12d;" horiz-adv-x="240" 
d="M160 0h-79v512h79v-512zM123 575c-69 0 -132 40 -132 117h64c0 -42 37 -59 68 -59c29 0 65 16 65 59h66c0 -77 -63 -117 -131 -117z" />
    <glyph glyph-name="Iogonek" unicode="&#x12e;" horiz-adv-x="285" 
d="M101 0v703h82v-703c-25 -20 -67 -58 -67 -87c0 -38 70 -49 70 -49l-24 -44s-106 -8 -118 74c-7 47 29 84 60 106h-3z" />
    <glyph glyph-name="iogonek" unicode="&#x12f;" horiz-adv-x="240" 
d="M37 -106c-7 47 24 84 50 106h-6v512h79l-1 -513c-25 -20 -52 -57 -52 -86c0 -38 56 -49 56 -49l-24 -44s-90 -8 -102 74zM80 607v99h86v-99h-86z" />
    <glyph glyph-name="Idotaccent" unicode="&#x130;" horiz-adv-x="283" 
d="M98 774v98h87v-98h-87zM101 0v703h82v-703h-82z" />
    <glyph glyph-name="dotlessi" unicode="&#x131;" horiz-adv-x="240" 
d="M160 0h-79v512h79v-512z" />
    <glyph glyph-name="IJ" unicode="&#x132;" horiz-adv-x="603" 
d="M100 0v703h82v-703h-82zM267 -14v79c106 -4 160 38 160 131v426h-132v78h215v-504c0 -144 -102 -210 -243 -210z" />
    <glyph glyph-name="ij" unicode="&#x133;" horiz-adv-x="509" 
d="M84 607v99h84v-99h-84zM164 0h-79v512h79v-512zM230 -198v69c65 -4 103 25 103 82v559h79v-559c0 -111 -78 -161 -182 -151zM416 607v98h-86v-98h86z" />
    <glyph glyph-name="Jcircumflex" unicode="&#x134;" horiz-adv-x="545" 
d="M34 166l76 16c31 -159 266 -159 266 14v426h-132v78h215v-504c0 -266 -373 -283 -425 -30zM179 752l88 117h101l88 -117h-74l-64 81h-2l-63 -81h-74z" />
    <glyph glyph-name="jcircumflex" unicode="&#x135;" horiz-adv-x="240" 
d="M-22 -198v69c65 -4 103 25 103 82v559h79v-559c0 -111 -78 -161 -182 -151zM-12 584l88 117h101l88 -117h-74l-64 81h-2l-63 -81h-74z" />
    <glyph glyph-name="Kcommaaccent" unicode="&#x136;" horiz-adv-x="634" 
d="M296 -49h78c14 -53 7 -101 -28 -145h-63c19 54 34 91 13 145zM101 705h83v-348l321 348h91l-281 -316l292 -389h-97l-250 335l-76 -76v-259h-83v705z" />
    <glyph glyph-name="kcommaaccent" unicode="&#x137;" horiz-adv-x="517" 
d="M238 -40h79c16 -54 12 -96 -23 -145h-63c11 31 19 57 19 84c0 18 -3 38 -12 61zM81 700h76v-431l238 239h95l-223 -222l231 -286h-91l-190 236l-60 -56v-180h-76v700z" />
    <glyph glyph-name="kgreenlandic" unicode="&#x138;" horiz-adv-x="517" 
d="M81 507h76v-238l238 239h95l-223 -222l231 -286h-91l-190 236l-60 -56v-180h-76v507z" />
    <glyph glyph-name="Lacute" unicode="&#x139;" horiz-adv-x="479" 
d="M454 77v-77h-353v700h83v-623h270zM265 870l-84 -115h-74l65 115h93z" />
    <glyph glyph-name="lacute" unicode="&#x13a;" horiz-adv-x="267" 
d="M235 67v-69c-104 -11 -160 40 -160 151v556h79v-556c0 -57 15 -87 81 -82zM236 869l-84 -115h-74l65 115h93z" />
    <glyph glyph-name="Lcommaaccent" unicode="&#x13b;" horiz-adv-x="479" 
d="M270 -59h85c5 -19 7 -35 7 -51c0 -32 -9 -60 -25 -94h-74c11 31 19 57 19 84c0 18 -3 38 -12 61zM454 77v-77h-353v700h83v-623h270z" />
    <glyph glyph-name="lcommaaccent" unicode="&#x13c;" horiz-adv-x="267" 
d="M115 -59h81c13 -49 10 -94 -18 -140h-70c20 52 27 87 7 140zM235 67v-69c-104 -11 -160 40 -160 151v556h79v-556c0 -57 15 -87 81 -82z" />
    <glyph glyph-name="Lcaron" unicode="&#x13d;" horiz-adv-x="479" 
d="M285 706h77c15 -53 9 -96 -20 -145h-64c11 31 19 57 19 84c0 18 -3 38 -12 61zM454 77v-77h-353v700h83v-623h270z" />
    <glyph glyph-name="lcaron" unicode="&#x13e;" horiz-adv-x="298" 
d="M233 706h74c15 -53 5 -90 -21 -141h-60c18 50 27 91 7 141zM235 -2v69c-66 -5 -81 25 -81 82v556h-79v-556c0 -111 56 -162 160 -151z" />
    <glyph glyph-name="Ldot" unicode="&#x13f;" horiz-adv-x="479" 
d="M278 330v101h93v-101h-93zM454 77v-77h-353v700h83v-623h270z" />
    <glyph glyph-name="ldot" unicode="&#x140;" horiz-adv-x="304" 
d="M210 332v99h87v-99h-87zM235 67v-69c-104 -11 -160 40 -160 151v556h79v-556c0 -57 15 -87 81 -82z" />
    <glyph glyph-name="Lslash" unicode="&#x141;" horiz-adv-x="479" 
d="M42 268v75l59 34v323h83v-275l118 68v-77l-118 -67v-272h270v-77h-353v301z" />
    <glyph glyph-name="lslash" unicode="&#x142;" horiz-adv-x="267" 
d="M75 290l-42 -24v71l42 24v344h79v-298l83 49v-73l-83 -48v-186c0 -57 15 -87 81 -82v-69c-104 -11 -160 40 -160 151v141z" />
    <glyph glyph-name="Nacute" unicode="&#x143;" horiz-adv-x="759" 
d="M496 865l-84 -115h-74l65 115h93zM658 700v-700h-116l-359 586v-586h-82v700h99l376 -610v610h82z" />
    <glyph glyph-name="nacute" unicode="&#x144;" horiz-adv-x="616" 
d="M414 691l-84 -115h-65l59 115h90zM81 507h66l10 -47c29 32 75 53 135 54c137 -3 249 -82 249 -230v-284h-78v284c-1 97 -80 153 -170 159c-43 2 -95 -11 -135 -50v-393h-77v507z" />
    <glyph glyph-name="Ncommaaccent" unicode="&#x145;" horiz-adv-x="759" 
d="M331 -35h84c14 -53 7 -94 -18 -145h-73c19 54 28 91 7 145zM658 700v-700h-116l-359 586v-586h-82v700h99l376 -610v610h82z" />
    <glyph glyph-name="ncommaaccent" unicode="&#x146;" horiz-adv-x="616" 
d="M272 -26h75c14 -53 7 -94 -18 -145h-64c19 54 28 91 7 145zM81 507h66l10 -47c29 32 73 53 133 54c137 -3 251 -82 251 -230v-284h-78v284c-1 97 -80 153 -170 159c-43 2 -95 -11 -135 -50v-393h-77v507z" />
    <glyph glyph-name="Ncaron" unicode="&#x147;" horiz-adv-x="759" 
d="M534 868l-88 -120h-101l-88 120h74l64 -81h2l63 81h74zM658 0v700h-82v-610l-376 610h-99v-700h82v586l359 -586h116z" />
    <glyph glyph-name="ncaron" unicode="&#x148;" horiz-adv-x="616" 
d="M443 696l-88 -120h-101l-88 120h74l64 -81h2l63 81h74zM81 507h66l10 -47c29 32 73 53 133 54c137 -3 251 -82 251 -230v-284h-78v284c-1 97 -80 153 -170 159c-43 2 -95 -11 -135 -50v-393h-77v507z" />
    <glyph glyph-name="napostrophe" unicode="&#x149;" horiz-adv-x="609" 
d="M0 706h77c14 -53 7 -94 -18 -145h-66c19 54 28 91 7 145zM76 507h66l10 -47c29 32 73 53 133 54c137 -3 251 -82 251 -230v-284h-78v284c-1 97 -80 153 -170 159c-43 2 -95 -11 -135 -50v-393h-77v507z" />
    <glyph glyph-name="Eng" unicode="&#x14a;" horiz-adv-x="759" 
d="M576 700h82v-733c0 -111 -74 -171 -208 -161v74c70 -6 115 18 115 87v33h-20l-362 586v-586h-82v700h99l376 -610v610z" />
    <glyph glyph-name="eng" unicode="&#x14b;" horiz-adv-x="613" 
d="M81 507h66l10 -47c29 32 73 53 133 54c137 -3 251 -82 251 -230v-330c0 -111 -71 -159 -175 -149v61c65 -4 98 22 98 88v330c-1 97 -81 153 -171 159c-43 2 -95 -11 -135 -50v-393h-77v507z" />
    <glyph glyph-name="Omacron" unicode="&#x14c;" 
d="M281 784v63h255v-63h-255zM410 714c197 0 357 -168 357 -365c0 -198 -160 -363 -357 -363s-357 165 -357 363c0 197 160 365 357 365zM136 349c0 -189 137 -287 274 -287s274 98 274 287c0 188 -138 290 -275 289s-273 -103 -273 -289z" />
    <glyph glyph-name="omacron" unicode="&#x14d;" horiz-adv-x="605" 
d="M172 605v62h255v-62h-255zM123 253c0 -132 88 -196 179 -196c92 0 180 64 180 196s-88 194 -180 194c-91 0 -179 -62 -179 -194zM560 253c0 -148 -105 -265 -258 -265c-152 0 -257 117 -257 265s105 264 257 264c153 0 258 -116 258 -264z" />
    <glyph glyph-name="Obreve" unicode="&#x14e;" 
d="M410 714c197 0 357 -168 357 -365c0 -198 -160 -363 -357 -363s-357 165 -357 363c0 197 160 365 357 365zM136 349c0 -189 137 -287 274 -287s274 98 274 287c0 188 -138 290 -275 289s-273 -103 -273 -289zM411 754c-69 0 -132 40 -132 117h64c0 -42 37 -59 68 -59
c29 0 65 16 65 59h66c0 -77 -63 -117 -131 -117z" />
    <glyph glyph-name="obreve" unicode="&#x14f;" horiz-adv-x="605" 
d="M123 253c0 -132 88 -196 179 -196c92 0 180 64 180 196s-88 194 -180 194c-91 0 -179 -62 -179 -194zM560 253c0 -148 -105 -265 -258 -265c-152 0 -257 117 -257 265s105 264 257 264c153 0 258 -116 258 -264zM301 574c-69 0 -132 40 -132 117h64c0 -42 37 -59 68 -59
c29 0 65 16 65 59h66c0 -77 -63 -117 -131 -117z" />
    <glyph glyph-name="Ohungarumlaut" unicode="&#x150;" 
d="M410 714c197 0 357 -168 357 -365c0 -198 -160 -363 -357 -363s-357 165 -357 363c0 197 160 365 357 365zM136 349c0 -189 137 -287 274 -287s274 98 274 287c0 188 -138 290 -275 289s-273 -103 -273 -289zM447 755l68 113h89l-87 -113h-70zM293 755l63 113h82
l-76 -113h-69z" />
    <glyph glyph-name="ohungarumlaut" unicode="&#x151;" horiz-adv-x="605" 
d="M123 253c0 -132 88 -196 179 -196c92 0 180 64 180 196s-88 194 -180 194c-91 0 -179 -62 -179 -194zM560 253c0 -148 -105 -265 -258 -265c-152 0 -257 117 -257 265s105 264 257 264c153 0 258 -116 258 -264zM326 584l66 107h86l-84 -107h-68zM177 584l61 107h79
l-73 -107h-67z" />
    <glyph glyph-name="OE" unicode="&#x152;" horiz-adv-x="943" 
d="M410 714c33 0 65 -5 95 -13h374v-77h-291v-234h288v-77h-288l-1 -234h292v-78h-368c-32 -10 -66 -15 -101 -15c-197 0 -357 166 -357 363s160 365 357 365zM505 72v554c-101 37 -219 7 -294 -72c-45 -49 -75 -118 -75 -205c0 -77 24 -145 68 -196
c70 -80 187 -121 301 -81z" />
    <glyph glyph-name="oe" unicode="&#x153;" horiz-adv-x="1036" 
d="M123 255c0 -132 88 -195 179 -195c92 0 180 63 180 195s-88 196 -180 196c-91 0 -179 -64 -179 -196zM740 64c57 0 112 24 147 70l63 -38c-51 -69 -126 -101 -210 -101c-94 0 -176 46 -219 130c-42 -83 -125 -134 -219 -134c-152 0 -257 116 -257 264s105 266 257 266
c90 0 180 -47 220 -130c40 75 114 129 218 130c54 0 96 -14 136 -41c92 -58 123 -152 114 -256h-431s0 -1 -1 -1c13 -82 75 -159 182 -159zM559 290h355c-8 93 -76 160 -173 161c-110 0 -169 -79 -182 -161z" />
    <glyph glyph-name="Racute" unicode="&#x154;" horiz-adv-x="616" 
d="M351 286l225 -286h-99l-219 285h-74v-285h-83v701h223c134 0 237 -60 239 -210c1 -139 -93 -199 -212 -205zM184 356h141c95 0 155 40 155 135c0 97 -64 134 -155 134h-141v-269zM413 865l-84 -115h-74l65 115h93z" />
    <glyph glyph-name="racute" unicode="&#x155;" horiz-adv-x="401" 
d="M81 510h67l8 -65c51 86 167 89 241 52l-29 -68c-104 49 -209 -9 -209 -124v-305h-78v510zM343 698l-84 -115h-74l65 115h93z" />
    <glyph glyph-name="Rcommaaccent" unicode="&#x156;" horiz-adv-x="616" 
d="M288 -44h78c5 -19 7 -35 7 -51c0 -32 -9 -60 -25 -94h-67c11 31 19 57 19 84c0 18 -3 38 -12 61zM351 286l225 -286h-99l-219 285h-74v-285h-83v701h223c134 0 237 -60 239 -210c1 -139 -93 -199 -212 -205zM184 356h141c95 0 155 40 155 135c0 97 -64 134 -155 134h-141
v-269z" />
    <glyph glyph-name="rcommaaccent" unicode="&#x157;" horiz-adv-x="401" 
d="M86 -55h77c13 -51 7 -96 -18 -142h-66c22 53 27 89 7 142zM81 510h67l8 -65c51 86 167 89 241 52l-29 -68c-104 49 -209 -9 -209 -124v-305h-78v510z" />
    <glyph glyph-name="Rcaron" unicode="&#x158;" horiz-adv-x="614" 
d="M351 286l225 -286h-99l-219 285h-74v-285h-83v701h223c134 0 237 -60 239 -210c1 -139 -93 -199 -212 -205zM184 356h141c95 0 155 40 155 135c0 97 -64 134 -155 134h-141v-269zM442 872l-88 -120h-101l-88 120h74l64 -81h2l63 81h74z" />
    <glyph glyph-name="rcaron" unicode="&#x159;" horiz-adv-x="401" 
d="M81 510h67l8 -65c51 86 167 89 241 52l-29 -68c-104 49 -209 -9 -209 -124v-305h-78v510zM372 694l-88 -113h-101l-88 113h74l64 -80h2l63 80h74z" />
    <glyph glyph-name="Sacute" unicode="&#x15a;" horiz-adv-x="558" 
d="M143 526c-5 -88 82 -112 140 -127c108 -27 219 -71 212 -226c-6 -128 -120 -187 -227 -187c-90 0 -186 51 -223 150l65 35c26 -67 89 -111 160 -111c83 -1 140 45 145 118c7 101 -86 130 -153 148c-93 25 -203 66 -199 204c4 127 107 189 209 189c89 0 176 -47 209 -137
l-63 -31c-25 63 -87 94 -144 94c-64 1 -126 -36 -131 -119zM396 871l-84 -115h-74l65 115h93z" />
    <glyph glyph-name="sacute" unicode="&#x15b;" horiz-adv-x="439" 
d="M231 291c84 -17 165 -53 165 -151c0 -107 -103 -151 -183 -151c-68 0 -132 27 -171 83l48 49c31 -38 73 -62 123 -62c49 -1 107 24 107 82c-1 50 -64 71 -106 79c-83 14 -158 49 -159 145c0 97 87 152 178 152c51 0 109 -16 150 -58l-45 -51c-35 30 -67 37 -105 38
c-52 1 -103 -28 -102 -81c0 -51 60 -66 100 -74zM345 691l-85 -115h-71l65 115h91z" />
    <glyph glyph-name="Scircumflex" unicode="&#x15c;" horiz-adv-x="558" 
d="M143 526c-5 -88 82 -112 140 -127c108 -27 219 -71 212 -226c-6 -128 -120 -187 -227 -187c-90 0 -186 51 -223 150l65 35c26 -67 89 -111 160 -111c83 -1 140 45 145 118c7 101 -86 130 -153 148c-93 25 -203 66 -199 204c4 127 107 189 209 189c89 0 176 -47 209 -137
l-63 -31c-25 63 -87 94 -144 94c-64 1 -126 -36 -131 -119zM140 756l88 114h101l88 -114h-74l-64 78h-2l-63 -78h-74z" />
    <glyph glyph-name="scircumflex" unicode="&#x15d;" horiz-adv-x="439" 
d="M231 291c84 -17 165 -53 165 -151c0 -107 -103 -151 -183 -151c-68 0 -132 27 -171 83l48 49c31 -38 73 -62 123 -62c49 -1 107 24 107 82c-1 50 -64 71 -106 79c-83 14 -158 49 -159 145c0 97 87 152 178 152c51 0 109 -16 150 -58l-45 -51c-35 30 -67 37 -105 38
c-52 1 -103 -28 -102 -81c0 -51 60 -66 100 -74zM95 570l88 114h101l88 -114h-74l-64 78h-2l-63 -78h-74z" />
    <glyph glyph-name="Scedilla" unicode="&#x15e;" horiz-adv-x="558" 
d="M143 526c-5 -88 82 -112 140 -127c108 -27 219 -71 212 -226c-5 -112 -93 -171 -186 -184l-22 -37c34 -1 78 -33 76 -71c-3 -58 -53 -82 -98 -82c-27 0 -55 9 -85 23l15 41c25 -13 44 -18 64 -18c57 -1 61 63 2 64c-8 0 -18 -1 -27 -5l-24 18l40 65
c-85 7 -171 56 -205 149l65 35c26 -67 89 -111 160 -111c83 -1 140 45 145 118c7 101 -86 130 -153 148c-93 25 -203 66 -199 204c4 127 107 189 209 189c89 0 176 -47 209 -137l-63 -31c-25 63 -87 94 -144 94c-64 1 -126 -36 -131 -119z" />
    <glyph glyph-name="scedilla" unicode="&#x15f;" horiz-adv-x="438" 
d="M231 291c84 -17 165 -53 165 -151c0 -99 -88 -143 -164 -150l-14 -24c29 -1 67 -30 65 -63c-2 -52 -44 -73 -81 -73c-23 0 -46 8 -71 20l13 37c21 -12 36 -16 53 -16c47 -1 51 56 1 57c-6 0 -12 -1 -19 -5l-20 16l29 52c-59 6 -112 32 -146 81l48 49
c31 -38 73 -62 123 -62c49 -1 107 24 107 82c-1 50 -64 71 -106 79c-83 14 -158 49 -159 145c0 97 87 152 178 152c51 0 109 -16 150 -58l-45 -51c-35 30 -67 37 -105 38c-52 1 -103 -28 -102 -81c0 -51 60 -66 100 -74z" />
    <glyph glyph-name="Tcommaaccent" unicode="&#x162;" horiz-adv-x="451" 
d="M10 702h431v-80h-174v-622h-19l-8 -42c127 -12 108 -165 -6 -165c-27 0 -55 10 -85 25l15 44c25 -14 44 -19 64 -19c60 -1 64 67 2 69c-8 0 -21 1 -30 -4l-21 18l13 74h-8v622h-174v80z" />
    <glyph glyph-name="tcommaaccent" unicode="&#x163;" horiz-adv-x="307" 
d="M219 -3l-14 -39c127 -12 108 -165 -6 -165c-27 0 -55 10 -85 25l15 44c25 -14 44 -19 64 -19c60 -1 64 67 2 69c-8 0 -21 1 -30 -4l-21 18l26 83c-49 22 -82 68 -82 139v291h-52v68h52v192h78v-192h103v-68h-103v-291c0 -57 38 -87 103 -82v-69c-18 -2 -34 -2 -50 0z" />
    <glyph glyph-name="Tcaron" unicode="&#x164;" horiz-adv-x="451" 
d="M10 702h431v-80h-174v-622h-83v622h-174v80zM363 869l-88 -118h-101l-88 118h74l64 -79h2l63 79h74z" />
    <glyph glyph-name="tcaron" unicode="&#x165;" horiz-adv-x="307" 
d="M245 707h72c14 -52 7 -92 -18 -142h-62c19 54 29 88 8 142zM269 -3v69c-65 -5 -103 25 -103 82v291h103v68h-103v192h-78v-192h-52v-68h52v-291c0 -111 77 -162 181 -151z" />
    <glyph glyph-name="Tbar" unicode="&#x166;" horiz-adv-x="450" 
d="M53 320v58h131v244h-174v80h431v-80h-174v-244h132v-58h-132v-320h-83v320h-131z" />
    <glyph glyph-name="tbar" unicode="&#x167;" horiz-adv-x="307" 
d="M39 240v60h49v139h-52v68h52v192h78v-192h103v-68h-103v-139h103v-60h-103v-92c0 -57 38 -90 103 -85v-66c-104 -11 -181 40 -181 151v92h-49z" />
    <glyph glyph-name="Utilde" unicode="&#x168;" horiz-adv-x="654" 
d="M91 700h83v-498c0 -188 307 -188 307 0v498h83v-498c0 -289 -473 -289 -473 0v498zM438 864l44 -31c-30 -67 -100 -84 -162 -45c-41 26 -74 17 -101 -24l-47 30c39 71 109 88 175 43c39 -25 70 -7 91 27z" />
    <glyph glyph-name="utilde" unicode="&#x169;" horiz-adv-x="614" 
d="M417 692l42 -32c-32 -65 -102 -78 -161 -38c-39 28 -71 21 -100 -18l-45 31c41 68 111 82 174 35c37 -27 68 -10 90 22zM534 0h-65l-11 52c-29 -32 -73 -60 -133 -61c-137 3 -251 62 -251 221v295h78v-295c3 -102 89 -155 177 -150c46 2 91 25 128 63v382h77v-507z" />
    <glyph glyph-name="Umacron" unicode="&#x16a;" horiz-adv-x="654" 
d="M203 778v65h255v-65h-255zM91 700h83v-498c0 -188 307 -188 307 0v498h83v-498c0 -289 -473 -289 -473 0v498z" />
    <glyph glyph-name="umacron" unicode="&#x16b;" horiz-adv-x="614" 
d="M181 626v62h251v-62h-251zM534 0h-65l-11 52c-29 -32 -73 -60 -133 -61c-137 3 -251 62 -251 221v295h78v-295c3 -102 89 -155 177 -150c46 2 91 25 128 63v382h77v-507z" />
    <glyph glyph-name="Ubreve" unicode="&#x16c;" horiz-adv-x="654" 
d="M91 700h83v-498c0 -188 307 -188 307 0v498h83v-498c0 -289 -473 -289 -473 0v498zM332 744c-69 0 -132 40 -132 117h64c0 -42 37 -60 68 -60c29 0 65 17 65 60h66c0 -77 -63 -117 -131 -117z" />
    <glyph glyph-name="ubreve" unicode="&#x16d;" horiz-adv-x="614" 
d="M310 576c-69 0 -132 40 -132 117h64c0 -42 37 -60 68 -60c29 0 65 17 65 60h66c0 -77 -63 -117 -131 -117zM534 0h-65l-11 52c-29 -32 -73 -60 -133 -61c-137 3 -251 62 -251 221v295h78v-295c3 -102 89 -155 177 -150c46 2 91 25 128 63v382h77v-507z" />
    <glyph glyph-name="Uring" unicode="&#x16e;" horiz-adv-x="654" 
d="M91 700h83v-498c0 -188 307 -188 307 0v498h83v-498c0 -289 -473 -289 -473 0v498zM337 738c-45 0 -84 28 -84 74c0 47 39 75 84 75c44 0 84 -28 84 -75c0 -46 -40 -74 -84 -74zM337 780c19 0 33 13 33 32c0 21 -14 34 -33 34c-20 0 -33 -13 -33 -34c0 -19 13 -32 33 -32
z" />
    <glyph glyph-name="uring" unicode="&#x16f;" horiz-adv-x="614" 
d="M304 556c-45 0 -84 28 -84 74c0 47 39 75 84 75c44 0 84 -28 84 -75c0 -46 -40 -74 -84 -74zM304 598c19 0 33 13 33 32c0 21 -14 34 -33 34c-20 0 -33 -13 -33 -34c0 -19 13 -32 33 -32zM534 0h-65l-11 52c-29 -32 -73 -60 -133 -61c-137 3 -251 62 -251 221v295h78
v-295c3 -102 89 -155 177 -150c46 2 91 25 128 63v382h77v-507z" />
    <glyph glyph-name="Uhungarumlaut" unicode="&#x170;" horiz-adv-x="654" 
d="M91 700h83v-498c0 -188 307 -188 307 0v498h83v-498c0 -289 -473 -289 -473 0v498zM368 755l66 107h86l-84 -107h-68zM219 755l61 107h79l-73 -107h-67z" />
    <glyph glyph-name="uhungarumlaut" unicode="&#x171;" horiz-adv-x="616" 
d="M333 585l66 107h86l-84 -107h-68zM184 585l61 107h79l-73 -107h-67zM534 0h-65l-11 52c-29 -32 -73 -60 -133 -61c-137 3 -251 62 -251 221v295h78v-295c3 -102 89 -155 177 -150c46 2 91 25 128 63v382h77v-507z" />
    <glyph glyph-name="Uogonek" unicode="&#x172;" horiz-adv-x="654" 
d="M91 700h83v-498c0 -188 307 -188 307 0v498h83v-498c0 -81 -38 -140 -91 -175c-21 -17 -64 -48 -64 -82c0 -41 65 -65 65 -65l-23 -62s-113 22 -113 108c0 25 13 45 29 62c-130 -18 -276 53 -276 214v498z" />
    <glyph glyph-name="uogonek" unicode="&#x173;" horiz-adv-x="614" 
d="M534 0c-27 -14 -59 -35 -60 -67c-2 -46 61 -57 61 -57l-22 -46s-102 6 -102 87c0 34 25 64 58 83l-11 52c-29 -32 -73 -60 -133 -61c-137 3 -251 62 -251 221v295h78v-295c3 -102 89 -155 177 -150c46 2 91 25 128 63v382h77v-507z" />
    <glyph glyph-name="Wcircumflex" unicode="&#x174;" horiz-adv-x="958" 
d="M519 614l160 -521l159 609h85l-193 -705h-101l-147 471c-48 -154 -100 -319 -148 -471h-101l-194 705h86l159 -610l162 522h73zM344 754l88 117h101l88 -117h-74l-64 81h-2l-63 -81h-74z" />
    <glyph glyph-name="wcircumflex" unicode="&#x175;" horiz-adv-x="720" 
d="M221 579l88 117h101l88 -117h-74l-64 81h-2l-63 -81h-74zM318 510h87l85 -337c7 -23 14 -74 15 -97h5c1 26 7 74 14 98l95 336h80l-151 -510h-92l-85 339c-2 7 -7 62 -8 68h-4c0 -1 -7 -66 -7 -68l-84 -339h-92l-152 510h80l95 -336c11 -34 14 -79 16 -98h5
c1 30 7 82 12 97z" />
    <glyph glyph-name="Ycircumflex" unicode="&#x176;" horiz-adv-x="586" 
d="M571 705l-240 -426v-279h-81v279c-77 136 -162 291 -239 426h94l186 -339c61 112 125 227 185 339h95zM157 754l88 117h101l88 -117h-74l-64 81h-2l-63 -81h-74z" />
    <glyph glyph-name="ycircumflex" unicode="&#x177;" horiz-adv-x="505" 
d="M115 578l88 117h101l88 -117h-74l-64 81h-2l-63 -81h-74zM90 -190v65c61 -7 84 17 97 50l28 73l-207 509h84l164 -419l156 419h84l-235 -607c-30 -80 -98 -97 -171 -90z" />
    <glyph glyph-name="Zacute" unicode="&#x179;" horiz-adv-x="569" 
d="M415 873l-84 -115h-74l65 115h93zM58 0v80l273 406l103 145h-364v74h445v-76l-262 -392l-116 -162h378v-75h-457z" />
    <glyph glyph-name="zacute" unicode="&#x17a;" horiz-adv-x="469" 
d="M342 692l-84 -115h-74l65 115h93zM46 0v73l277 366l-266 -1v70h365v-51l-294 -388h294v-69h-376z" />
    <glyph glyph-name="Zdotaccent" unicode="&#x17b;" horiz-adv-x="568" 
d="M258 769v89h87v-89h-87zM58 0v80l273 406l103 145h-364v74h445v-76l-262 -392l-116 -162h378v-75h-457z" />
    <glyph glyph-name="zdotaccent" unicode="&#x17c;" horiz-adv-x="469" 
d="M202 596v83h87v-83h-87zM46 0v73l277 366l-266 -1v70h365v-51l-294 -388h294v-69h-376z" />
    <glyph glyph-name="longs" unicode="&#x17f;" horiz-adv-x="232" 
d="M277 701v-69c-66 4 -104 -25 -104 -82v-550h-78v432h-55v72h55v46c0 111 78 162 182 151z" />
    <glyph glyph-name="florin" unicode="&#x192;" horiz-adv-x="562" 
d="M518 712l-12 -72c-99 9 -122 -74 -136 -152h108l-13 -76h-108l-88 -461c-19 -97 -69 -167 -201 -167c-17 0 -34 1 -50 6l11 65c106 -16 140 25 157 110l86 447h-95l14 76h96l6 32c19 102 88 194 208 194c6 0 12 -1 17 -2z" />
    <glyph glyph-name="Scommaaccent" unicode="&#x218;" horiz-adv-x="558" 
d="M237 -56h78c14 -52 7 -90 -18 -140h-67c20 52 27 87 7 140zM143 526c-5 -88 82 -112 140 -127c108 -27 219 -71 212 -226c-6 -128 -120 -187 -227 -187c-90 0 -186 51 -223 150l65 35c26 -67 89 -111 160 -111c83 -1 140 45 145 118c7 101 -86 130 -153 148
c-93 25 -203 66 -199 204c4 127 107 189 209 189c89 0 176 -47 209 -137l-63 -31c-25 63 -87 94 -144 94c-64 1 -126 -36 -131 -119z" />
    <glyph glyph-name="scommaaccent" unicode="&#x219;" horiz-adv-x="439" 
d="M182 -56h75c11 -45 4 -94 -18 -136h-64c21 51 26 84 7 136zM231 291c84 -17 165 -53 165 -151c0 -107 -103 -151 -183 -151c-68 0 -132 27 -171 83l48 49c31 -38 73 -62 123 -62c49 -1 107 24 107 82c-1 50 -64 71 -106 79c-83 14 -158 49 -159 145c0 97 87 152 178 152
c51 0 109 -16 150 -58l-45 -51c-35 30 -67 37 -105 38c-52 1 -103 -28 -102 -81c0 -51 60 -66 100 -74z" />
    <glyph glyph-name="uni021A" unicode="&#x21a;" horiz-adv-x="451" 
d="M189 -47h80c14 -53 7 -96 -18 -147h-69c19 54 28 93 7 147zM10 702h431v-80h-174v-622h-83v622h-174v80z" />
    <glyph glyph-name="uni021B" unicode="&#x21b;" horiz-adv-x="307" 
d="M166 -57h77c14 -53 7 -94 -18 -145h-66c19 54 28 91 7 145zM270 66v-69c-104 -11 -181 40 -181 151v291h-52v68h52v192h78v-192h103v-68h-103v-291c0 -57 38 -87 103 -82z" />
    <glyph glyph-name="circumflex" unicode="&#x2c6;" horiz-adv-x="509" 
d="M117 763l88 117h101l88 -117h-74l-64 81h-2l-63 -81h-74z" />
    <glyph glyph-name="caron" unicode="&#x2c7;" horiz-adv-x="509" 
d="M393 879l-88 -120h-101l-88 120h74l64 -81h2l63 81h74z" />
    <glyph glyph-name="breve" unicode="&#x2d8;" horiz-adv-x="509" 
d="M255 751c-69 0 -132 40 -132 117h64c0 -42 37 -59 68 -59c29 0 65 16 65 59h66c0 -77 -63 -117 -131 -117z" />
    <glyph glyph-name="dotaccent" unicode="&#x2d9;" horiz-adv-x="510" 
d="M211 784v89h87v-89h-87z" />
    <glyph glyph-name="ring" unicode="&#x2da;" horiz-adv-x="510" 
d="M255 743c-45 0 -84 28 -84 74c0 47 39 75 84 75c44 0 84 -28 84 -75c0 -46 -40 -74 -84 -74zM255 785c19 0 33 13 33 32c0 21 -14 34 -33 34c-20 0 -33 -13 -33 -34c0 -19 13 -32 33 -32z" />
    <glyph glyph-name="ogonek" unicode="&#x2db;" horiz-adv-x="509" 
d="M175 -106c-12 79 99 129 99 129l58 -11s-85 -54 -85 -99c0 -38 70 -49 70 -49l-24 -44s-106 -8 -118 74z" />
    <glyph glyph-name="tilde" unicode="&#x2dc;" horiz-adv-x="490" 
d="M359 858l45 -33c-31 -70 -103 -88 -166 -47c-42 27 -76 18 -104 -25l-48 31c40 75 112 93 180 46c40 -27 71 -8 93 28z" />
    <glyph glyph-name="hungarumlaut" unicode="&#x2dd;" horiz-adv-x="509" 
d="M245 755l68 113h89l-87 -113h-70zM91 755l63 113h82l-76 -113h-69z" />
    <glyph glyph-name="uni1E9E" unicode="&#x1e9e;" horiz-adv-x="585" 
d="M176 525v-448v-77h-83v525c0 115 98 184 204 184s200 -66 200 -180c0 -54 -27 -112 -83 -147c79 -30 128 -105 127 -181c4 -182 -180 -241 -324 -191v76c23 -13 51 -22 86 -22c208 0 206 274 0 274h-59v77h59c77 0 120 60 116 116c-5 65 -62 102 -123 102
c-60 0 -120 -42 -120 -108z" />
    <glyph glyph-name="endash" unicode="&#x2013;" horiz-adv-x="697" 
d="M95 246v77h509v-77h-509z" />
    <glyph glyph-name="emdash" unicode="&#x2014;" horiz-adv-x="867" 
d="M95 246v78h688v-78h-688z" />
    <glyph glyph-name="quoteleft" unicode="&#x2018;" horiz-adv-x="237" 
d="M193 717l-55 -211h-89l78 211h66z" />
    <glyph glyph-name="quoteright" unicode="&#x2019;" horiz-adv-x="229" 
d="M49 507l55 211h89l-78 -211h-66z" />
    <glyph glyph-name="quotedblleft" unicode="&#x201c;" horiz-adv-x="379" 
d="M193 717l-55 -211h-89l78 211h66zM334 717l-55 -211h-89l78 211h66z" />
    <glyph glyph-name="quotedblright" unicode="&#x201d;" horiz-adv-x="365" 
d="M49 507l55 211h87l-76 -211h-66zM191 507l55 211h87l-76 -211h-66z" />
    <glyph glyph-name="dagger" unicode="&#x2020;" horiz-adv-x="429" 
d="M168 -50v486h-133v70h133v200h73v-200h139v-70h-139v-486h-73z" />
    <glyph glyph-name="daggerdbl" unicode="&#x2021;" horiz-adv-x="445" 
d="M52 171v66h134v201h-134v68h134v200h72v-200h138v-68h-138v-201h138v-66h-138v-221h-72v221h-134z" />
    <glyph glyph-name="bullet" unicode="&#x2022;" horiz-adv-x="408" 
d="M211 157c-75 0 -134 59 -134 134s59 134 134 134c74 0 133 -59 133 -134s-59 -134 -133 -134z" />
    <glyph glyph-name="guilsinglleft" unicode="&#x2039;" horiz-adv-x="353" 
d="M213 77l-164 205l164 206h94l-164 -206l164 -205h-94z" />
    <glyph glyph-name="guilsinglright" unicode="&#x203a;" horiz-adv-x="356" 
d="M52 77l161 205l-163 206h93l164 -206l-164 -205h-91z" />
    <glyph glyph-name="fraction" unicode="&#x2044;" horiz-adv-x="178" 
d="M-66 -47h-72l363 761h72z" />
    <glyph glyph-name="Euro" unicode="&#x20ac;" horiz-adv-x="666" 
d="M49 447h58c36 144 154 268 346 268c54 0 105 -12 151 -34l-33 -69c-36 18 -77 27 -118 27c-139 -2 -227 -88 -260 -192h291l-14 -69h-290c-1 -9 -1 -19 -1 -28v-14h277l-13 -67h-254c29 -112 119 -207 264 -207c46 0 93 13 134 35v0l37 -67c-51 -28 -109 -44 -171 -44
c-199 0 -318 132 -349 283h-73l15 67h50c-1 4 -1 9 -1 14c0 9 1 19 1 28h-61z" />
    <glyph glyph-name="trademark" unicode="&#x2122;" horiz-adv-x="884" 
d="M320 637h-111v-317h-68v317h-111v61h290v-61zM573 368l-120 222l2 -270h-69v377h75l139 -246l142 246h72v-377h-69l3 270l-120 -222h-55z" />
    <glyph glyph-name="minus" unicode="&#x2212;" horiz-adv-x="609" 
d="M57 246v69h513v-69h-513z" />
    <glyph glyph-name="infinity" unicode="&#x221e;" horiz-adv-x="464" 
d="M238 184c-91 0 -165 74 -165 165c0 92 74 164 165 164c92 0 165 -72 165 -164c0 -91 -73 -165 -165 -165z" />
    <glyph glyph-name="approxequal" unicode="&#x2248;" horiz-adv-x="609" 
d="M103 331l-41 49c34 36 90 73 151 73c94 0 127 -70 198 -70c41 0 84 17 111 46l40 -50c-34 -35 -90 -68 -151 -68c-94 0 -127 69 -198 69c-42 0 -83 -21 -110 -49zM103 155l-41 49c34 36 90 73 151 73c94 0 127 -70 198 -70c41 0 84 17 111 46l40 -50
c-34 -35 -90 -68 -151 -68c-94 0 -127 69 -198 69c-42 0 -83 -21 -110 -49z" />
    <glyph glyph-name="notequal" unicode="&#x2260;" horiz-adv-x="616" 
d="M136 69l55 82h-103v67h149l98 132h-247v68h291l78 110l43 -30l-58 -80h95v-68h-138l-98 -132h236v-67h-279l-79 -112z" />
    <glyph glyph-name="lessequal" unicode="&#x2264;" horiz-adv-x="502" 
d="M42 62h414v-68h-414v68zM442 611v-90l-306 -153l306 -152v-87l-401 209v60z" />
    <glyph glyph-name="greaterequal" unicode="&#x2265;" horiz-adv-x="556" 
d="M74 70h414v-73h-414v73zM85 521v90l401 -213v-60l-401 -209v87l306 152z" />
    <glyph glyph-name="fontfabric" horiz-adv-x="1740" 
d="M1326 699h350v-176h-14c-27 98 -74 163 -180 163h-59v-674h110v-13h-207v700zM730 12h234v-13h-234v13zM1171 699h123v-13v0v-687h-32l-428 687h-104v13h215l330 -537h6v524h-110v13zM776 491c19 -46 26 -90 26 -141c0 -47 -7 -85 -26 -131c-19 -38 -38 -77 -71 -110
c-74 -74 -139 -110 -246 -110h-6v13h6c76 0 141 22 182 84c19 26 32 66 38 104c6 46 13 91 13 150c0 75 -9 170 -45 232c-31 75 -102 104 -188 104h-6v13h6c135 0 262 -84 317 -208zM233 439c6 20 15 36 25 72h7v-305h-7c-9 73 -44 152 -129 150h-65v13h57
c59 -1 92 16 112 70zM64 699h336v-169h-6c-23 87 -67 156 -182 156h-148v13z" />
    <glyph glyph-name="zero.tnum" horiz-adv-x="612" 
d="M149 198c0 -86 78 -135 157 -135c78 0 156 49 156 135v307c0 87 -82 135 -160 134s-153 -49 -153 -134v-307zM67 505c0 138 116 208 234 209c121 2 243 -67 243 -209v-307c0 -63 -23 -111 -59 -145c-45 -43 -112 -65 -179 -65c-67 -1 -135 21 -181 65
c-35 34 -58 82 -58 145v307z" />
    <glyph glyph-name="one.tnum" horiz-adv-x="332" 
d="M150 623h-92v78h174v-701h-82v623z" />
    <glyph glyph-name="two.tnum" horiz-adv-x="566" 
d="M285 633c-73 3 -130 -33 -157 -97l-68 32c39 99 126 149 227 146c132 -5 213 -96 215 -199c0 -59 -27 -117 -76 -171l-246 -269h327v-75h-429l-24 60l316 342c35 37 56 74 55 112c0 63 -51 116 -140 119z" />
    <glyph glyph-name="three.tnum" horiz-adv-x="560" 
d="M44 133l62 34c32 -65 100 -103 165 -103c69 0 143 48 143 139c0 83 -61 139 -132 139h-56v73h56c63 0 114 30 114 104c0 78 -60 117 -124 117c-55 0 -117 -30 -144 -86l-59 35c36 83 119 127 198 127c101 0 211 -63 211 -193c0 -58 -30 -114 -78 -136
c65 -35 96 -99 96 -181c-1 -138 -115 -214 -228 -214c-89 0 -183 49 -224 145z" />
    <glyph glyph-name="four.tnum" horiz-adv-x="547" 
d="M444 701v-492h56v-76h-56v-133h-82v133h-281l-54 73l331 495h86zM362 209l2 375l-240 -374z" />
    <glyph glyph-name="five.tnum" horiz-adv-x="581" 
d="M50 133l67 34c30 -63 104 -100 168 -100c108 0 163 83 162 164c0 79 -52 156 -159 156c-61 0 -111 -7 -166 -39l-44 -2l54 354h350v-78h-283l-29 -181c39 15 79 22 120 22c160 -2 238 -117 238 -233c0 -119 -83 -240 -245 -240c-94 0 -189 48 -233 143z" />
    <glyph glyph-name="six.tnum" horiz-adv-x="602" 
d="M306 -10c-160 0 -243 121 -243 240c0 49 14 94 40 135l208 335h95l-149 -241c15 2 32 4 49 4c168 0 243 -117 243 -233c0 -119 -82 -240 -243 -240zM306 387c-90 0 -161 -64 -162 -156c0 -81 55 -164 162 -164c108 0 163 83 162 164c0 79 -55 156 -162 156z" />
    <glyph glyph-name="seven.tnum" horiz-adv-x="500" 
d="M377 622h-337v80h413l27 -56l-337 -646h-93z" />
    <glyph glyph-name="eight.tnum" horiz-adv-x="587" 
d="M291 -14c-114 0 -228 76 -229 216c-1 79 37 139 97 177c-48 34 -69 88 -69 145c0 123 100 189 201 189c102 0 201 -66 201 -189c0 -54 -20 -111 -68 -145c60 -38 98 -98 97 -177c-1 -140 -115 -216 -230 -216zM291 637c-160 0 -156 -224 0 -224c157 0 161 224 0 224z
M291 343c-194 0 -196 -283 0 -281c199 2 198 281 0 281z" />
    <glyph glyph-name="nine.tnum" horiz-adv-x="605" 
d="M299 709c160 0 243 -121 243 -240c0 -49 -14 -94 -40 -135l-208 -335h-95l149 241c-15 -2 -32 -4 -49 -4c-168 0 -243 117 -243 233c0 119 82 240 243 240zM299 312c90 0 161 64 162 156c0 81 -55 164 -162 164c-108 0 -163 -83 -162 -164c0 -79 55 -156 162 -156z" />
    <glyph glyph-name="zero.p_osf" horiz-adv-x="611" 
d="M145 198c0 -86 81 -139 160 -139c78 0 159 53 159 139v150c0 87 -85 140 -163 139s-156 -54 -156 -139v-150zM66 348c0 138 116 208 234 209c121 2 243 -67 243 -209v-150c0 -63 -23 -111 -59 -145c-45 -43 -112 -65 -179 -65c-67 -1 -135 21 -181 65
c-35 34 -58 82 -58 145v150z" />
    <glyph glyph-name="one.p_osf" horiz-adv-x="308" 
d="M127 0v449h-79v75h159h1v-524h-81z" />
    <glyph glyph-name="two.p_osf" horiz-adv-x="524" 
d="M393 255l-213 -184h280v-71h-371l-27 58l275 252c24 24 52 63 41 99c-12 43 -70 68 -109 69c-51 2 -108 -26 -131 -73l-68 30c31 77 118 121 200 115c79 -2 161 -40 184 -121c19 -64 -13 -129 -61 -174z" />
    <glyph glyph-name="three.p_osf" horiz-adv-x="528" 
d="M24 4l62 33c32 -62 99 -98 164 -98c69 0 142 46 142 132c0 78 -60 131 -131 131h-56v70h56c63 0 113 28 113 98c0 74 -59 111 -123 111c-55 0 -116 -28 -143 -81l-59 33c36 78 118 120 197 120c101 0 210 -60 210 -183c0 -55 -30 -108 -78 -129c65 -33 96 -94 96 -171
c-1 -131 -114 -203 -227 -203c-89 0 -182 46 -223 137z" />
    <glyph glyph-name="four.p_osf" horiz-adv-x="556" 
d="M451 535v-430h56v-72h-56v-130h-82v130h-281l-54 73l331 429h86zM371 105l2 319l-247 -319h245z" />
    <glyph glyph-name="five.p_osf" horiz-adv-x="540" 
d="M36 12l64 31c28 -58 99 -89 160 -89c102 0 155 74 154 149c0 73 -50 146 -151 146c-59 0 -106 -9 -158 -38l-42 -2l51 320h333v-72h-269l-28 -160c37 14 75 23 114 23c153 -2 227 -111 227 -218c0 -110 -79 -222 -233 -222c-90 0 -180 44 -222 132z" />
    <glyph glyph-name="six.p_osf" horiz-adv-x="594" 
d="M308 -13c-160 0 -243 121 -243 240c0 49 14 94 40 135l208 338h91l-157 -261c179 72 304 -96 304 -212c0 -119 -82 -240 -243 -240zM308 384c-90 0 -165 -64 -166 -156c0 -81 59 -169 166 -169c108 0 166 88 165 169c0 79 -58 156 -165 156z" />
    <glyph glyph-name="seven.p_osf" horiz-adv-x="517" 
d="M376 466h-324v77h395l26 -54l-323 -618h-84z" />
    <glyph glyph-name="eight.p_osf" horiz-adv-x="564" 
d="M282 -14c-109 0 -217 73 -218 206c-1 75 35 132 92 168c-46 33 -66 84 -66 139c0 117 96 179 192 179c97 0 192 -62 192 -179c0 -52 -19 -106 -65 -139c57 -36 93 -93 92 -168c-1 -133 -109 -206 -219 -206zM282 606c-152 0 -148 -213 0 -213c149 0 153 213 0 213z
M282 326c-185 0 -187 -269 0 -267c190 2 189 267 0 267z" />
    <glyph glyph-name="nine.p_osf" horiz-adv-x="570" 
d="M283 564c160 0 243 -121 243 -240c0 -49 -14 -94 -40 -135l-208 -338h-91l157 261c-179 -72 -304 96 -304 212c0 119 82 240 243 240zM283 167c90 0 165 64 166 156c0 81 -59 169 -166 169c-108 0 -166 -88 -165 -169c0 -79 58 -156 165 -156z" />
    <glyph glyph-name="zero.t_osf" horiz-adv-x="611" 
d="M145 198c0 -86 81 -139 160 -139c78 0 159 53 159 139v150c0 87 -85 140 -163 139s-156 -54 -156 -139v-150zM66 348c0 138 116 208 234 209c121 2 243 -67 243 -209v-150c0 -63 -23 -111 -59 -145c-45 -43 -112 -65 -179 -65c-67 -1 -135 21 -181 65
c-35 34 -58 82 -58 145v150z" />
    <glyph glyph-name="one.t_osf" horiz-adv-x="308" 
d="M127 0v449h-79v75h159h1v-524h-81z" />
    <glyph glyph-name="two.t_osf" horiz-adv-x="524" 
d="M393 255l-213 -184h280v-71h-371l-27 58l275 252c24 24 52 63 41 99c-12 43 -70 68 -109 69c-51 2 -108 -26 -131 -73l-68 30c31 77 118 121 200 115c79 -2 161 -40 184 -121c19 -64 -13 -129 -61 -174z" />
    <glyph glyph-name="three.t_osf" horiz-adv-x="528" 
d="M24 4l62 33c32 -62 99 -98 164 -98c69 0 142 46 142 132c0 78 -60 131 -131 131h-56v70h56c63 0 113 28 113 98c0 74 -59 111 -123 111c-55 0 -116 -28 -143 -81l-59 33c36 78 118 120 197 120c101 0 210 -60 210 -183c0 -55 -30 -108 -78 -129c65 -33 96 -94 96 -171
c-1 -131 -114 -203 -227 -203c-89 0 -182 46 -223 137z" />
    <glyph glyph-name="four.t_osf" horiz-adv-x="556" 
d="M451 535v-430h56v-72h-56v-130h-82v130h-281l-54 73l331 429h86zM371 105l2 319l-247 -319h245z" />
    <glyph glyph-name="five.t_osf" horiz-adv-x="541" 
d="M36 12l64 31c28 -58 99 -89 160 -89c102 0 155 74 154 149c0 73 -50 146 -151 146c-59 0 -106 -9 -158 -38l-42 -2l51 320h333v-72h-269l-28 -160c37 14 75 23 114 23c153 -2 227 -111 227 -218c0 -110 -79 -222 -233 -222c-90 0 -180 44 -222 132z" />
    <glyph glyph-name="six.t_osf" horiz-adv-x="594" 
d="M308 -13c-160 0 -243 121 -243 240c0 49 14 94 40 135l208 338h91l-157 -261c179 72 304 -96 304 -212c0 -119 -82 -240 -243 -240zM308 384c-90 0 -165 -64 -166 -156c0 -81 59 -169 166 -169c108 0 166 88 165 169c0 79 -58 156 -165 156z" />
    <glyph glyph-name="seven.t_osf" horiz-adv-x="517" 
d="M376 466h-324v77h395l26 -54l-323 -618h-84z" />
    <glyph glyph-name="eight.t_osf" horiz-adv-x="564" 
d="M282 -14c-109 0 -217 73 -218 206c-1 75 35 132 92 168c-46 33 -66 84 -66 139c0 117 96 179 192 179c97 0 192 -62 192 -179c0 -52 -19 -106 -65 -139c57 -36 93 -93 92 -168c-1 -133 -109 -206 -219 -206zM282 606c-152 0 -148 -213 0 -213c149 0 153 213 0 213z
M282 326c-185 0 -187 -269 0 -267c190 2 189 267 0 267z" />
    <glyph glyph-name="nine.t_osf" horiz-adv-x="570" 
d="M283 564c160 0 243 -121 243 -240c0 -49 -14 -94 -40 -135l-208 -338h-91l157 261c-179 -72 -304 96 -304 212c0 119 82 240 243 240zM283 167c90 0 165 64 166 156c0 81 -59 169 -166 169c-108 0 -166 -88 -165 -169c0 -79 58 -156 165 -156z" />
    <glyph glyph-name="dollar.osf" horiz-adv-x="562" 
d="M150 431c-5 -75 81 -89 138 -102c105 -23 216 -64 209 -193c-5 -95 -93 -145 -185 -155v-76h-72v76c-78 10 -154 51 -187 124l64 29c26 -56 88 -88 158 -88c82 -1 138 30 143 94c7 87 -85 107 -151 122c-93 22 -200 57 -196 173c3 93 81 147 169 158v76h72v-75
c74 -10 143 -49 171 -115l-62 -26c-26 52 -86 75 -142 76c-63 0 -124 -27 -129 -98z" />
    <glyph glyph-name="cent.osf" horiz-adv-x="568" 
d="M290 1v85c-154 13 -231 136 -231 261c1 124 80 249 231 263v90h61v-90c56 -6 103 -28 144 -68l-43 -53c-37 35 -85 52 -135 52c-93 1 -179 -77 -180 -196c0 -93 60 -190 181 -190c51 0 101 22 138 56l44 -53c-40 -39 -91 -64 -149 -71v-86h-61z" />
    <glyph glyph-name="sterling.osf" horiz-adv-x="590" 
d="M543 428l-76 -15c-30 159 -268 158 -268 -14v-105h220v-62h-220v-160h349v-72h-487v72h57v160h-55v62h55v105c0 265 373 282 425 29z" />
    <glyph glyph-name="yen.osf" horiz-adv-x="587" 
d="M562 580l-163 -256h85v-60h-119l-35 -63v2h154v-60h-154v-143h-82v143h-153v60h153v-2l-35 63h-118v60h84l-160 256h95l176 -306l177 306h95z" />
    <glyph glyph-name="florin.osf" horiz-adv-x="547" 
d="M498 600l-12 -72c-99 9 -122 -74 -136 -152h108l-13 -76h-108l-68 -349c-19 -97 -69 -167 -201 -167c-17 0 -34 1 -50 6l11 65c106 -16 140 25 157 110l66 335h-95l14 76h96l6 32c19 102 88 194 208 194c6 0 12 -1 17 -2z" />
    <glyph glyph-name="Euro.osf" horiz-adv-x="643" 
d="M49 401h58c36 144 154 243 346 243c54 0 105 -12 151 -34l-33 -69c-36 18 -77 27 -118 27c-139 -2 -227 -63 -260 -167h291l-14 -69h-290c-2 -10 -1 -21 -1 -31h277l-13 -67h-254c29 -112 119 -172 264 -172c46 0 93 13 134 35v0l37 -67c-51 -28 -109 -44 -171 -44
c-199 0 -318 97 -349 248h-73l15 67h50c-2 10 0 21 0 31h-61z" />
    <glyph glyph-name="zero.numerator" horiz-adv-x="436" 
d="M104 422c0 -148 228 -148 228 0v122c0 148 -228 150 -228 0v-122zM37 544c0 227 362 227 362 0v-122c0 -164 -207 -222 -314 -118c-29 28 -48 67 -48 118v122z" />
    <glyph glyph-name="one.numerator" horiz-adv-x="298" 
d="M115 275v367h-64v65h9h120h9v-432h-74z" />
    <glyph glyph-name="two.numerator" horiz-adv-x="414" 
d="M306 470l-166 -147h221v-64h-307l-22 48l224 211c20 20 41 49 32 79c-10 36 -53 48 -85 49c-42 2 -82 -14 -101 -53l-63 26c10 23 25 43 45 59c16 13 35 22 55 28c21 6 43 9 65 8c65 -2 133 -33 152 -100c16 -53 -11 -107 -50 -144z" />
    <glyph glyph-name="three.numerator" horiz-adv-x="404" 
d="M296 505c46 -24 67 -63 67 -111c-1 -90 -84 -139 -166 -139c-66 0 -133 32 -163 94l59 28c21 -37 64 -58 106 -58c44 0 90 27 90 76c0 45 -39 76 -82 76h-45v60h45c36 0 69 16 69 57c0 43 -38 63 -77 63c-34 0 -74 -17 -91 -49l-57 30c27 54 87 83 145 83
c76 0 154 -43 154 -127c0 -35 -22 -69 -54 -83z" />
    <glyph glyph-name="four.numerator" horiz-adv-x="402" 
d="M323 708v-302h39v-61h-39v-80h-73v80h-189l-44 53l234 310h72zM98 408l152 -2l1 203z" />
    <glyph glyph-name="five.numerator" horiz-adv-x="438" 
d="M359 637h-202l-16 -102c69 20 143 26 201 -25c32 -30 49 -68 49 -109c0 -40 -17 -79 -45 -107c-36 -35 -84 -49 -133 -49c-67 0 -137 31 -169 92l-3 7l60 27l3 -6c19 -38 69 -59 110 -59c93 -14 144 101 81 159c-31 27 -82 28 -120 21c-25 -4 -49 -12 -71 -23l-1 -1
l-41 -2l40 240h257v-63z" />
    <glyph glyph-name="six.numerator" horiz-adv-x="430" 
d="M298 700l-110 -160c98 32 201 -30 201 -135c0 -39 -16 -78 -44 -106c-34 -34 -81 -48 -128 -48c-48 0 -94 14 -128 48c-28 28 -44 67 -44 106c0 32 10 61 28 87l144 208h81zM217 494c-52 0 -103 -33 -103 -88c0 -58 48 -99 103 -99c53 0 103 44 103 99
c-1 57 -51 88 -103 88z" />
    <glyph glyph-name="seven.numerator" horiz-adv-x="370" 
d="M52 257l199 380h-199v64h263l23 -41l-210 -403h-76z" />
    <glyph glyph-name="eight.numerator" horiz-adv-x="408" 
d="M101 499c-28 22 -40 52 -40 89c0 81 67 123 141 123c75 0 142 -42 142 -123c0 -37 -12 -67 -40 -89c37 -25 59 -63 59 -110c-1 -88 -79 -139 -161 -139c-81 0 -159 51 -160 139c-1 47 22 85 59 110zM202 650c-40 0 -72 -19 -72 -62c0 -47 30 -62 72 -62s73 15 73 62
c0 43 -32 62 -73 62zM202 471c-50 0 -92 -27 -92 -81c0 -50 46 -79 92 -79c47 0 92 29 92 79c0 54 -42 81 -92 81z" />
    <glyph glyph-name="nine.numerator" horiz-adv-x="426" 
d="M136 260l110 160c-98 -32 -201 30 -201 135c0 39 16 78 44 106c34 34 81 48 128 48c48 0 94 -14 128 -48c28 -28 44 -67 44 -106c0 -32 -10 -61 -28 -87l-144 -208h-81zM217 466c52 0 103 33 103 88c0 58 -48 99 -103 99c-53 0 -103 -44 -103 -99c1 -57 51 -88 103 -88z
" />
    <glyph glyph-name="zerosuperior" unicode="&#x2070;" horiz-adv-x="438" 
d="M104 579c0 -149 230 -149 230 0v122c0 148 -230 150 -230 0v-122zM37 701c0 227 364 227 364 0v-122c0 -51 -19 -90 -48 -118c-74 -70 -194 -72 -268 0c-29 28 -48 67 -48 118v122z" />
    <glyph glyph-name="foursuperior" unicode="&#x2074;" horiz-adv-x="402" 
d="M323 860v-302h39v-61h-39v-80h-73v80h-189l-44 53l234 310h72zM101 559l149 -1l1 203z" />
    <glyph glyph-name="fivesuperior" unicode="&#x2075;" horiz-adv-x="438" 
d="M359 799h-202l-16 -102c69 20 143 26 201 -25c32 -30 49 -68 49 -109c0 -40 -17 -79 -45 -107c-36 -35 -84 -49 -133 -49c-67 0 -137 31 -169 92l-3 7l60 27l3 -6c19 -38 69 -59 110 -59c93 -14 144 101 81 159c-31 27 -82 28 -120 21c-25 -4 -49 -12 -71 -23l-1 -1
l-41 -2l40 240h257v-63z" />
    <glyph glyph-name="sixsuperior" unicode="&#x2076;" horiz-adv-x="430" 
d="M298 866l-110 -160c98 32 201 -30 201 -135c0 -39 -16 -78 -44 -106c-34 -34 -81 -48 -128 -48c-48 0 -94 14 -128 48c-28 28 -44 67 -44 106c0 32 10 61 28 87l144 208h81zM217 660c-52 0 -103 -33 -103 -88c0 -58 48 -99 103 -99c53 0 103 44 103 99
c-1 57 -51 88 -103 88z" />
    <glyph glyph-name="sevensuperior" unicode="&#x2077;" horiz-adv-x="362" 
d="M52 416l199 380h-199v64h263l23 -41l-210 -403h-76z" />
    <glyph glyph-name="eightsuperior" unicode="&#x2078;" horiz-adv-x="408" 
d="M101 654c-28 22 -40 52 -40 89c0 81 67 123 141 123c75 0 142 -42 142 -123c0 -37 -12 -67 -40 -89c37 -25 59 -63 59 -110c-1 -88 -79 -139 -161 -139c-81 0 -159 51 -160 139c-1 47 22 85 59 110zM202 805c-40 0 -72 -19 -72 -62c0 -47 30 -62 72 -62s73 15 73 62
c0 43 -32 62 -73 62zM202 626c-50 0 -92 -27 -92 -81c0 -50 46 -79 92 -79c47 0 92 29 92 79c0 54 -42 81 -92 81z" />
    <glyph glyph-name="ninesuperior" unicode="&#x2079;" horiz-adv-x="426" 
d="M136 419l110 160c-98 -32 -201 30 -201 135c0 39 16 78 44 106c34 34 81 48 128 48c48 0 94 -14 128 -48c28 -28 44 -67 44 -106c0 -32 -10 -61 -28 -87l-144 -208h-81zM217 625c52 0 103 33 103 88c0 58 -48 99 -103 99c-53 0 -103 -44 -103 -99c1 -57 51 -88 103 -88z
" />
    <glyph glyph-name="zeroinferior" unicode="&#x2080;" horiz-adv-x="432" 
d="M104 1c0 -149 230 -149 230 0v122c0 148 -230 150 -230 0v-122zM37 123c0 227 364 227 364 0v-122c0 -51 -19 -90 -48 -118c-74 -70 -194 -72 -268 0c-29 28 -48 67 -48 118v122z" />
    <glyph glyph-name="oneinferior" unicode="&#x2081;" horiz-adv-x="289" 
d="M130 -157v367h-64v65h9h120h9v-432h-74z" />
    <glyph glyph-name="twoinferior" unicode="&#x2082;" horiz-adv-x="415" 
d="M312 51l-166 -147h221v-64h-307l-22 48l224 211c20 20 41 49 32 79c-10 36 -53 48 -85 49c-42 2 -82 -14 -101 -53l-63 26c10 23 25 43 45 59c16 13 35 22 55 28c21 6 43 9 65 8c65 -2 133 -33 152 -100c16 -53 -11 -107 -50 -144z" />
    <glyph glyph-name="threeinferior" unicode="&#x2083;" horiz-adv-x="404" 
d="M296 78c46 -24 67 -63 67 -111c-1 -90 -84 -139 -166 -139c-66 0 -133 32 -163 94l59 28c21 -37 64 -58 106 -58c44 0 90 27 90 76c0 45 -39 76 -82 76h-45v60h45c36 0 69 16 69 57c0 43 -38 63 -77 63c-34 0 -74 -17 -91 -49l-57 30c27 54 87 83 145 83
c76 0 154 -43 154 -127c0 -35 -22 -69 -54 -83z" />
    <glyph glyph-name="fourinferior" unicode="&#x2084;" horiz-adv-x="389" 
d="M323 286v-302h39v-61h-39v-80h-73v80h-189l-44 53l234 310h72zM101 -15l149 -1l1 203z" />
    <glyph glyph-name="fiveinferior" unicode="&#x2085;" horiz-adv-x="428" 
d="M359 222h-202l-16 -102c69 20 143 26 201 -25c32 -30 49 -68 49 -109c0 -40 -17 -79 -45 -107c-36 -35 -84 -49 -133 -49c-67 0 -137 31 -169 92l-3 7l60 27l3 -6c19 -38 69 -59 110 -59c93 -14 144 101 81 159c-31 27 -82 28 -120 21c-25 -4 -49 -12 -71 -23l-1 -1
l-41 -2l40 240h257v-63z" />
    <glyph glyph-name="sixinferior" unicode="&#x2086;" horiz-adv-x="428" 
d="M298 283l-110 -160c98 32 201 -30 201 -135c0 -39 -16 -78 -44 -106c-34 -34 -81 -48 -128 -48c-48 0 -94 14 -128 48c-28 28 -44 67 -44 106c0 32 10 61 28 87l144 208h81zM217 77c-52 0 -103 -33 -103 -88c0 -58 48 -99 103 -99c53 0 103 44 103 99
c-1 57 -51 88 -103 88z" />
    <glyph glyph-name="seveninferior" unicode="&#x2087;" horiz-adv-x="364" 
d="M52 -168l199 380h-208v64h272l23 -41l-210 -403h-76z" />
    <glyph glyph-name="eightinferior" unicode="&#x2088;" horiz-adv-x="399" 
d="M101 79c-28 22 -40 52 -40 89c0 81 67 123 141 123c75 0 142 -42 142 -123c0 -37 -12 -67 -40 -89c37 -25 59 -63 59 -110c-1 -88 -79 -139 -161 -139c-81 0 -159 51 -160 139c-1 47 22 85 59 110zM202 230c-40 0 -72 -19 -72 -62c0 -47 30 -62 72 -62s73 15 73 62
c0 43 -32 62 -73 62zM202 51c-50 0 -92 -27 -92 -81c0 -50 46 -79 92 -79c47 0 92 29 92 79c0 54 -42 81 -92 81z" />
    <glyph glyph-name="nineinferior" unicode="&#x2089;" horiz-adv-x="421" 
d="M136 -158l110 160c-98 -32 -201 30 -201 135c0 39 16 78 44 106c34 34 81 48 128 48c48 0 94 -14 128 -48c28 -28 44 -67 44 -106c0 -32 -10 -61 -28 -87l-144 -208h-81zM217 48c52 0 103 33 103 88c0 58 -48 99 -103 99c-53 0 -103 -44 -103 -99c1 -57 51 -88 103 -88z
" />
    <glyph glyph-name="zero.denominator" horiz-adv-x="440" 
d="M110 158c0 -149 226 -149 226 0v122c0 148 -226 150 -226 0v-122zM43 280c0 227 360 227 360 0v-122c0 -225 -360 -223 -360 0v122z" />
    <glyph glyph-name="one.denominator" horiz-adv-x="298" 
d="M115 -1v367h-64v65h9h120h9v-432h-74z" />
    <glyph glyph-name="two.denominator" horiz-adv-x="415" 
d="M306 212l-166 -147h221v-64h-307l-22 48l224 211c20 20 41 49 32 79c-10 36 -53 48 -85 49c-42 2 -82 -14 -101 -53l-63 26c10 23 25 43 45 59c16 13 35 22 55 28c21 6 43 9 65 8c65 -2 133 -33 152 -100c16 -53 -11 -107 -50 -144z" />
    <glyph glyph-name="three.denominator" horiz-adv-x="404" 
d="M296 239c46 -24 67 -63 67 -111c-1 -90 -84 -139 -166 -139c-66 0 -133 32 -163 94l59 28c21 -37 64 -58 106 -58c44 0 90 27 90 76c0 45 -39 76 -82 76h-45v60h45c36 0 69 16 69 57c0 43 -38 63 -77 63c-34 0 -74 -17 -91 -49l-57 30c27 54 87 83 145 83
c76 0 154 -43 154 -127c0 -35 -22 -69 -54 -83z" />
    <glyph glyph-name="four.denominator" horiz-adv-x="402" 
d="M323 443v-299h39v-64h-39v-80h-73v80h-189l-44 53l234 310h72zM105 145l145 -1l1 200z" />
    <glyph glyph-name="five.denominator" horiz-adv-x="438" 
d="M359 382h-202l-16 -102c69 20 143 26 201 -25c32 -30 49 -68 49 -109c0 -40 -17 -79 -45 -107c-36 -35 -84 -49 -133 -49c-67 0 -137 31 -169 92l-3 7l60 27l3 -6c19 -38 69 -59 110 -59c93 -14 144 101 81 159c-31 27 -82 28 -120 21c-25 -4 -49 -12 -71 -23l-1 -1
l-41 -2l40 240h257v-63z" />
    <glyph glyph-name="six.denominator" horiz-adv-x="429" 
d="M298 438l-110 -160c98 32 201 -30 201 -135c0 -39 -16 -78 -44 -106c-34 -34 -81 -48 -128 -48c-48 0 -94 14 -128 48c-28 28 -44 67 -44 106c0 32 10 61 28 87l144 208h81zM217 232c-52 0 -103 -33 -103 -88c0 -58 48 -99 103 -99c53 0 103 44 103 99
c-1 57 -51 88 -103 88z" />
    <glyph glyph-name="seven.denominator" horiz-adv-x="370" 
d="M52 0l199 380h-199v64h263l23 -41l-210 -403h-76z" />
    <glyph glyph-name="eight.denominator" horiz-adv-x="408" 
d="M101 242c-28 22 -40 52 -40 89c0 81 67 123 141 123c75 0 142 -42 142 -123c0 -37 -12 -67 -40 -89c37 -25 59 -63 59 -110c-1 -88 -79 -139 -161 -139c-81 0 -159 51 -160 139c-1 47 22 85 59 110zM202 393c-40 0 -72 -19 -72 -62c0 -47 30 -62 72 -62s73 15 73 62
c0 43 -32 62 -73 62zM202 214c-50 0 -92 -27 -92 -81c0 -50 46 -79 92 -79c47 0 92 29 92 79c0 54 -42 81 -92 81z" />
    <glyph glyph-name="nine.denominator" horiz-adv-x="424" 
d="M136 0l110 160c-98 -32 -201 30 -201 135c0 39 16 78 44 106c34 34 81 48 128 48c48 0 94 -14 128 -48c28 -28 44 -67 44 -106c0 -32 -10 -61 -28 -87l-144 -208h-81zM217 206c52 0 103 33 103 88c0 58 -48 99 -103 99c-53 0 -103 -44 -103 -99c1 -57 51 -88 103 -88z
" />
    <glyph glyph-name="thinspace" unicode="&#x2009;" horiz-adv-x="14" 
 />
    <glyph glyph-name="uni00A0" unicode="&#xa0;" horiz-adv-x="257" 
 />
    <glyph glyph-name="uni00AD" unicode="&#xad;" horiz-adv-x="441" 
d="M75 247v74h292v-74h-292z" />
    <glyph glyph-name="perthousand" unicode="&#x2030;" horiz-adv-x="1225" 
d="M395 542c0 -94 -78 -170 -172 -170s-172 76 -172 170c0 95 78 171 172 171s172 -76 172 -171zM790 158c0 -94 -78 -170 -172 -170c-95 0 -173 76 -173 170s78 170 173 170c94 0 172 -76 172 -170zM718 158c0 58 -44 107 -100 107c-57 0 -101 -49 -101 -107
s44 -105 101 -105c56 0 100 47 100 105zM599 742h95l-454 -779h-94zM1179 158c0 -94 -78 -170 -172 -170c-95 0 -173 76 -173 170s78 170 173 170c94 0 172 -76 172 -170zM1106 158c0 58 -44 107 -100 107c-57 0 -101 -49 -101 -107s44 -105 101 -105c56 0 100 47 100 105z
M322 541c0 58 -44 107 -100 107c-57 0 -101 -49 -101 -107s44 -105 101 -105c56 0 100 47 100 105z" />
    <glyph glyph-name="ellipsis" unicode="&#x2026;" horiz-adv-x="711" 
d="M181 -2h-100v109h100v-109zM395 -2h-100v109h100v-109zM616 -2h-100v109h100v-109z" />
    <glyph glyph-name="quotesinglbase" unicode="&#x201a;" horiz-adv-x="263" 
d="M27 -109l65 216h92l-82 -216h-75z" />
    <glyph glyph-name="quotedblbase" unicode="&#x201e;" horiz-adv-x="406" 
d="M27 -109l65 216h89l-82 -216h-72zM185 -109l65 216h88l-81 -216h-72z" />
    <glyph glyph-name="Scaron" unicode="&#x160;" horiz-adv-x="560" 
d="M143 526c-5 -88 82 -112 140 -127c108 -27 219 -71 212 -226c-6 -128 -120 -187 -227 -187c-90 0 -186 51 -223 150l65 35c26 -67 89 -111 160 -111c83 -1 140 45 145 118c7 101 -86 130 -153 148c-93 25 -203 66 -199 204c4 127 107 189 209 189c89 0 176 -47 209 -137
l-63 -31c-25 63 -87 94 -144 94c-64 1 -126 -36 -131 -119zM420 896l-88 -106h-101l-88 106h74l65 -66h2l62 66h74z" />
    <glyph glyph-name="Zcaron" unicode="&#x17d;" horiz-adv-x="557" 
d="M441 892l-88 -120h-101l-88 120h76l62 -78h2l62 78h75zM52 0v80l273 406l103 145h-364v74h445v-76l-262 -392l-116 -162h378v-75h-457z" />
    <glyph glyph-name="scaron" unicode="&#x161;" horiz-adv-x="439" 
d="M231 292c84 -17 165 -54 165 -152c0 -107 -103 -151 -183 -151c-68 0 -132 27 -171 83l48 49c31 -38 73 -62 123 -62c49 -1 107 24 107 82c-1 50 -64 71 -106 79c-83 14 -158 49 -159 145c0 97 87 152 178 152c51 0 109 -16 150 -58l-45 -51c-35 30 -67 37 -105 38
c-52 1 -103 -28 -102 -81c0 -51 60 -65 100 -73zM363 691l-88 -120h-101l-88 120h74l64 -81h2l63 81h74z" />
    <glyph glyph-name="zcaron" unicode="&#x17e;" horiz-adv-x="468" 
d="M391 726l-88 -120h-101l-88 120h74l64 -81h2l63 81h74zM46 0v73l277 366l-266 -1v70h365v-51l-294 -388h294v-69h-376z" />
    <glyph glyph-name="Ydieresis" unicode="&#x178;" horiz-adv-x="589" 
d="M574 705l-240 -426v-279h-81v279c-77 136 -162 291 -239 426h94l186 -339c61 112 125 227 185 339h95zM253 775h-90v98h90v-98zM426 775h-90v98h90v-98z" />
    <glyph glyph-name="brokenbar" unicode="&#xa6;" horiz-adv-x="283" 
d="M104 -159v410h77v-410h-77zM181 792v-407h-77v407h77z" />
    <glyph glyph-name="Agrave" unicode="&#xc0;" horiz-adv-x="632" 
d="M13 0l251 705h101l254 -705h-87l-81 224h-271l-79 -224h-88zM205 300h219l-109 318zM278 747l-84 115h93l65 -115h-74z" />
    <glyph glyph-name="Aacute" unicode="&#xc1;" horiz-adv-x="632" 
d="M13 0l251 705h101l254 -705h-87l-81 224h-271l-79 -224h-88zM205 300h219l-109 318zM436 866l-84 -115h-74l65 115h93z" />
    <glyph glyph-name="Acircumflex" unicode="&#xc2;" horiz-adv-x="632" 
d="M13 0l251 705h101l254 -705h-87l-81 224h-271l-79 -224h-88zM205 300h219l-109 318zM175 741l88 117h101l88 -117h-74l-64 81h-2l-63 -81h-74z" />
    <glyph glyph-name="Atilde" unicode="&#xc3;" horiz-adv-x="632" 
d="M13 0l251 705h101l254 -705h-87l-81 224h-271l-79 -224h-88zM205 300h219l-109 318zM429 854l45 -33c-31 -70 -103 -88 -166 -47c-42 27 -76 18 -104 -25l-48 31c40 75 112 93 180 46c40 -27 71 -8 93 28z" />
    <glyph glyph-name="Adieresis" unicode="&#xc4;" horiz-adv-x="632" 
d="M13 0l251 705h101l254 -705h-87l-81 224h-271l-79 -224h-88zM205 300h219l-109 318zM275 750h-84v89h84v-89zM438 750h-85v89h85v-89z" />
    <glyph glyph-name="Aring" unicode="&#xc5;" horiz-adv-x="632" 
d="M13 0l251 705h101l254 -705h-87l-81 224h-271l-79 -224h-88zM205 300h219l-109 318zM313 741c-45 0 -85 28 -85 74c0 47 40 75 85 75c44 0 85 -28 85 -75c0 -46 -41 -74 -85 -74zM313 782c19 0 33 14 33 33c0 21 -14 35 -33 35c-20 0 -33 -14 -33 -35
c0 -19 13 -33 33 -33z" />
    <glyph glyph-name="Ccedilla" unicode="&#xc7;" horiz-adv-x="729" 
d="M664 607l-53 -55c-52 54 -125 87 -201 85c-180 -3 -274 -145 -274 -289c0 -143 96 -284 274 -284c82 0 164 38 217 101l58 -48c-61 -73 -149 -120 -249 -128l-23 -42c34 -1 78 -36 76 -77c-3 -62 -53 -88 -98 -88c-27 0 -55 10 -85 25l15 44c25 -14 44 -19 64 -19
c57 -1 61 67 2 69c-8 0 -18 -1 -27 -6l-24 20l42 75c-212 15 -325 184 -325 358c0 182 124 365 357 365c100 0 189 -40 254 -106z" />
    <glyph glyph-name="Egrave" unicode="&#xc8;" horiz-adv-x="531" 
d="M476 704v-77h-292v-237h288v-77h-288l-1 -234h293v-78h-375v703h375zM285 773l-84 115h93l65 -115h-74z" />
    <glyph glyph-name="Eacute" unicode="&#xc9;" horiz-adv-x="531" 
d="M476 704v-77h-292v-237h288v-77h-288l-1 -234h293v-78h-375v703h375zM404 893l-84 -115h-74l65 115h93z" />
    <glyph glyph-name="Ecircumflex" unicode="&#xca;" horiz-adv-x="531" 
d="M476 704v-77h-292v-237h288v-77h-288l-1 -234h293v-78h-375v703h375zM154 750l88 117h101l88 -117h-74l-64 81h-2l-63 -81h-74z" />
    <glyph glyph-name="Edieresis" unicode="&#xcb;" horiz-adv-x="531" 
d="M467 701v-74h-292v-237h288v-75h-288l-1 -240h293v-74h-375v700h375zM253 769h-85v75h85v-75zM416 769h-85v75h85v-75z" />
    <glyph glyph-name="Igrave" unicode="&#xcc;" horiz-adv-x="284" 
d="M101 0v703h82v-703h-82zM103 750l-84 115h93l65 -115h-74z" />
    <glyph glyph-name="Iacute" unicode="&#xcd;" horiz-adv-x="284" 
d="M101 0v703h82v-703h-82zM260 866l-84 -115h-74l65 115h93z" />
    <glyph glyph-name="Icircumflex" unicode="&#xce;" horiz-adv-x="284" 
d="M101 0v703h82v-703h-82zM1 741l88 117h101l88 -117h-74l-64 81h-2l-63 -81h-74z" />
    <glyph glyph-name="Idieresis" unicode="&#xcf;" horiz-adv-x="284" 
d="M101 0v703h82v-703h-82zM101 750h-86v86h86v-86zM267 750h-86v86h86v-86z" />
    <glyph glyph-name="Eth" unicode="&#xd0;" horiz-adv-x="731" 
d="M46 311v76h61v318h216c229 2 348 -171 351 -346c4 -179 -114 -359 -350 -359h-217v311h-61zM323 76c184 -3 274 140 270 282c-3 137 -93 271 -268 271h-136v-242h132v-76h-132v-235h134z" />
    <glyph glyph-name="Ntilde" unicode="&#xd1;" horiz-adv-x="730" 
d="M101 704h88l360 -588v588h83v-704h-105l-344 564v-564h-82v704zM480 851l45 -33c-31 -70 -103 -88 -166 -47c-42 27 -76 18 -104 -25l-48 31c40 75 112 93 180 46c40 -27 71 -8 93 28z" />
    <glyph glyph-name="Ograve" unicode="&#xd2;" 
d="M410 714c197 0 357 -168 357 -365c0 -198 -160 -363 -357 -363s-357 165 -357 363c0 197 160 365 357 365zM136 349c0 -189 137 -287 274 -287s274 98 274 287c0 188 -138 290 -275 289s-273 -103 -273 -289zM395 776l-84 115h93l65 -115h-74z" />
    <glyph glyph-name="Oacute" unicode="&#xd3;" 
d="M410 714c197 0 357 -168 357 -365c0 -198 -160 -363 -357 -363s-357 165 -357 363c0 197 160 365 357 365zM136 349c0 -189 137 -287 274 -287s274 98 274 287c0 188 -138 290 -275 289s-273 -103 -273 -289zM522 910l-84 -115h-74l65 115h93z" />
    <glyph glyph-name="Ocircumflex" unicode="&#xd4;" 
d="M410 714c197 0 357 -168 357 -365c0 -198 -160 -363 -357 -363s-357 165 -357 363c0 197 160 365 357 365zM136 349c0 -189 137 -287 274 -287s274 98 274 287c0 188 -138 290 -275 289s-273 -103 -273 -289zM294 774l88 117h101l88 -117h-74l-64 81h-2l-63 -81h-74z" />
    <glyph glyph-name="Otilde" unicode="&#xd5;" 
d="M410 714c197 0 357 -168 357 -365c0 -198 -160 -363 -357 -363s-357 165 -357 363c0 197 160 365 357 365zM136 349c0 -189 137 -287 274 -287s274 98 274 287c0 188 -138 290 -275 289s-273 -103 -273 -289zM531 895l45 -33c-31 -70 -103 -88 -166 -47
c-42 27 -76 18 -104 -25l-48 31c40 75 112 93 180 46c40 -27 71 -8 93 28z" />
    <glyph glyph-name="Odieresis" unicode="&#xd6;" 
d="M410 714c197 0 357 -168 357 -365c0 -198 -160 -363 -357 -363s-357 165 -357 363c0 197 160 365 357 365zM136 349c0 -189 137 -287 274 -287s274 98 274 287c0 188 -138 290 -275 289s-273 -103 -273 -289zM367 790h-91v84h91v-84zM542 790h-91v84h91v-84z" />
    <glyph glyph-name="Oslash" unicode="&#xd8;" 
d="M410 714c57 0 111 -14 159 -39l46 76h77l-67 -112c86 -68 142 -174 142 -290c0 -198 -160 -363 -357 -363c-56 0 -108 13 -155 36l-43 -72h-78l64 107c-88 67 -145 173 -145 292c0 197 160 365 357 365zM136 349c0 -104 41 -180 101 -228l293 489c-38 19 -80 28 -121 28
c-137 -1 -273 -103 -273 -289zM684 349c0 100 -40 177 -98 225l-292 -488c37 -16 76 -24 116 -24c137 0 274 98 274 287z" />
    <glyph glyph-name="oslash" unicode="&#xf8;" horiz-adv-x="605" 
d="M560 253c0 -148 -105 -265 -258 -265c-42 0 -81 10 -115 25l-39 -63h-68l58 94c-58 48 -93 124 -93 209c0 148 105 264 257 264c42 0 81 -9 114 -25l41 66h67l-60 -96c60 -48 96 -123 96 -209zM482 253c0 66 -22 115 -56 147l-202 -327c24 -11 51 -16 78 -16
c92 0 180 64 180 196zM123 253c0 -65 21 -114 54 -146l201 324c-24 11 -50 16 -76 16c-91 0 -179 -62 -179 -194z" />
    <glyph glyph-name="Yacute" unicode="&#xdd;" horiz-adv-x="589" 
d="M574 705l-240 -426v-279h-81v279c-77 136 -162 291 -239 426h94l186 -339c61 112 125 227 185 339h95zM411 860l-84 -115h-74l65 115h93z" />
    <glyph glyph-name="ccedilla" unicode="&#xe7;" horiz-adv-x="526" 
d="M481 449l-43 -53c-37 35 -85 52 -135 52c-93 1 -179 -77 -180 -196c0 -93 60 -190 181 -190c51 0 101 22 138 56l44 -53c-45 -44 -106 -71 -173 -73l-17 -30c34 -1 78 -36 76 -77c-3 -62 -53 -88 -98 -88c-27 0 -55 10 -85 25l15 44c25 -14 44 -19 64 -19
c57 -1 61 67 2 69c-8 0 -18 -1 -27 -6l-24 20l37 66c-140 21 -211 139 -211 258c1 132 90 264 259 265c71 0 128 -22 177 -70z" />
    <glyph glyph-name="Amacron" unicode="&#x100;" horiz-adv-x="632" 
d="M13 0l251 705h101l254 -705h-87l-81 224h-271l-79 -224h-88zM205 300h219l-109 318zM188 762v67h252v-67h-252z" />
    <glyph glyph-name="amacron" unicode="&#x101;" horiz-adv-x="556" 
d="M410 239c-37 24 -85 33 -128 33c-214 -1 -220 -210 -10 -210c49 0 106 17 138 55v122zM485 0h-61l-11 45c-36 -35 -90 -51 -141 -52c-307 -3 -302 348 9 344c45 0 89 -14 129 -35v10c0 172 -191 166 -291 95l-40 46c140 117 406 88 406 -141v-312zM150 604v61h245v-61
h-245z" />
    <glyph glyph-name="Abreve" unicode="&#x102;" horiz-adv-x="632" 
d="M13 0l251 705h101l254 -705h-87l-81 224h-271l-79 -224h-88zM205 300h219l-109 318zM313 748c-69 0 -132 40 -132 117h64c0 -42 37 -59 68 -59c29 0 65 16 65 59h66c0 -77 -63 -117 -131 -117z" />
    <glyph glyph-name="abreve" unicode="&#x103;" horiz-adv-x="556" 
d="M410 239c-37 24 -85 33 -128 33c-214 -1 -220 -210 -10 -210c49 0 106 17 138 55v122zM485 0h-61l-11 45c-36 -35 -90 -51 -141 -52c-307 -3 -302 348 9 344c45 0 89 -14 129 -35v10c0 172 -191 166 -291 95l-40 46c140 117 406 88 406 -141v-312zM275 568
c-69 0 -132 40 -132 117h64c0 -42 37 -59 68 -59c29 0 65 16 65 59h66c0 -77 -63 -117 -131 -117z" />
    <glyph glyph-name="b" unicode="b" horiz-adv-x="574" 
d="M267 513c163 0 258 -108 258 -262c0 -137 -93 -260 -228 -257c-48 1 -97 4 -146 58l-14 -52h-56v700h76v-222c32 24 75 35 110 35zM290 61c104 10 161 86 161 193c0 128 -91 189 -187 187c-37 -1 -75 -11 -108 -31v-283c33 -44 77 -73 134 -66z" />
    <glyph glyph-name="afii10052" unicode="&#x403;" horiz-adv-x="517" 
d="M473 700v-71h-291v-629h-80v700h371zM402 862l-84 -115h-60l59 115h85z" />
    <glyph glyph-name="afii10100" unicode="&#x453;" horiz-adv-x="450" 
d="M86 0v507h334v-68h-256v-439h-78zM353 698l-84 -115h-60l59 115h85z" />
    <glyph glyph-name="afii10061" unicode="&#x40c;" horiz-adv-x="630" 
d="M101 701h83v-344l314 344h98l-281 -312l292 -389h-97l-250 335l-76 -76v-259h-83v701zM442 862l-84 -115h-60l59 115h85z" />
    <glyph glyph-name="afii10060" unicode="&#x40b;" horiz-adv-x="675" 
d="M613 0h-81v287c10 147 -162 205 -263 120v-407h-80v635h-175v65h430v-65h-174v-152c147 87 355 -10 343 -196v-287z" />
    <glyph glyph-name="afii10145" unicode="&#x40f;" horiz-adv-x="658" 
d="M290 -120v120h-189v700h80v-633h295v633h80v-700h-191v-120h-75z" />
    <glyph glyph-name="afii10109" unicode="&#x45c;" horiz-adv-x="518" 
d="M81 507h76v-238l238 239h93l-221 -222l231 -286h-91l-190 236l-60 -56v-180h-76v507zM376 698l-84 -115h-60l59 115h85z" />
    <glyph glyph-name="afii10108" unicode="&#x45b;" horiz-adv-x="597" 
d="M11 576v55h70v70h78v-70h124v-55h-124v-104c31 26 71 42 131 43c137 -3 242 -83 242 -231v-284h-78v284c-1 97 -71 154 -161 160c-43 2 -93 -8 -135 -38v-406h-77v576h-70z" />
    <glyph glyph-name="afii10193" unicode="&#x45f;" horiz-adv-x="574" 
d="M254 -103v103h-172v506h79v-440h253v440h78v-506h-165v-103h-73z" />
    <glyph glyph-name="afii10062" unicode="&#x40e;" horiz-adv-x="554" 
d="M96 700l190 -399l170 399h86l-268 -608c-39 -84 -69 -92 -184 -92l-1 67h39c41 0 58 15 77 54l40 93l-236 486h87zM290 743c-66 0 -126 39 -126 113h61c0 -40 36 -57 65 -57c28 0 63 16 63 57h64c0 -74 -61 -113 -127 -113z" />
    <glyph glyph-name="afii10110" unicode="&#x45e;" horiz-adv-x="502" 
d="M89 -190v65c61 -7 84 17 97 50l28 73l-207 509h84l164 -420l156 420h84l-235 -607c-30 -80 -98 -97 -171 -90zM252 582c-67 0 -129 38 -129 111h63c0 -39 36 -55 66 -55c29 0 64 15 64 55h64c0 -73 -61 -111 -128 -111z" />
    <glyph glyph-name="afii10057" unicode="&#x408;" horiz-adv-x="545" 
d="M34 166l76 16c31 -159 266 -159 266 14v426h-132v78h215v-504c0 -266 -373 -283 -425 -30z" />
    <glyph glyph-name="afii10050" unicode="&#x490;" horiz-adv-x="518" 
d="M473 801v-172h-291v-629h-80v700h303v101h68z" />
    <glyph glyph-name="afii10023" unicode="&#x401;" horiz-adv-x="532" 
d="M467 701v-74h-292v-237h288v-75h-288l-1 -240h293v-74h-375v700h375zM253 769h-85v75h85v-75zM416 769h-85v75h85v-75z" />
    <glyph glyph-name="afii10053" unicode="&#x404;" horiz-adv-x="716" 
d="M486 384v-66h-350c14 -139 119 -252 273 -252c76 0 157 40 214 109l56 -45c-71 -86 -168 -138 -270 -138c-220 0 -355 164 -355 355c0 188 127 360 355 360c106 0 185 -43 255 -118l-54 -47c-52 54 -111 92 -201 92c-149 0 -257 -101 -272 -250h349z" />
    <glyph glyph-name="afii10056" unicode="&#x407;" horiz-adv-x="283" 
d="M101 0v701h82v-701h-82zM102 749h-85v75h85v-75zM265 749h-85v75h85v-75z" />
    <glyph glyph-name="afii10055" unicode="&#x406;" horiz-adv-x="284" 
d="M101 0v701h82v-701h-82z" />
    <glyph glyph-name="afii10103" unicode="&#x456;" horiz-adv-x="241" 
d="M160 0h-79v512h79v-512zM161 592h-81v112h81v-112z" />
    <glyph glyph-name="afii10098" unicode="&#x491;" horiz-adv-x="450" 
d="M86 0v507h264v87h70v-155h-256v-439h-78z" />
    <glyph glyph-name="afii10071" unicode="&#x451;" horiz-adv-x="598" 
d="M304 60c56 0 112 24 146 70l63 -38c-51 -69 -125 -101 -209 -101c-172 0 -259 133 -258 264c0 131 89 264 257 265c161 1 269 -135 245 -297h-426c6 -86 70 -163 182 -163zM123 289h354c-8 93 -76 160 -173 162c-110 -1 -168 -79 -181 -162zM258 608h-89v81h89v-81z
M430 608h-89v81h89v-81z" />
    <glyph glyph-name="afii61352" unicode="&#x2116;" horiz-adv-x="1328" 
d="M101 704h88l360 -588v588h83v-704h-105l-344 564v-564h-82v704zM846 253c0 -132 88 -196 179 -196c92 0 180 64 180 196s-88 194 -180 194c-91 0 -179 -62 -179 -194zM1283 253c0 -148 -105 -265 -258 -265c-152 0 -257 117 -257 265s105 264 257 264
c153 0 258 -116 258 -264z" />
    <glyph glyph-name="afii10101" unicode="&#x454;" horiz-adv-x="507" 
d="M294 446c-85 0 -174 -68 -174 -161h261v-63h-262c4 -97 77 -157 175 -158c43 0 85 10 143 59l45 -52c-55 -45 -110 -78 -188 -78c-149 1 -250 112 -250 257c0 152 103 262 251 264c61 1 117 -18 178 -80l-42 -45c-46 41 -96 57 -137 57z" />
    <glyph glyph-name="afii10105" unicode="&#x458;" horiz-adv-x="241" 
d="M-22 -198v69c65 -4 103 25 103 82v559h79v-559c0 -111 -78 -161 -182 -151zM159 592h-81v113h81v-113z" />
    <glyph glyph-name="afii10054" unicode="&#x405;" horiz-adv-x="560" 
d="M143 526c-5 -88 82 -112 140 -127c108 -27 219 -71 212 -226c-6 -128 -120 -187 -227 -187c-90 0 -186 51 -223 150l65 35c26 -67 89 -111 160 -111c83 -1 140 45 145 118c7 101 -86 130 -153 148c-93 25 -203 66 -199 204c4 127 107 189 209 189c89 0 176 -47 209 -137
l-63 -31c-25 63 -87 94 -144 94c-64 1 -126 -36 -131 -119z" />
    <glyph glyph-name="afii10102" unicode="&#x455;" horiz-adv-x="439" 
d="M231 291c84 -17 165 -53 165 -151c0 -107 -103 -151 -183 -151c-68 0 -132 27 -171 83l48 49c31 -38 73 -62 123 -62c49 -1 107 24 107 82c-1 50 -64 71 -106 79c-83 14 -158 49 -159 145c0 97 87 152 178 152c51 0 109 -16 150 -58l-45 -51c-35 30 -67 37 -105 38
c-52 1 -103 -28 -102 -81c0 -51 60 -66 100 -74z" />
    <glyph glyph-name="afii10104" unicode="&#x457;" horiz-adv-x="241" 
d="M160 0h-79v512h79v-512zM85 623h-83v78h83v-78zM245 623h-83v78h83v-78z" />
    <glyph glyph-name="bgA" unicode="&#x410;" horiz-adv-x="632" 
d="M13 0l251 705h101l254 -705h-87l-81 224h-271l-79 -224h-88zM205 300h219l-109 318z" />
    <glyph glyph-name="afii10019" unicode="&#x412;" horiz-adv-x="609" 
d="M183 410h128c173 0 174 220 0 220h-128v-220zM311 333h-128v-257h128c214 0 212 257 0 257zM517 519c0 -53 -27 -105 -81 -142c80 -39 114 -108 113 -176c0 -140 -109 -201 -239 -201h-209v704h210c112 0 206 -70 206 -185z" />
    <glyph glyph-name="afii10022" unicode="&#x415;" horiz-adv-x="531" 
d="M472 702v-75h-292v-240h288v-74h-288l-1 -237h293v-75h-375v701h375z" />
    <glyph glyph-name="afii10026" unicode="&#x418;" horiz-adv-x="733" 
d="M88 0v700h82v-610l376 610h99v-700h-82v586l-359 -586h-116z" />
    <glyph glyph-name="afii10027" unicode="&#x419;" horiz-adv-x="733" 
d="M88 0v700h82v-610l376 610h99v-700h-82v586l-359 -586h-116zM369 743c-66 0 -126 39 -126 113h61c0 -40 36 -57 65 -57c28 0 63 16 63 57h64c0 -74 -61 -113 -127 -113z" />
    <glyph glyph-name="afii10028" unicode="&#x41a;" horiz-adv-x="630" 
d="M101 701h83v-344l314 344h98l-281 -312l292 -389h-97l-250 335l-76 -76v-259h-83v701z" />
    <glyph glyph-name="afii10030" unicode="&#x41c;" horiz-adv-x="851" 
d="M462 95h-71l-210 462v-557h-80v704h105l220 -502l219 502h106v-704h-83v552z" />
    <glyph glyph-name="afii10031" unicode="&#x41d;" horiz-adv-x="687" 
d="M505 0v312h-321v-312h-83v703h83v-317h321v317h83v-703h-83z" />
    <glyph glyph-name="afii10032" unicode="&#x41e;" 
d="M410 714c197 0 357 -168 357 -365c0 -198 -160 -363 -357 -363s-357 165 -357 363c0 197 160 365 357 365zM136 349c0 -189 137 -287 274 -287s274 98 274 287c0 188 -138 290 -275 289s-273 -103 -273 -289z" />
    <glyph glyph-name="afii10034" unicode="&#x420;" horiz-adv-x="583" 
d="M183 256v-256h-82v703h210c157 0 236 -114 236 -226c0 -113 -79 -221 -235 -221h-129zM311 332c103 0 154 75 154 145c0 71 -52 150 -154 150h-128v-295h128z" />
    <glyph glyph-name="afii10035" unicode="&#x421;" horiz-adv-x="729" 
d="M664 607l-53 -55c-52 54 -125 87 -201 85c-180 -3 -274 -145 -274 -289c0 -143 96 -284 274 -284c82 0 164 38 217 101l58 -48c-66 -79 -165 -129 -275 -129c-233 0 -357 178 -357 360s124 365 357 365c100 0 189 -40 254 -106z" />
    <glyph glyph-name="afii10036" unicode="&#x422;" horiz-adv-x="451" 
d="M10 702h431v-80h-174v-622h-83v622h-174v80z" />
    <glyph glyph-name="afii10039" unicode="&#x425;" horiz-adv-x="643" 
d="M615 700l-239 -350l240 -349h-95l-194 289l-195 -289h-95l241 349l-239 350h96l192 -286l193 286h95z" />
    <glyph glyph-name="bga" unicode="&#x430;" horiz-adv-x="568" 
d="M418 239c-37 24 -85 33 -128 33c-215 -1 -221 -214 -10 -214c49 0 106 25 138 63v118zM493 0h-61l-11 49c-36 -35 -90 -55 -141 -56c-307 -3 -302 348 9 344c45 0 89 -14 129 -35v10c0 172 -191 166 -291 95l-40 46c140 117 406 88 406 -141v-312z" />
    <glyph glyph-name="afii10070" unicode="&#x435;" horiz-adv-x="599" 
d="M304 60c56 0 112 24 146 70l63 -38c-51 -69 -125 -101 -209 -101c-172 0 -259 133 -258 264c0 131 89 264 257 265c161 1 269 -135 245 -297h-426c6 -86 70 -163 182 -163zM123 289h354c-8 93 -76 160 -173 162c-110 -1 -168 -79 -181 -162z" />
    <glyph glyph-name="afii10075" unicode="&#x439;" horiz-adv-x="592" 
d="M434 384l-281 -384h-69v507h78v-386l281 386h68v-507h-77v384zM306 580c-67 0 -129 38 -129 111h63c0 -39 36 -55 66 -55c29 0 64 15 64 55h64c0 -73 -61 -111 -128 -111z" />
    <glyph glyph-name="afii10076" unicode="&#x43a;" horiz-adv-x="518" 
d="M81 507h76v-238l238 239h93l-221 -222l231 -286h-91l-190 236l-60 -56v-180h-76v507z" />
    <glyph glyph-name="afii10080" unicode="&#x43e;" horiz-adv-x="615" 
d="M127 253c0 -132 88 -196 179 -196c92 0 180 64 180 196s-88 194 -180 194c-91 0 -179 -62 -179 -194zM564 253c0 -148 -105 -265 -258 -265c-152 0 -257 117 -257 265s105 264 257 264c153 0 258 -116 258 -264z" />
    <glyph glyph-name="afii10081" unicode="&#x43f;" horiz-adv-x="574" 
d="M82 507h410v-507h-79v441h-253v-441h-78v507z" />
    <glyph glyph-name="afii10082" unicode="&#x440;" horiz-adv-x="573" 
d="M272 513c161 5 253 -101 253 -262c0 -152 -112 -258 -241 -257c-43 0 -88 8 -128 35v-224h-75v702h61l12 -53c26 32 73 58 118 59zM290 61c104 10 161 86 161 193c0 130 -84 190 -173 188c-42 -1 -86 -20 -122 -55v-277c35 -39 77 -56 134 -49z" />
    <glyph glyph-name="afii10083" unicode="&#x441;" horiz-adv-x="526" 
d="M481 449l-43 -53c-37 35 -85 52 -135 52c-93 1 -179 -77 -180 -196c0 -93 60 -190 181 -190c51 0 101 22 138 56l44 -53c-47 -46 -111 -73 -182 -73c-172 0 -259 130 -259 262c1 132 90 264 259 265c71 0 128 -22 177 -70z" />
    <glyph glyph-name="afii10085" unicode="&#x443;" horiz-adv-x="504" 
d="M89 -190v65c61 -7 84 17 97 50l28 73l-207 509h84l164 -420l156 420h84l-235 -607c-30 -80 -98 -97 -171 -90z" />
    <glyph glyph-name="afii10087" unicode="&#x445;" horiz-adv-x="503" 
d="M255 308l137 202h91l-178 -256l180 -254h-91l-139 200l-142 -200h-88l179 254l-177 256h95z" />
    <glyph glyph-name="afii10018" unicode="&#x411;" horiz-adv-x="587" 
d="M182 632v-202h118c308 0 305 -429 0 -430h-200v700h380v-68h-298zM300 358h-118v-288h118c198 3 202 287 0 288z" />
    <glyph glyph-name="afii10020" unicode="&#x413;" horiz-adv-x="518" 
d="M473 700v-71h-291v-629h-80v700h371z" />
    <glyph glyph-name="afii10021" unicode="&#x414;" horiz-adv-x="691" 
d="M580 68h45v-217h-71v149h-455v-149h-69v207l48 10c57 45 67 144 73 218v-1l27 415h402v-632zM161 68h340v567h-251l-16 -280c-6 -125 -11 -230 -73 -287z" />
    <glyph glyph-name="afii10024" unicode="&#x416;" horiz-adv-x="851" 
d="M387 700h75v-313l271 313h96l-277 -314l286 -386h-93l-247 336l-36 -41v-295h-75v294l-36 42l-250 -336h-93l290 386l-278 314h97l270 -313v313z" />
    <glyph glyph-name="afii10025" unicode="&#x417;" horiz-adv-x="541" 
d="M26 125l59 39c48 -80 102 -101 170 -101c83 0 147 48 147 144c0 71 -63 131 -133 132h-104v63h104c57 0 117 52 117 117c-7 154 -219 158 -282 42l-54 35c52 79 120 113 203 113c104 0 212 -63 212 -190c0 -54 -30 -125 -100 -149c80 -22 117 -91 117 -164
c0 -135 -104 -217 -228 -216c-90 1 -177 38 -228 135z" />
    <glyph glyph-name="afii10029" unicode="&#x41b;" horiz-adv-x="634" 
d="M134 328l16 373h383v-701h-79v635h-231l-11 -305c-3 -124 -12 -256 -174 -343l-36 59c124 76 128 166 132 282z" />
    <glyph glyph-name="afii10033" unicode="&#x41f;" horiz-adv-x="658" 
d="M557 0h-80v633h-295v-633h-80v700h455v-700z" />
    <glyph glyph-name="afii10037" unicode="&#x423;" horiz-adv-x="553" 
d="M96 700l190 -399l170 399h86l-268 -608c-39 -84 -69 -92 -184 -92l-1 67h39c41 0 58 15 77 54l40 93l-236 486h87z" />
    <glyph glyph-name="afii10038" unicode="&#x424;" horiz-adv-x="818" 
d="M361 639v64h79v-64c409 -5 405 -569 0 -576v-66h-79v66c-413 6 -412 570 0 576zM440 572v-443c302 7 300 437 0 443zM132 352c0 -107 80 -223 229 -223v443c-151 0 -229 -113 -229 -220z" />
    <glyph glyph-name="afii10040" unicode="&#x426;" horiz-adv-x="667" 
d="M556 68h46v-216h-74v148h-427v700h80v-632h293v632h82v-632z" />
    <glyph glyph-name="afii10041" unicode="&#x427;" horiz-adv-x="624" 
d="M523 700v-700h-79v265c-38 -12 -76 -16 -116 -16c-135 0 -262 64 -262 218v233h80v-233c0 -101 91 -151 185 -151c39 0 79 8 113 19v365h79z" />
    <glyph glyph-name="afii10042" unicode="&#x428;" horiz-adv-x="1018" 
d="M106 700h81v-632h271v632h81v-632h271v632h81v-700h-785v700z" />
    <glyph glyph-name="afii10043" unicode="&#x429;" horiz-adv-x="1001" 
d="M101 700h80v-632h271v632h81v-632h271v632h82v-632h52v-216h-78v148h-759v700z" />
    <glyph glyph-name="afii10044" unicode="&#x42a;" horiz-adv-x="636" 
d="M350 356h-115v-288h115c200 5 198 282 0 288zM235 700v-278h116c151 0 226 -106 226 -211s-75 -211 -227 -211h-195v635h-139v65h219z" />
    <glyph glyph-name="afii10045" unicode="&#x42b;" horiz-adv-x="822" 
d="M298 350h-115v-278h115c97 1 146 69 146 139c0 69 -49 138 -146 139zM183 700v-278h116c150 0 226 -106 226 -211s-76 -211 -227 -211h-196v700h81zM638 0v700h83v-700h-83z" />
    <glyph glyph-name="afii10046" unicode="&#x42c;" horiz-adv-x="580" 
d="M296 354h-116v-285h116c97 1 146 73 146 142s-49 142 -146 143zM180 700v-278h117c150 0 226 -106 226 -211s-76 -211 -227 -211h-197v700h81z" />
    <glyph glyph-name="afii10047" unicode="&#x42d;" horiz-adv-x="717" 
d="M230 318v66h349c-15 149 -123 250 -272 250c-90 0 -149 -38 -201 -92l-54 47c70 75 149 118 255 118c228 0 355 -172 355 -360c0 -191 -135 -355 -355 -355c-102 0 -199 52 -270 138l56 45c57 -69 138 -109 214 -109c154 0 259 113 273 252h-350z" />
    <glyph glyph-name="afii10048" unicode="&#x42e;" horiz-adv-x="1052" 
d="M640 710c211 -3 356 -154 356 -362c0 -42 -5 -79 -12 -110c-9 -31 -26 -63 -43 -90c-15 -24 -39 -51 -61 -72c-24 -18 -50 -37 -73 -49c-27 -14 -53 -22 -83 -30c-25 -6 -54 -9 -84 -9c-32 0 -67 5 -99 15c-101 29 -195 117 -233 213c-10 24 -17 61 -20 97h-106v-313h-81
v700h81v-315h106c11 79 46 168 102 227c68 66 157 98 250 98zM640 637c-72 0 -140 -27 -193 -80c-56 -57 -78 -131 -79 -209c1 -38 6 -73 17 -102c28 -83 97 -146 178 -173h-1c27 -8 54 -11 78 -11c26 0 52 3 79 11h-1c22 7 56 22 76 36h-1c24 16 46 33 64 55
c17 21 33 49 43 78c9 32 15 68 15 106c0 163 -111 287 -275 289z" />
    <glyph glyph-name="afii10049" unicode="&#x42f;" horiz-adv-x="596" 
d="M44 0l208 290c-138 9 -197 87 -196 205c2 134 95 205 227 205h212v-700h-80v287h-80l-198 -287h-93zM288 355h127v275h-131c-86 0 -150 -45 -150 -135c0 -93 53 -140 154 -140z" />
    <glyph glyph-name="afii10066" unicode="&#x431;" horiz-adv-x="617" 
d="M112 389c51 102 141 120 196 120c126 -1 254 -78 255 -256c0 -149 -109 -266 -258 -261c-103 1 -190 55 -233 154c-16 38 -20 89 -23 129c-1 12 -1 28 -1 41c-6 242 138 367 355 367c18 0 40 5 41 43h67c1 -88 -59 -113 -105 -113c-160 0 -260 -70 -294 -224zM126 253
c0 -27 5 -50 10 -70v1c27 -78 94 -122 170 -122c104 0 177 79 177 191c-1 127 -88 186 -176 187c-89 1 -181 -64 -181 -187z" />
    <glyph glyph-name="afii10067" unicode="&#x432;" horiz-adv-x="555" 
d="M89 0v507h201c92 0 183 -33 184 -136c0 -44 -32 -99 -80 -108c59 -11 99 -66 101 -111c5 -117 -99 -152 -197 -152h-209zM290 442h-125v-147h130c61 0 106 19 104 76c-2 55 -50 71 -109 71zM286 231h-121v-166h133c65 0 123 23 121 84c-4 67 -79 83 -133 82z" />
    <glyph glyph-name="afii10068" unicode="&#x433;" horiz-adv-x="450" 
d="M86 0v507h334v-68h-256v-439h-78z" />
    <glyph glyph-name="afii10069" unicode="&#x434;" horiz-adv-x="610" 
d="M510 507v-441h44v-186h-71v120h-393v-120h-70v186h50c39 26 43 97 43 162v279h397zM147 66h285v378h-243v-216c0 -43 4 -124 -42 -162z" />
    <glyph glyph-name="afii10072" unicode="&#x436;" horiz-adv-x="715" 
d="M323 507h74v-221l209 222h91l-211 -227l221 -281h-89l-186 239l-35 -32v-207h-74v206l-33 33l-189 -239h-86l222 281l-213 226h94l205 -218v218z" />
    <glyph glyph-name="afii10073" unicode="&#x437;" horiz-adv-x="449" 
d="M386 373c0 -39 -21 -90 -72 -107c59 -22 88 -75 88 -114c1 -120 -99 -162 -196 -162c-68 0 -136 31 -188 70l40 56c61 -69 266 -98 266 33c0 76 -99 82 -151 82h-46v65h49c65 -1 135 9 133 77c-1 50 -53 74 -106 74c-43 0 -93 -12 -127 -45l-43 48c45 42 109 67 168 67
c91 0 184 -44 185 -144z" />
    <glyph glyph-name="afii10074" unicode="&#x438;" horiz-adv-x="596" 
d="M434 384l-281 -384h-69v507h78v-386l281 386h68v-507h-77v384z" />
    <glyph glyph-name="afii10077" unicode="&#x43b;" horiz-adv-x="549" 
d="M181 230c0 -90 -11 -175 -136 -241l-35 53c95 52 94 134 94 213v252h363v-507h-79v439h-207v-209z" />
    <glyph glyph-name="afii10078" unicode="&#x43c;" horiz-adv-x="655" 
d="M81 507h77l170 -325l170 325h75v-507h-74v354l-141 -260h-62l-142 259v-353h-73v507z" />
    <glyph glyph-name="afii10079" unicode="&#x43d;" horiz-adv-x="574" 
d="M82 507h78v-221h253v221h79v-507h-79v221h-253v-221h-78v507z" />
    <glyph glyph-name="afii10084" unicode="&#x442;" horiz-adv-x="451" 
d="M22 441v66h405v-66h-163v-441h-80v441h-162z" />
    <glyph glyph-name="afii10086" unicode="&#x444;" horiz-adv-x="691" 
d="M134 253c-4 -102 73 -182 173 -191v383c-100 -10 -176 -91 -173 -192zM385 445v-383c105 7 172 86 172 191c0 101 -72 182 -172 192zM307 700h78v-186c148 -9 251 -117 251 -261c0 -146 -98 -251 -251 -260v-186h-78v186c-146 9 -255 115 -251 260
c-2 142 104 248 251 260v187z" />
    <glyph glyph-name="afii10088" unicode="&#x446;" horiz-adv-x="588" 
d="M419 507h78v-440h41l-1 -187h-71v120h-381v507h79v-440h255v440z" />
    <glyph glyph-name="afii10089" unicode="&#x447;" horiz-adv-x="544" 
d="M462 0h-79v169c-34 -11 -72 -15 -105 -15c-120 0 -228 68 -228 215v138h77v-138c0 -99 74 -149 155 -149c34 0 68 4 101 17v270h79v-507z" />
    <glyph glyph-name="afii10090" unicode="&#x448;" horiz-adv-x="854" 
d="M467 66h227v441h78v-507h-688v507h79v-441h228v441h76v-441z" />
    <glyph glyph-name="afii10091" unicode="&#x449;" horiz-adv-x="863" 
d="M466 67h225v440h80v-439h46l-1 -188h-73v120h-661v507h80v-440h226v440h78v-440z" />
    <glyph glyph-name="afii10092" unicode="&#x44a;" horiz-adv-x="595" 
d="M221 507v-193h134c96 0 188 -42 188 -158c0 -114 -92 -156 -188 -156h-211v443h-125v64h202zM355 248h-134v-184h134c55 0 112 29 112 92c0 66 -57 91 -112 92z" />
    <glyph glyph-name="afii10093" unicode="&#x44b;" horiz-adv-x="731" 
d="M159 507v-196h134c96 0 189 -39 189 -155c0 -114 -93 -156 -189 -156h-211v507h77zM293 247h-134v-185h134c55 0 112 31 112 94c0 66 -57 90 -112 91zM573 0v507h76v-507h-76z" />
    <glyph glyph-name="afii10094" unicode="&#x44c;" horiz-adv-x="532" 
d="M158 507v-199h134c97 0 188 -35 188 -152c0 -114 -91 -156 -188 -156h-210v507h76zM292 246h-134v-183h134c56 0 113 30 113 93c0 66 -57 89 -113 90z" />
    <glyph glyph-name="afii10095" unicode="&#x44d;" horiz-adv-x="507" 
d="M213 446c-41 0 -91 -16 -137 -57l-42 45c61 62 117 81 178 80c148 -2 251 -112 251 -264c0 -145 -101 -256 -250 -257c-78 0 -133 33 -188 78l45 52c58 -49 100 -59 143 -59c98 1 171 61 175 158h-262v63h261c0 93 -89 161 -174 161z" />
    <glyph glyph-name="afii10096" unicode="&#x44e;" horiz-adv-x="793" 
d="M314 252c0 -42 12 -89 39 -123h-1c35 -38 89 -65 140 -65c32 0 68 11 98 28c54 34 80 96 80 160c0 54 -16 101 -53 137c-34 34 -79 52 -125 52c-34 0 -68 -11 -98 -30c-33 -20 -57 -52 -70 -89c-6 -20 -10 -42 -10 -70zM156 219v-219h-75v507h75v-219h81
c3 23 11 49 20 70c19 44 56 88 97 115c40 25 87 40 138 40c68 0 131 -25 178 -70c51 -52 77 -120 77 -191c0 -89 -40 -172 -117 -222c-41 -25 -91 -38 -138 -38c-77 1 -151 35 -199 92c-32 41 -51 86 -56 135h-81z" />
    <glyph glyph-name="bgq" unicode="&#x44f;" horiz-adv-x="523" 
d="M441 507v-507h-76v212h-82l-168 -212h-85l164 214c-80 9 -147 44 -147 144c0 117 86 149 183 149h211zM230 275h135v166h-135c-55 -1 -107 -20 -107 -83s52 -83 107 -83z" />
    <glyph glyph-name="afii10099" unicode="&#x452;" horiz-adv-x="610" 
d="M85 701h78v-70h132v-58h-132v-99c31 26 71 40 131 41c137 -3 242 -83 242 -231v-75c0 -141 -48 -215 -203 -210v66c98 0 125 26 125 144v75c-1 97 -71 154 -161 160c-43 2 -93 -8 -135 -38v-406h-77v573h-64v58h64v70z" />
    <glyph glyph-name="afii10106" unicode="&#x459;" horiz-adv-x="793" 
d="M87 507h329v-199h134c98 0 191 -34 191 -152c0 -113 -93 -156 -191 -156h-210v443h-176v-213c0 -91 -8 -175 -132 -240l-37 56c97 52 92 117 92 197v264zM550 245h-134v-181h134c57 0 115 29 115 92c0 65 -58 89 -115 89z" />
    <glyph glyph-name="afii10107" unicode="&#x45a;" horiz-adv-x="833" 
d="M379 507h78v-206h133c98 0 191 -30 191 -147c0 -114 -93 -154 -191 -154h-211v238h-218v-238h-79v507h79v-206h218v206zM590 239h-133v-177h133c58 0 118 28 118 92s-60 84 -118 85z" />
    <glyph glyph-name="afii10051" unicode="&#x402;" horiz-adv-x="675" 
d="M375 -1v64c97 8 157 39 157 152v72c10 150 -162 209 -263 124v-411h-80v635h-175v65h430v-65h-174v-152c147 87 355 -10 343 -196v-72c1 -147 -89 -212 -238 -216z" />
    <glyph glyph-name="afii10058" unicode="&#x409;" horiz-adv-x="904" 
d="M502 700v-282h117c151 0 228 -105 228 -209s-77 -209 -229 -209h-197v635h-197l-6 -284c-3 -138 2 -275 -174 -368l-34 60c119 73 125 155 129 280l8 377h355zM618 354h-116v-290h116c98 0 148 76 148 146c0 69 -50 144 -148 144z" />
    <glyph glyph-name="afii10059" unicode="&#x40a;" horiz-adv-x="917" 
d="M516 700v-300h118c152 0 227 -97 227 -197c0 -101 -76 -203 -228 -203h-197v331h-255v-331h-81v700h81v-300h255v300h80zM633 331h-117v-267h117c97 0 149 73 149 139c0 65 -52 128 -149 128z" />
    <glyph glyph-name="dieresistonos" unicode="&#x385;" horiz-adv-x="509" 
d="M241 765l77 113h-85l-52 -113h60zM155 791h-81v89h81v-89zM429 791h-81v89h81v-89z" />
    <glyph glyph-name="tonos" unicode="&#x384;" horiz-adv-x="509" 
d="M328 876l-84 -115h-68l65 115h87z" />
    <glyph glyph-name="Alpha" unicode="&#x391;" horiz-adv-x="632" 
d="M13 0l251 705h101l254 -705h-87l-81 224h-271l-79 -224h-88zM205 300h219l-109 318z" />
    <glyph glyph-name="Beta" unicode="&#x392;" horiz-adv-x="609" 
d="M183 410h128c173 0 174 220 0 220h-128v-220zM311 333h-128v-257h128c214 0 212 257 0 257zM517 519c0 -53 -27 -105 -81 -142c80 -39 114 -108 113 -176c0 -140 -109 -201 -239 -201h-209v704h210c112 0 206 -70 206 -185z" />
    <glyph glyph-name="Gamma" unicode="&#x393;" horiz-adv-x="518" 
d="M473 700v-71h-291v-629h-80v700h371z" />
    <glyph glyph-name="Epsilon" unicode="&#x395;" horiz-adv-x="531" 
d="M462 704v-77h-292v-237h288v-77h-288l-1 -234h293v-78h-375v703h375z" />
    <glyph glyph-name="Zeta" unicode="&#x396;" horiz-adv-x="568" 
d="M58 0v80l273 406l103 145h-364v74h445v-76l-262 -392l-116 -162h378v-75h-457z" />
    <glyph glyph-name="Eta" unicode="&#x397;" horiz-adv-x="688" 
d="M505 0v312h-321v-312h-83v703h83v-317h321v317h83v-703h-83z" />
    <glyph glyph-name="Theta" unicode="&#x398;" 
d="M410 714c197 0 357 -168 357 -365c0 -198 -160 -363 -357 -363s-357 165 -357 363c0 197 160 365 357 365zM136 349c0 -189 137 -287 274 -287s274 98 274 287c0 188 -138 290 -275 289s-273 -103 -273 -289zM203 314v71h409v-71h-409z" />
    <glyph glyph-name="Iota" unicode="&#x399;" horiz-adv-x="284" 
d="M101 0v703h82v-703h-82z" />
    <glyph glyph-name="Kappa" unicode="&#x39a;" horiz-adv-x="630" 
d="M101 705h83v-348l321 348h91l-281 -316l292 -389h-97l-250 335l-76 -76v-259h-83v705z" />
    <glyph glyph-name="Lambda" unicode="&#x39b;" horiz-adv-x="627" 
d="M262 705h101l253 -706h-89l-215 620l-214 -620h-87z" />
    <glyph glyph-name="Mu" unicode="&#x39c;" horiz-adv-x="851" 
d="M462 95h-71l-210 462v-557h-80v704h105l220 -502l219 502h106v-704h-83v552z" />
    <glyph glyph-name="Nu" unicode="&#x39d;" horiz-adv-x="757" 
d="M658 700v-700h-116l-359 586v-586h-82v700h99l376 -610v610h82z" />
    <glyph glyph-name="Omicron" unicode="&#x39f;" 
d="M410 714c197 0 357 -168 357 -365c0 -198 -160 -363 -357 -363s-357 165 -357 363c0 197 160 365 357 365zM136 349c0 -189 137 -287 274 -287s274 98 274 287c0 188 -138 290 -275 289s-273 -103 -273 -289z" />
    <glyph glyph-name="Pi" unicode="&#x3a0;" horiz-adv-x="658" 
d="M557 0h-78v633h-297v-633h-80v700h455v-700z" />
    <glyph glyph-name="Rho" unicode="&#x3a1;" horiz-adv-x="583" 
d="M183 256v-256h-82v703h210c157 0 236 -114 236 -226c0 -113 -79 -221 -235 -221h-129zM311 332c103 0 154 75 154 145c0 71 -52 150 -154 150h-128v-295h128z" />
    <glyph glyph-name="Tau" unicode="&#x3a4;" horiz-adv-x="451" 
d="M10 702h431v-80h-174v-622h-83v622h-174v80z" />
    <glyph glyph-name="Upsilon" unicode="&#x3a5;" horiz-adv-x="589" 
d="M574 705l-240 -426v-279h-81v279c-77 136 -162 291 -239 426h94l186 -339c61 112 125 227 185 339h95z" />
    <glyph glyph-name="Chi" unicode="&#x3a7;" horiz-adv-x="643" 
d="M615 700l-239 -350c75 -111 165 -238 240 -349h-100l-189 281l-189 -281h-101l241 349l-239 350h99l189 -277c62 91 127 187 189 277h99z" />
    <glyph glyph-name="Iotadieresis" unicode="&#x3aa;" horiz-adv-x="284" 
d="M101 0v703h82v-703h-82zM102 747h-90v83h90v-83zM275 747h-90v83h90v-83z" />
    <glyph glyph-name="Upsilondieresis" unicode="&#x3ab;" horiz-adv-x="589" 
d="M574 705l-240 -426v-279h-81v279c-77 136 -162 291 -239 426h94l186 -339c61 112 125 227 185 339h95zM257 751h-87v81h87v-81zM424 751h-87v81h87v-81z" />
    <glyph glyph-name="alpha" unicode="&#x3b1;" horiz-adv-x="575" 
d="M297 513c45 -1 102 -20 124 -61l12 55h61v-507h-60l-12 58c-33 -49 -85 -64 -131 -64c-138 0 -244 105 -244 257c0 149 89 267 250 262zM286 63c67 -4 105 21 134 72l-1 252c-29 41 -77 56 -122 57c-89 2 -175 -59 -175 -189c0 -107 57 -186 164 -192z" />
    <glyph glyph-name="beta" unicode="&#x3b2;" horiz-adv-x="580" 
d="M160 525v-448v-273h-81v721c0 115 98 184 204 184s200 -66 200 -180c0 -54 -27 -112 -83 -147c79 -30 128 -105 127 -181c4 -182 -173 -247 -334 -191v76c23 -13 61 -21 96 -22c221 -5 206 278 0 278h-59v69h59c77 0 120 64 116 120c-5 65 -62 105 -123 105
c-60 0 -122 -36 -122 -111z" />
    <glyph glyph-name="eta" unicode="&#x3b7;" horiz-adv-x="616" 
d="M81 507h66l10 -47c29 32 73 53 133 54c137 -3 251 -82 251 -230v-284h-78v284c-1 97 -80 153 -170 159c-43 2 -95 -11 -135 -50v-393h-77v507z" />
    <glyph glyph-name="kappa" unicode="&#x3ba;" horiz-adv-x="518" 
d="M81 507h76v-241l239 242h94l-223 -222l231 -286h-91l-190 234l-60 -54v-180h-76v507z" />
    <glyph glyph-name="nu" unicode="&#x3bd;" horiz-adv-x="484" 
d="M100 509l120 -338c8 -20 19 -77 22 -96h6c3 21 13 75 21 96l119 338h84l-181 -511h-94l-181 511h84z" />
    <glyph glyph-name="omicron" unicode="&#x3bf;" horiz-adv-x="605" 
d="M123 253c0 -132 88 -196 179 -196c92 0 180 64 180 196s-88 194 -180 194c-91 0 -179 -62 -179 -194zM560 253c0 -148 -105 -265 -258 -265c-152 0 -257 117 -257 265s105 264 257 264c153 0 258 -116 258 -264z" />
    <glyph glyph-name="sigma1" unicode="&#x3c2;" horiz-adv-x="526" 
d="M481 449l-43 -53c-37 35 -85 52 -135 52c-93 1 -179 -77 -180 -196c0 -93 60 -190 181 -190c51 0 101 22 138 56l44 -53c-47 -46 -111 -73 -182 -73c-172 0 -259 130 -259 262c1 132 90 264 259 265c71 0 128 -22 177 -70z" />
    <glyph glyph-name="sigma" unicode="&#x3c3;" horiz-adv-x="617" 
d="M563 254c0 -154 -105 -265 -258 -265c-152 0 -262 108 -262 265c0 148 110 261 262 261h291v-62h-146c86 -39 113 -123 113 -199zM121 254c0 -262 364 -265 364 0c0 254 -364 257 -364 0z" />
    <glyph glyph-name="chi" unicode="&#x3c7;" horiz-adv-x="503" 
d="M255 306l133 202h95l-178 -255l180 -254h-88l-142 206l-141 -206h-89l179 254l-177 255h95z" />
    <glyph glyph-name="omicrontonos" unicode="&#x3cc;" horiz-adv-x="605" 
d="M123 253c0 -132 88 -196 179 -196c92 0 180 64 180 196s-88 194 -180 194c-91 0 -179 -62 -179 -194zM560 253c0 -148 -105 -265 -258 -265c-152 0 -257 117 -257 265s105 264 257 264c153 0 258 -116 258 -264zM414 694l-75 -112h-67l59 112h83z" />
    <glyph glyph-name="upsilontonos" unicode="&#x3cd;" horiz-adv-x="590" 
d="M291 65c79 0 140 51 140 144v298h77v-298c1 -131 -90 -216 -217 -216c-122 0 -210 88 -209 216v298h77v-298c0 -92 58 -144 132 -144zM404 693l-82 -112h-65l63 112h84z" />
    <glyph glyph-name="omegatonos" unicode="&#x3ce;" horiz-adv-x="760" 
d="M509 452l16 62c131 -21 184 -143 184 -259c0 -126 -63 -259 -194 -260c-17 0 -31 2 -44 5c-38 11 -75 45 -92 96c-15 -54 -56 -86 -93 -96c-12 -3 -27 -5 -43 -5c-130 1 -192 128 -192 260c0 124 59 233 182 259l15 -63c-97 -22 -122 -121 -122 -198
c0 -100 39 -184 117 -185c64 0 101 56 101 115v196h71v-196c4 -63 34 -114 101 -114h-1c79 1 118 84 118 184c0 80 -28 177 -124 199zM496 696l-79 -108h-69l61 108h87z" />
    <glyph glyph-name="Delta" unicode="&#x394;" horiz-adv-x="632" 
d="M619 0h-606l251 705h101zM315 618l-191 -550h384z" />
    <glyph glyph-name="Xi" unicode="&#x39e;" horiz-adv-x="530" 
d="M37 74h462v-74h-462v74zM493 627h-450v73h450v-73zM78 319v69h377v-69h-377z" />
    <glyph glyph-name="Sigma" unicode="&#x3a3;" horiz-adv-x="546" 
d="M329 374v-29l-187 -275h367v-70h-437l-36 44l211 315l-202 297l31 44h426v-67h-356z" />
    <glyph glyph-name="Phi" unicode="&#x3a6;" horiz-adv-x="818" 
d="M361 639v64h79v-64c409 -5 405 -569 0 -576v-66h-79v66c-413 6 -412 570 0 576zM440 572v-443c302 7 300 437 0 443zM132 352c0 -107 80 -223 229 -223v443c-151 0 -229 -113 -229 -220z" />
    <glyph glyph-name="Psi" unicode="&#x3a8;" horiz-adv-x="749" 
d="M338 213v487h81v-487c145 12 203 106 204 219v268h80v-268c-1 -141 -76 -281 -284 -290v-142h-81v142c-205 12 -284 149 -285 289v269h80v-268c1 -108 61 -205 205 -219z" />
    <glyph glyph-name="Omega" unicode="&#x3a9;" horiz-adv-x="810" 
d="M405 637c-162 0 -278 -122 -278 -281c0 -147 82 -242 203 -291l-17 -65h-284v67h183c-103 43 -163 164 -163 289c0 204 147 355 356 355c211 0 355 -152 355 -355c0 -121 -68 -251 -162 -290h184v-66h-278l-13 66c119 55 192 139 192 290c0 158 -115 281 -278 281z" />
    <glyph glyph-name="gamma" unicode="&#x3b3;" horiz-adv-x="487" 
d="M16 437v70c81 2 108 -11 133 -79l108 -327l137 406h79l-180 -496l2 -205h-76l2 205l-147 397v-1c-8 19 -19 31 -58 30z" />
    <glyph glyph-name="delta" unicode="&#x3b4;" horiz-adv-x="599" 
d="M557 238c0 -37 -6 -72 -21 -102c-45 -88 -130 -142 -235 -142c-38 1 -69 7 -97 17h1c-94 37 -160 111 -160 227c0 89 60 179 167 207c-74 16 -109 68 -109 112c0 113 121 150 209 149c56 -1 114 -13 182 -52l-39 -52c-64 40 -274 71 -274 -45c0 -54 82 -70 131 -75
c63 -6 114 -26 164 -71c52 -46 81 -108 81 -173zM480 238c0 90 -73 174 -179 174c-95 0 -178 -73 -178 -174c0 -98 71 -174 178 -174c111 0 179 72 179 174z" />
    <glyph glyph-name="epsilon" unicode="&#x3b5;" horiz-adv-x="450" 
d="M382 107l36 -57c-50 -33 -111 -57 -175 -57c-97 0 -204 43 -199 159c2 50 34 91 90 111c-53 17 -73 69 -73 108c0 102 105 143 189 143c48 1 101 -16 153 -51l-33 -55c-61 53 -230 54 -232 -37c-2 -64 76 -77 136 -77h49v-63h-46c-70 0 -154 -7 -155 -84
c1 -81 76 -83 123 -82c47 0 92 14 137 42z" />
    <glyph glyph-name="zeta" unicode="&#x3b6;" horiz-adv-x="449" 
d="M448 700v-55c-115 -101 -328 -292 -328 -450c0 -41 20 -74 65 -96c37 -19 111 -44 152 -57c53 -17 88 -68 75 -123c-6 -25 -37 -71 -63 -110l-59 36c24 34 44 71 46 88c3 19 -10 35 -29 42c-24 10 -44 18 -61 23c-36 11 -77 24 -109 42h1c-64 37 -95 94 -95 152
c0 150 168 332 306 444h-290v64h389z" />
    <glyph glyph-name="theta" unicode="&#x3b8;" horiz-adv-x="610" 
d="M561 347c0 -50 -8 -104 -19 -145c-21 -72 -62 -142 -137 -183c-63 -35 -138 -34 -201 1c-67 39 -111 109 -134 185v-1c-14 40 -21 90 -21 143c0 98 23 177 75 255c23 32 49 57 80 75c32 17 66 26 101 26c33 0 70 -9 100 -26c114 -65 156 -202 156 -330zM484 333h-356
c-3 -107 48 -267 177 -267c132 0 175 139 179 267zM130 399h352c-5 94 -62 235 -177 235c-110 0 -168 -138 -175 -235z" />
    <glyph glyph-name="iota" unicode="&#x3b9;" horiz-adv-x="256" 
d="M220 66v-67c-88 1 -141 12 -141 116v392h79v-392c0 -37 14 -49 62 -49z" />
    <glyph glyph-name="lambda" unicode="&#x3bb;" horiz-adv-x="506" 
d="M89 632v68h34c56 2 95 -18 116 -78v0l197 -522c12 -29 13 -41 57 -40v-60c-83 -2 -104 17 -125 77l-118 315c-52 -127 -105 -266 -155 -392h-83l198 481l-37 116c-12 23 -37 38 -84 35z" />
    <glyph glyph-name="xi" unicode="&#x3be;" horiz-adv-x="446" 
d="M310 -31l-35 12c-107 37 -230 83 -230 220c0 63 31 134 112 168c-67 24 -95 89 -95 142c1 111 85 197 210 197c47 0 100 -15 156 -51l-39 -48c-45 28 -85 33 -116 33c-80 0 -136 -53 -134 -131c3 -59 53 -107 118 -108h106v-64h-106c-80 -2 -137 -60 -137 -135
c0 -97 108 -136 200 -164c46 -17 98 -37 98 -88c0 -49 -38 -94 -69 -132l-52 36c38 47 76 80 13 113z" />
    <glyph glyph-name="rho" unicode="&#x3c1;" horiz-adv-x="611" 
d="M318 -5c-64 2 -116 15 -165 100l1 -290h-75v454c2 127 81 254 239 256c157 -2 237 -123 238 -256c3 -138 -76 -262 -238 -264zM324 444h-15c-97 0 -158 -109 -154 -194v-4c1 -81 58 -179 168 -179c94 0 155 84 156 179c3 99 -51 198 -155 198z" />
    <glyph glyph-name="pi" unicode="&#x3c0;" horiz-adv-x="574" 
d="M82 507h410v-507h-79v441h-253v-441h-78v507z" />
    <glyph glyph-name="tau" unicode="&#x3c4;" horiz-adv-x="351" 
d="M302 62v-63c-110 -3 -170 36 -174 138v310h-107v60h309v-60h-123v-310c0 -52 30 -74 95 -75z" />
    <glyph glyph-name="upsilon" unicode="&#x3c5;" horiz-adv-x="590" 
d="M291 65c79 0 140 51 140 144v298h77v-298c1 -131 -90 -216 -217 -216c-122 0 -210 88 -209 216v298h77v-298c0 -92 58 -144 132 -144z" />
    <glyph glyph-name="phi" unicode="&#x3c6;" horiz-adv-x="673" 
d="M124 254c0 -105 73 -189 175 -197v456c177 4 318 -58 328 -259c-1 -91 -38 -173 -118 -222c-34 -21 -83 -33 -133 -38v-172h-77v171c-150 4 -252 116 -252 261c0 87 39 177 160 245l34 -54c-97 -57 -117 -126 -117 -191zM376 444v-386c107 8 173 78 173 196
c0 108 -65 183 -173 190z" />
    <glyph glyph-name="psi" unicode="&#x3c8;" horiz-adv-x="723" 
d="M323 60v462h75v-462c104 4 177 91 176 193v254h76v-253c-1 -91 -37 -172 -116 -221c-33 -22 -84 -32 -136 -37v-182h-75v182c-51 5 -101 16 -134 37c-81 48 -118 132 -118 221v253h77v-253c-1 -105 70 -191 175 -194z" />
    <glyph glyph-name="omega" unicode="&#x3c9;" horiz-adv-x="760" 
d="M509 452l16 62c131 -21 184 -143 184 -259c0 -126 -63 -259 -194 -260c-17 0 -31 2 -44 5c-38 11 -75 45 -92 96c-15 -54 -56 -86 -93 -96c-12 -3 -27 -5 -43 -5c-130 1 -192 128 -192 260c0 124 59 233 182 259l15 -63c-97 -22 -122 -121 -122 -198
c0 -100 39 -184 117 -185c64 0 101 56 101 115v196h71v-196c4 -63 34 -114 101 -114h-1c79 1 118 84 118 184c0 80 -28 177 -124 199zM5 161v1v-1z" />
    <glyph glyph-name="upsilondieresis" unicode="&#x3cb;" horiz-adv-x="590" 
d="M291 65c-74 0 -132 52 -132 144v298h-77v-298c-1 -128 87 -216 209 -216c127 0 218 85 217 216v298h-77v-298c0 -93 -61 -144 -140 -144zM263 623h-81v71h81v-71zM418 623h-81v71h81v-71z" />
    <glyph glyph-name="iotadieresis" unicode="&#x3ca;" horiz-adv-x="244" 
d="M220 -1v67c-48 0 -62 12 -62 49v392h-79v-392c0 -104 53 -115 141 -116zM84 623h-81v71h81v-71zM239 623h-81v71h81v-71z" />
    <glyph glyph-name="alphatonos" unicode="&#x3ac;" horiz-adv-x="575" 
d="M303 513c45 -1 96 -24 118 -61l12 55h61v-507h-60l-12 58c-33 -49 -85 -64 -131 -64c-138 0 -244 105 -244 257c0 161 95 267 256 262zM286 66c67 -4 105 18 134 69l-1 252c-36 35 -80 54 -122 55c-89 2 -174 -58 -174 -188c0 -107 56 -182 163 -188zM398 694l-84 -115
h-60l59 115h85z" />
    <glyph glyph-name="epsilontonos" unicode="&#x3ad;" horiz-adv-x="460" 
d="M61 371c0 102 105 143 189 143c53 1 112 -19 169 -62l-37 -54c-49 33 -93 42 -132 42c-47 -1 -111 -18 -112 -69c-2 -64 76 -77 136 -77h49v-63h-46c-70 0 -145 -12 -155 -81c1 -56 61 -85 122 -84c51 0 99 16 147 49l42 -55c-53 -38 -120 -67 -190 -67
c-97 0 -204 43 -199 159c2 50 34 91 90 111c-53 17 -73 69 -73 108zM351 694l-84 -115h-60l59 115h85z" />
    <glyph glyph-name="etatonos" unicode="&#x3ae;" horiz-adv-x="616" 
d="M81 507h66l10 -47c29 32 73 53 133 54c137 -3 251 -82 251 -230v-284h-78v284c-1 97 -80 153 -170 159c-43 2 -95 -11 -135 -50v-393h-77v507zM399 696l-84 -115h-60l59 115h85z" />
    <glyph glyph-name="iotatonos" unicode="&#x3af;" horiz-adv-x="244" 
d="M220 66v-67c-88 1 -141 12 -141 116v392h79v-392c0 -37 14 -49 62 -49zM221 694l-84 -115h-60l59 115h85z" />
    <glyph glyph-name="upsilondieresistonos" unicode="&#x3b0;" horiz-adv-x="590" 
d="M291 65c79 0 140 51 140 144v298h77v-298c1 -131 -90 -216 -217 -216c-122 0 -210 88 -209 216v298h77v-298c0 -92 58 -144 132 -144zM362 697l-74 -108h-56l49 108h81zM216 612h-77v85h77v-85zM459 612h-77v85h77v-85z" />
    <glyph glyph-name="Alphatonos" unicode="&#x386;" horiz-adv-x="632" 
d="M13 0l251 705h101l254 -705h-87l-81 224h-271l-79 -224h-88zM205 300h219l-109 318zM65 590l84 115h-87l-65 -115h68z" />
    <glyph glyph-name="Epsilontonos" unicode="&#x388;" horiz-adv-x="570" 
d="M501 704v-77h-292v-237h288v-77h-288l-1 -234h293v-78h-375v703h375zM98 705l-84 -115h-68l65 115h87z" />
    <glyph glyph-name="Etatonos" unicode="&#x389;" horiz-adv-x="713" 
d="M530 0v312h-321v-312h-83v703h83v-317h321v317h83v-703h-83zM102 705l-84 -115h-68l65 115h87z" />
    <glyph glyph-name="Iotatonos" unicode="&#x38a;" horiz-adv-x="307" 
d="M124 0v703h82v-703h-82zM98 705l-84 -115h-68l65 115h87z" />
    <glyph glyph-name="Omicrontonos" unicode="&#x38c;" 
d="M410 714c197 0 357 -168 357 -365c0 -198 -160 -363 -357 -363s-357 165 -357 363c0 197 160 365 357 365zM136 349c0 -189 137 -287 274 -287s274 98 274 287c0 188 -138 290 -275 289s-273 -103 -273 -289zM40 590l84 115h-87l-65 -115h68z" />
    <glyph glyph-name="Upsilontonos" unicode="&#x38e;" horiz-adv-x="690" 
d="M675 705l-240 -426v-279h-81v279c-77 136 -162 291 -239 426h94l186 -339c61 112 125 227 185 339h95zM18 590l84 115h-87l-65 -115h68z" />
    <glyph glyph-name="Omegatonos" unicode="&#x38f;" horiz-adv-x="810" 
d="M405 637c-162 0 -278 -122 -278 -281c0 -147 82 -242 203 -291l-17 -65h-284v67h183c-103 43 -163 164 -163 289c0 204 147 355 356 355c211 0 355 -152 355 -355c0 -121 -68 -251 -162 -290h184v-66h-278l-13 66c119 55 192 139 192 290c0 158 -115 281 -278 281z
M117 705l-84 -115h-68l65 115h87z" />
    <glyph glyph-name="iotadieresistonos" unicode="&#x390;" horiz-adv-x="244" 
d="M220 66v-67c-88 1 -141 12 -141 116v392h79v-392c0 -37 14 -49 62 -49zM205 697l-74 -108h-56l49 108h81zM59 612h-77v85h77v-85zM302 612h-77v85h77v-85z" />
    <glyph glyph-name="Udieresis" unicode="&#xdc;" horiz-adv-x="655" 
d="M91 700h83v-498c0 -93 75 -140 151 -141c77 -1 156 46 156 141v498h83v-498c0 -146 -120 -218 -239 -217c-117 1 -234 74 -234 217v498zM294 772h-90v98h90v-98zM467 772h-90v98h90v-98z" />
    <glyph glyph-name="Ucircumflex" unicode="&#xdb;" horiz-adv-x="655" 
d="M91 700h83v-498c0 -93 75 -140 151 -141c77 -1 156 46 156 141v498h83v-498c0 -146 -120 -218 -239 -217c-117 1 -234 74 -234 217v498zM193 763l88 117h101l88 -117h-74l-64 81h-2l-63 -81h-74z" />
    <glyph glyph-name="Uacute" unicode="&#xda;" horiz-adv-x="655" 
d="M91 700h83v-498c0 -93 75 -140 151 -141c77 -1 156 46 156 141v498h83v-498c0 -146 -120 -218 -239 -217c-117 1 -234 74 -234 217v498zM446 883l-84 -115h-74l65 115h93z" />
    <glyph glyph-name="Ugrave" unicode="&#xd9;" horiz-adv-x="655" 
d="M91 700h83v-498c0 -93 75 -140 151 -141c77 -1 156 46 156 141v498h83v-498c0 -146 -120 -218 -239 -217c-117 1 -234 74 -234 217v498zM308 774l-84 115h93l65 -115h-74z" />
    <glyph glyph-name="aring" unicode="&#xe5;" horiz-adv-x="568" 
d="M418 239c-37 24 -85 36 -128 36c-109 -1 -165 -47 -165 -114c0 -60 51 -108 155 -108c49 0 106 26 138 64v122zM493 0h-61l-11 45c-36 -35 -90 -56 -141 -57c-152 -1 -227 75 -227 173c0 99 79 181 236 179c45 0 91 -17 131 -38v22c0 100 -70 127 -146 127
c-55 0 -113 -19 -155 -49l-33 55c66 48 130 63 190 63c113 1 217 -52 217 -196v-324zM289 578c-45 0 -84 28 -84 74c0 47 39 75 84 75c44 0 84 -28 84 -75c0 -46 -40 -74 -84 -74zM289 620c19 0 33 13 33 32c0 21 -14 34 -33 34c-20 0 -33 -13 -33 -34c0 -19 13 -32 33 -32z
" />
    <glyph glyph-name="adieresis" unicode="&#xe4;" horiz-adv-x="568" 
d="M418 239c-37 24 -85 36 -128 36c-109 -1 -165 -47 -165 -114c0 -60 51 -108 155 -108c49 0 106 26 138 64v122zM493 0h-61l-11 45c-36 -35 -90 -56 -141 -57c-152 -1 -227 75 -227 173c0 99 79 181 236 179c45 0 91 -17 131 -38v22c0 100 -70 127 -146 127
c-55 0 -113 -19 -155 -49l-33 55c66 48 130 63 190 63c113 1 217 -52 217 -196v-324zM250 614h-89v87h89v-87zM422 614h-89v87h89v-87z" />
    <glyph glyph-name="atilde" unicode="&#xe3;" horiz-adv-x="568" 
d="M418 239c-37 24 -85 36 -128 36c-109 -1 -165 -47 -165 -114c0 -60 51 -108 155 -108c49 0 106 26 138 64v122zM493 0h-61l-11 45c-36 -35 -90 -56 -141 -57c-152 -1 -227 75 -227 173c0 99 79 181 236 179c45 0 91 -17 131 -38v22c0 100 -70 127 -146 127
c-55 0 -113 -19 -155 -49l-33 55c66 48 130 63 190 63c113 1 217 -52 217 -196v-324zM404 712l45 -33c-31 -70 -103 -88 -166 -47c-42 27 -76 18 -104 -25l-48 31c40 75 112 93 180 46c40 -27 71 -8 93 28z" />
    <glyph glyph-name="acircumflex" unicode="&#xe2;" horiz-adv-x="568" 
d="M418 239c-37 24 -85 36 -128 36c-109 -1 -165 -47 -165 -114c0 -60 51 -108 155 -108c49 0 106 26 138 64v122zM493 0h-61l-11 45c-36 -35 -90 -56 -141 -57c-152 -1 -227 75 -227 173c0 99 79 181 236 179c45 0 91 -17 131 -38v22c0 100 -70 127 -146 127
c-55 0 -113 -19 -155 -49l-33 55c66 48 130 63 190 63c113 1 217 -52 217 -196v-324zM154 585l88 117h101l88 -117h-74l-64 81h-2l-63 -81h-74z" />
    <glyph glyph-name="aacute" unicode="&#xe1;" horiz-adv-x="568" 
d="M418 239c-37 24 -85 36 -128 36c-109 -1 -165 -47 -165 -114c0 -60 51 -108 155 -108c49 0 106 26 138 64v122zM493 0h-61l-11 45c-36 -35 -90 -56 -141 -57c-152 -1 -227 75 -227 173c0 99 79 181 236 179c45 0 91 -17 131 -38v22c0 100 -70 127 -146 127
c-55 0 -113 -19 -155 -49l-33 55c66 48 130 63 190 63c113 1 217 -52 217 -196v-324zM395 701l-84 -115h-74l65 115h93z" />
    <glyph glyph-name="agrave" unicode="&#xe0;" horiz-adv-x="568" 
d="M418 239c-37 24 -85 36 -128 36c-109 -1 -165 -47 -165 -114c0 -60 51 -108 155 -108c49 0 106 26 138 64v122zM493 0h-61l-11 45c-36 -35 -90 -56 -141 -57c-152 -1 -227 75 -227 173c0 99 79 181 236 179c45 0 91 -17 131 -38v22c0 100 -70 127 -146 127
c-55 0 -113 -19 -155 -49l-33 55c66 48 130 63 190 63c113 1 217 -52 217 -196v-324zM278 587l-84 115h93l65 -115h-74z" />
    <glyph glyph-name="edieresis" unicode="&#xeb;" horiz-adv-x="599" 
d="M304 60c56 0 114 24 148 70l60 -38c-51 -69 -124 -103 -208 -103c-172 0 -259 135 -258 266c0 131 89 264 257 265c161 1 268 -131 244 -293h-425c6 -86 70 -167 182 -167zM123 293h354c-8 93 -76 156 -173 158c-110 -1 -168 -75 -181 -158zM262 616h-91v81h91v-81z
M437 616h-91v81h91v-81z" />
    <glyph glyph-name="eacute" unicode="&#xe9;" horiz-adv-x="599" 
d="M304 60c56 0 114 24 148 70l60 -38c-51 -69 -124 -103 -208 -103c-172 0 -259 135 -258 266c0 131 89 264 257 265c161 1 268 -131 244 -293h-425c6 -86 70 -167 182 -167zM123 293h354c-8 93 -76 156 -173 158c-110 -1 -168 -75 -181 -158zM415 707l-84 -115h-74l65 115
h93z" />
    <glyph glyph-name="egrave" unicode="&#xe8;" horiz-adv-x="599" 
d="M304 60c56 0 114 24 148 70l60 -38c-51 -69 -124 -103 -208 -103c-172 0 -259 135 -258 266c0 131 89 264 257 265c161 1 268 -131 244 -293h-425c6 -86 70 -167 182 -167zM123 293h354c-8 93 -76 156 -173 158c-110 -1 -168 -75 -181 -158zM290 595l-84 115h93l65 -115
h-74z" />
    <glyph glyph-name="ecircumflex" unicode="&#xea;" horiz-adv-x="599" 
d="M304 60c56 0 114 24 148 70l60 -38c-51 -69 -124 -103 -208 -103c-172 0 -259 135 -258 266c0 131 89 264 257 265c161 1 268 -131 244 -293h-425c6 -86 70 -167 182 -167zM123 293h354c-8 93 -76 156 -173 158c-110 -1 -168 -75 -181 -158zM165 591l88 117h101l88 -117
h-74l-64 81h-2l-63 -81h-74z" />
    <glyph glyph-name="idieresis" unicode="&#xef;" horiz-adv-x="240" 
d="M160 0h-79v512h79v-512zM81 610h-82v88h82v-88zM237 610h-81v88h81v-88z" />
    <glyph glyph-name="icircumflex" unicode="&#xee;" horiz-adv-x="240" 
d="M160 0h-79v512h79v-512zM-19 590l88 117h101l88 -117h-74l-64 81h-2l-63 -81h-74z" />
    <glyph glyph-name="iacute" unicode="&#xed;" horiz-adv-x="240" 
d="M160 0h-79v512h79v-512zM226 707l-84 -115h-74l65 115h93z" />
    <glyph glyph-name="igrave" unicode="&#xec;" horiz-adv-x="240" 
d="M160 0h-79v512h79v-512zM95 592l-84 115h93l65 -115h-74z" />
    <glyph glyph-name="odieresis" unicode="&#xf6;" horiz-adv-x="605" 
d="M123 253c0 -132 88 -196 179 -196c92 0 180 64 180 196s-88 194 -180 194c-91 0 -179 -62 -179 -194zM560 253c0 -148 -105 -265 -258 -265c-152 0 -257 117 -257 265s105 264 257 264c153 0 258 -116 258 -264zM266 618h-89v87h89v-87zM439 618h-90v87h90v-87z" />
    <glyph glyph-name="otilde" unicode="&#xf5;" horiz-adv-x="605" 
d="M123 253c0 -132 88 -196 179 -196c92 0 180 64 180 196s-88 194 -180 194c-91 0 -179 -62 -179 -194zM560 253c0 -148 -105 -265 -258 -265c-152 0 -257 117 -257 265s105 264 257 264c153 0 258 -116 258 -264zM428 715l45 -33c-31 -70 -103 -88 -166 -47
c-42 27 -76 18 -104 -25l-48 31c40 75 112 93 180 46c40 -27 71 -8 93 28z" />
    <glyph glyph-name="ocircumflex" unicode="&#xf4;" horiz-adv-x="605" 
d="M123 253c0 -132 88 -196 179 -196c92 0 180 64 180 196s-88 194 -180 194c-91 0 -179 -62 -179 -194zM560 253c0 -148 -105 -265 -258 -265c-152 0 -257 117 -257 265s105 264 257 264c153 0 258 -116 258 -264zM170 590l88 117h101l88 -117h-74l-64 81h-2l-63 -81h-74z
" />
    <glyph glyph-name="oacute" unicode="&#xf3;" horiz-adv-x="605" 
d="M123 253c0 -132 88 -196 179 -196c92 0 180 64 180 196s-88 194 -180 194c-91 0 -179 -62 -179 -194zM560 253c0 -148 -105 -265 -258 -265c-152 0 -257 117 -257 265s105 264 257 264c153 0 258 -116 258 -264zM414 705l-84 -115h-74l65 115h93z" />
    <glyph glyph-name="ograve" unicode="&#xf2;" horiz-adv-x="605" 
d="M123 253c0 -132 88 -196 179 -196c92 0 180 64 180 196s-88 194 -180 194c-91 0 -179 -62 -179 -194zM560 253c0 -148 -105 -265 -258 -265c-152 0 -257 117 -257 265s105 264 257 264c153 0 258 -116 258 -264zM288 592l-84 115h93l65 -115h-74z" />
    <glyph glyph-name="ntilde" unicode="&#xf1;" horiz-adv-x="616" 
d="M81 507h66l10 -47c29 32 86 53 146 54c137 -3 238 -76 238 -224v-290h-78v290c-1 97 -67 147 -157 153c-43 2 -108 -11 -148 -50v-393h-77v507zM411 711l45 -33c-31 -70 -103 -88 -166 -47c-42 27 -76 18 -104 -25l-48 31c40 75 112 93 180 46c40 -27 71 -8 93 28z" />
    <glyph glyph-name="udieresis" unicode="&#xfc;" horiz-adv-x="615" 
d="M534 0h-65l-11 52c-46 -40 -96 -59 -159 -59c-115 0 -225 79 -225 219v294h78v-294c3 -97 81 -149 162 -150c53 -1 107 19 143 63v381h77v-506zM260 620h-88v80h88v-80zM430 620h-89v80h89v-80z" />
    <glyph glyph-name="ucircumflex" unicode="&#xfb;" horiz-adv-x="615" 
d="M534 0h-65l-11 52c-46 -40 -96 -59 -159 -59c-115 0 -225 79 -225 219v294h78v-294c3 -97 81 -149 162 -150c53 -1 107 19 143 63v381h77v-506zM173 596l88 117h101l88 -117h-74l-64 81h-2l-63 -81h-74z" />
    <glyph glyph-name="uacute" unicode="&#xfa;" horiz-adv-x="615" 
d="M534 0h-65l-11 52c-46 -40 -96 -59 -159 -59c-115 0 -225 79 -225 219v294h78v-294c3 -97 81 -149 162 -150c53 -1 107 19 143 63v381h77v-506zM411 707l-84 -115h-74l65 115h93z" />
    <glyph glyph-name="ugrave" unicode="&#xf9;" horiz-adv-x="615" 
d="M534 0h-65l-11 52c-46 -40 -96 -59 -159 -59c-115 0 -225 79 -225 219v294h78v-294c3 -97 81 -149 162 -150c53 -1 107 19 143 63v381h77v-506zM279 595l-84 115h93l65 -115h-74z" />
    <glyph glyph-name="ydieresis" unicode="&#xff;" horiz-adv-x="504" 
d="M89 -190v65c61 -7 84 17 97 50l28 73l-207 509h84l164 -420l156 420h84l-235 -607c-30 -80 -98 -97 -171 -90zM210 625h-91v78h91v-78zM385 625h-91v78h91v-78z" />
    <glyph glyph-name="yacute" unicode="&#xfd;" horiz-adv-x="504" 
d="M89 -190v65c61 -7 84 17 97 50l28 73l-207 509h84l164 -420l156 420h84l-235 -607c-30 -80 -98 -97 -171 -90zM369 703l-84 -115h-74l65 115h93z" />
    </font>
</defs>
</svg>
